<svg width="173" height="56" viewBox="0 0 173 56" fill="none" xmlns="http://www.w3.org/2000/svg">
<path d="M105.8 4.66666H66.3857C66 4.66666 66 4.66666 66 5.10577C66 20.3759 66 35.6461 66 50.9161C66 51.3333 66 51.3333 66.3575 51.3333H85.9987H105.678C105.997 51.3333 105.997 51.3333 105.997 50.9491C105.997 35.6571 105.997 20.3539 105.997 5.06185V4.90817C106.016 4.7435 105.931 4.66666 105.8 4.66666ZM103.448 7.98195C103.448 21.331 103.448 34.68 103.448 48.029C103.448 48.3693 103.448 48.3693 103.166 48.3693H68.8502C68.568 48.3693 68.568 48.3693 68.568 48.029C68.568 34.68 68.568 21.331 68.568 7.98195C68.568 7.58675 68.5398 7.64165 68.8502 7.64165H86.0269H103.166C103.476 7.64165 103.448 7.58675 103.448 7.98195Z" fill="#C5C5C5"/>
<path d="M98.9039 25.9414C98.838 25.162 98.7345 24.3936 98.4523 23.68C98.0949 22.7799 97.4929 22.3078 96.6368 22.2419C95.9972 22.187 95.3575 22.22 94.7179 22.1981C94.0876 22.22 93.4574 22.187 92.8271 22.2419C91.9241 22.3078 91.3032 22.8237 90.9552 23.7788C90.673 24.5363 90.5789 25.3486 90.5225 26.161C90.4378 27.3905 90.4378 28.6311 90.5225 29.8715C90.5789 30.6399 90.673 31.4084 90.9176 32.1329C91.275 33.1977 91.9241 33.7576 92.9024 33.8016C94.1158 33.8674 95.3387 33.8674 96.5522 33.8016C97.5023 33.7576 98.1513 33.2308 98.5088 32.2098C98.8192 31.3315 98.9039 30.3984 98.9603 29.4653C99.0167 28.2687 99.0073 27.1051 98.9039 25.9414ZM96.4769 30.4753C96.4769 30.5082 96.4769 30.5411 96.4675 30.5851C96.3641 31.4962 96.1947 31.6719 95.414 31.6719C94.8119 31.6719 94.2099 31.7048 93.6079 31.639C93.3633 31.628 93.147 31.4304 93.0905 31.1449C92.9776 30.6948 92.9212 30.2337 92.9212 29.7726C92.9024 29.1799 92.9118 28.5871 92.9118 28.0053C92.9024 27.0393 92.8648 26.0622 93.0435 25.0962C93.147 24.5253 93.3163 24.3606 93.8148 24.3496C94.4075 24.3387 95.0001 24.3387 95.5927 24.3496C96.1477 24.3496 96.3264 24.5363 96.4299 25.1729C96.5146 25.7438 96.5616 26.3256 96.5616 26.8965C96.571 28.0931 96.6086 29.2787 96.4769 30.4753Z" fill="#C5C5C5"/>
<path d="M89.4338 23.5039C89.1234 22.7465 88.4744 22.2634 87.7594 22.2414C86.4707 22.1647 85.1726 22.1536 83.8839 22.2305C82.962 22.2745 82.3412 22.8342 81.9931 23.8113C81.7297 24.5358 81.6357 25.3153 81.5886 26.0947C81.504 27.3681 81.504 28.6415 81.5886 29.9149C81.6451 30.7602 81.7486 31.6056 82.0778 32.385C82.3976 33.1424 82.8962 33.6144 83.6299 33.7462C84.3542 33.8669 85.0691 33.8121 85.7652 33.834C86.4237 33.823 87.0445 33.845 87.6748 33.7901C88.5496 33.7242 89.1799 33.2522 89.5373 32.3081C89.8101 31.5946 89.923 30.8371 89.9888 30.0686C90.1111 28.5647 90.1017 27.0497 89.9512 25.5458C89.8477 24.8323 89.7255 24.1407 89.4338 23.5039ZM87.5431 30.4308C87.5431 30.4748 87.5431 30.5187 87.5337 30.5627C87.4114 31.5177 87.2703 31.6604 86.4425 31.6604C85.8499 31.6604 85.2573 31.6933 84.6646 31.6275C84.4201 31.6165 84.2225 31.4189 84.1661 31.1445C84.0626 30.7273 84.0062 30.3101 83.9968 29.882C83.9685 29.2672 83.9215 28.6415 83.9403 28.0157C83.9591 27.0278 83.9403 26.0288 84.119 25.0518C84.2131 24.5248 84.3918 24.3602 84.8528 24.3493C85.483 24.3382 86.1133 24.3382 86.7435 24.3493C87.195 24.3602 87.355 24.5139 87.4678 25.0298C87.5995 25.6336 87.6183 26.2593 87.6278 26.8851C87.6372 28.0597 87.656 29.2453 87.5431 30.4308Z" fill="#C5C5C5"/>
<path d="M79.2165 26.2368C78.4828 26.127 77.7397 26.2149 77.0059 26.193C76.4415 26.182 75.9242 26.3027 75.5009 26.7638C75.4538 26.8186 75.4068 26.8626 75.3409 26.8186C75.2751 26.7748 75.3127 26.6979 75.3127 26.6321C75.3598 25.9734 75.4068 25.3037 75.4444 24.6341C75.4538 24.4035 75.5197 24.3377 75.7266 24.3377C77.3258 24.3487 78.9155 24.3377 80.5146 24.3487C80.684 24.3487 80.731 24.2937 80.731 24.0962C80.7216 23.5473 80.7122 22.9874 80.731 22.4385C80.7404 22.2189 80.6651 22.186 80.4958 22.186H77.1282C75.9994 22.186 74.8706 22.186 73.7512 22.186C73.5819 22.186 73.516 22.2409 73.5066 22.4385C73.4032 24.3047 73.2997 26.171 73.1962 28.0372C73.1774 28.2128 73.2432 28.2568 73.3655 28.3007C73.8923 28.4764 74.4191 28.6519 74.9459 28.8386C75.0587 28.8825 75.181 28.8715 75.2845 28.7947C75.5291 28.6081 75.8019 28.4654 76.0841 28.3885C76.7802 28.2128 77.4951 28.2897 78.1912 28.3226C78.4452 28.3337 78.5957 28.5312 78.6427 28.8276C78.7744 29.596 78.7744 30.3864 78.6427 31.1549C78.5863 31.4952 78.4263 31.6598 78.1253 31.6709C77.3728 31.7038 76.6203 31.7038 75.8677 31.6709C75.5761 31.6598 75.435 31.5062 75.3598 31.1768C75.2939 30.8805 75.2563 30.5731 75.2657 30.2657C75.2751 30.112 75.2187 30.0682 75.0964 30.0682C74.4567 30.0791 73.8171 30.0901 73.1774 30.0901C73.0457 30.0901 73.0081 30.1449 73.0175 30.2877C73.0363 30.7707 73.0551 31.2537 73.1021 31.7367C73.2432 33.0321 73.8265 33.7237 74.8894 33.7896C76.291 33.8774 77.702 33.8774 79.1036 33.7896C79.9596 33.7348 80.5617 33.1639 80.8345 32.2197C80.9473 31.7587 81.0132 31.2757 81.0226 30.7927C81.0696 29.8925 81.0696 28.9813 80.9097 28.0921C80.7028 26.9724 80.176 26.3906 79.2165 26.2368Z" fill="#C5C5C5"/>
</svg>
