<svg width="20" height="20" viewBox="0 0 20 20" fill="none" xmlns="http://www.w3.org/2000/svg">
<g clip-path="url(#clip0_1_428)">
<path d="M13.5366 18.0132C13.2653 18.4676 13.2653 19.2032 13.5366 19.6565C13.808 20.1099 14.2486 20.1099 14.5206 19.6565L19.7966 10.821C20.0686 10.3665 20.0686 9.63097 19.7966 9.17541L14.5206 0.339857C14.2493 -0.114588 13.8086 -0.114588 13.5366 0.339857C13.2646 0.794301 13.2653 1.52986 13.5366 1.9843L18.3266 10.0076L13.5366 18.0132Z" fill="black"/>
<path fill-rule="evenodd" clip-rule="evenodd" d="M0.666667 8.88867H19.334C19.7013 8.88867 20.0007 9.38645 20.0007 9.99978C20.0007 10.6142 19.7013 11.1109 19.334 11.1109H0.666667C0.298 11.1109 0 10.6142 0 9.99978C0 9.38645 0.298 8.88867 0.666667 8.88867Z" fill="black"/>
</g>
<defs>
<clipPath id="clip0_1_428">
<rect width="20" height="20" fill="white"/>
</clipPath>
</defs>
</svg>
