<svg width="20" height="20" viewBox="0 0 20 20" fill="none" xmlns="http://www.w3.org/2000/svg">
<g clip-path="url(#clip0_1_401)">
<path d="M1.674 10.0076L6.464 1.9843C6.73533 1.52986 6.73533 0.794301 6.464 0.339857C6.19267 -0.114588 5.752 -0.114588 5.48 0.339857L0.204 9.17652C-0.068 9.63208 -0.068 10.3676 0.204 10.8221L5.48 19.6576C5.75133 20.111 6.192 20.111 6.464 19.6576C6.736 19.2043 6.73533 18.4687 6.464 18.0143L1.674 10.0076Z" fill="black"/>
<path fill-rule="evenodd" clip-rule="evenodd" d="M20 9.99978C20 10.6142 19.702 11.1109 19.3333 11.1109H0.666667C0.299333 11.1109 0 10.6142 0 9.99978C0 9.38645 0.299333 8.88867 0.666667 8.88867H19.3347C19.7027 8.88867 20 9.38645 20 9.99978Z" fill="black"/>
</g>
<defs>
<clipPath id="clip0_1_401">
<rect width="20" height="20" fill="white"/>
</clipPath>
</defs>
</svg>
