<svg width="48" height="48" viewBox="0 0 48 48" fill="none" xmlns="http://www.w3.org/2000/svg">
<path opacity="0.2" d="M24 40.5C33.1128 40.5 40.5 33.1128 40.5 24C40.5 14.8873 33.1128 7.5 24 7.5C14.8873 7.5 7.5 14.8873 7.5 24C7.5 33.1128 14.8873 40.5 24 40.5Z" fill="#624CE0"/>
<path fill-rule="evenodd" clip-rule="evenodd" d="M24 14.25C24.4142 14.25 24.75 14.5858 24.75 15V24C24.75 24.4142 24.4142 24.75 24 24.75C23.5858 24.75 23.25 24.4142 23.25 24V15C23.25 14.5858 23.5858 14.25 24 14.25Z" fill="#624CE0"/>
<path fill-rule="evenodd" clip-rule="evenodd" d="M23.3505 23.6249C23.5576 23.2662 24.0163 23.1433 24.375 23.3504L32.1693 27.8503C32.528 28.0575 32.6508 28.5163 32.4438 28.875C32.2368 29.2335 31.778 29.3565 31.4193 29.1495L23.625 24.6494C23.2663 24.4423 23.1434 23.9836 23.3505 23.6249Z" fill="#624CE0"/>
<path fill-rule="evenodd" clip-rule="evenodd" d="M42.0312 10.4468C42.4455 10.4468 42.7812 10.7826 42.7812 11.1968V18.6968C42.7812 19.111 42.4455 19.4468 42.0312 19.4468H34.5312C34.117 19.4468 33.7812 19.111 33.7812 18.6968C33.7812 18.2826 34.117 17.9468 34.5312 17.9468H41.2812V11.1968C41.2812 10.7826 41.617 10.4468 42.0312 10.4468Z" fill="#624CE0"/>
<path fill-rule="evenodd" clip-rule="evenodd" d="M27.0728 8.55265C24.0175 7.94493 20.8507 8.25683 17.9727 9.4489C15.0948 10.641 12.635 12.6597 10.9044 15.2498C9.17373 17.8398 8.25 20.8849 8.25 24C8.25 27.115 9.17373 30.1603 10.9044 32.7503C12.635 35.3403 15.0948 37.359 17.9727 38.551C20.8507 39.7432 24.0175 40.055 27.0728 39.4475C30.1278 38.8397 32.9343 37.3395 35.137 35.137C35.4298 34.844 35.9047 34.844 36.1975 35.137C36.4905 35.4298 36.4905 35.9047 36.1975 36.1975C33.7852 38.61 30.7115 40.253 27.3652 40.9185C24.0191 41.5842 20.5507 41.2425 17.3987 39.937C14.2467 38.6313 11.5526 36.4202 9.65715 33.5835C7.7617 30.7467 6.75 27.4118 6.75 24C6.75 20.5883 7.7617 17.2532 9.65715 14.4164C11.5526 11.5797 14.2467 9.3687 17.3987 8.06308C20.5507 6.75748 24.0191 6.41587 27.3652 7.08145C30.7115 7.74705 33.7852 9.38995 36.1975 11.8024L42.5615 18.1664C42.8545 18.4593 42.8545 18.9341 42.5615 19.227C42.2687 19.5199 41.7938 19.5199 41.501 19.227L35.137 12.8631C32.9343 10.6604 30.1278 9.16035 27.0728 8.55265Z" fill="#624CE0"/>
</svg>
