<svg width="80" height="80" viewBox="0 0 80 80" fill="none" xmlns="http://www.w3.org/2000/svg">
<path d="M40 80C62.0914 80 80 62.0914 80 40C80 17.9086 62.0914 0 40 0C17.9086 0 0 17.9086 0 40C0 62.0914 17.9086 80 40 80Z" fill="#060606"/>
<path opacity="0.2" d="M33.3333 39.9998C33.3333 37.8022 33.985 35.654 35.2059 33.8268C36.4268 31.9996 38.1621 30.5754 40.1924 29.7344C42.2228 28.8934 44.4568 28.6734 46.6121 29.1022C48.7674 29.5309 50.7473 30.5891 52.3012 32.143C53.8551 33.697 54.9133 35.6768 55.3421 37.8321C55.7708 39.9874 55.5508 42.2216 54.7098 44.2518C53.8688 46.2821 52.4447 48.0174 50.6174 49.2383C48.7902 50.4592 46.642 51.1109 44.4444 51.1109H32.2222C31.1192 51.1098 30.0291 50.8741 29.0241 50.4196C28.0192 49.9649 27.1224 49.3018 26.3933 48.4741C25.6642 47.6463 25.1196 46.6731 24.7954 45.6188C24.4713 44.5644 24.3751 43.4532 24.5133 42.359C24.6514 41.2647 25.0208 40.2122 25.5968 39.2716C26.1728 38.3309 26.9422 37.5234 27.8541 36.903C28.766 36.2824 29.7994 35.8629 30.8859 35.6723C31.9723 35.4818 33.0868 35.5244 34.1554 35.7974" fill="white"/>
<path d="M38.6187 46.397L43.3328 51.111L48.0468 46.397" stroke="white" stroke-width="2" stroke-linecap="round" stroke-linejoin="round"/>
<path d="M43.3328 40V51.1111" stroke="white" stroke-width="2" stroke-linecap="round" stroke-linejoin="round"/>
<path d="M35.5545 51.1112H32.2211C31.1181 51.1101 30.028 50.8744 29.023 50.4199C28.0181 49.9652 27.1213 49.3021 26.3922 48.4743C25.6632 47.6466 25.1185 46.6733 24.7943 45.6191C24.4702 44.5647 24.374 43.4535 24.5122 42.3592C24.6503 41.265 25.0197 40.2125 25.5957 39.2719C26.1717 38.3312 26.9411 37.5237 27.853 36.9032C28.7649 36.2827 29.7983 35.8632 30.8848 35.6726C31.9712 35.4821 33.0858 35.5247 34.1544 35.7977" stroke="white" stroke-width="2" stroke-linecap="round" stroke-linejoin="round"/>
<path d="M33.3328 40.0002C33.333 38.2396 33.7514 36.5044 34.5538 34.9374C35.3562 33.3703 36.5194 32.0164 37.9477 30.9871C39.3759 29.9577 41.0283 29.2826 42.7687 29.0172C44.5091 28.7517 46.2877 28.9036 47.9578 29.4604C49.6279 30.0172 51.1419 30.9628 52.3749 32.2195C53.6079 33.4761 54.5247 35.0077 55.0496 36.6882C55.5746 38.3686 55.6927 40.1497 55.3942 41.8847C55.0958 43.6197 54.3893 45.2591 53.3331 46.6675" stroke="white" stroke-width="2" stroke-linecap="round" stroke-linejoin="round"/>
</svg>
