<svg width="80" height="80" viewBox="0 0 80 80" fill="none" xmlns="http://www.w3.org/2000/svg">
<path d="M40 80C62.0914 80 80 62.0914 80 40C80 17.9086 62.0914 0 40 0C17.9086 0 0 17.9086 0 40C0 62.0914 17.9086 80 40 80Z" fill="#060606"/>
<path opacity="0.2" d="M40 39.9998C46.7501 39.9998 52.2222 37.0151 52.2222 33.3332C52.2222 29.6513 46.7501 26.6665 40 26.6665C33.2499 26.6665 27.7778 29.6513 27.7778 33.3332C27.7778 37.0151 33.2499 39.9998 40 39.9998Z" fill="white"/>
<path d="M40 39.9998C46.7501 39.9998 52.2222 37.0151 52.2222 33.3332C52.2222 29.6513 46.7501 26.6665 40 26.6665C33.2499 26.6665 27.7778 29.6513 27.7778 33.3332C27.7778 37.0151 33.2499 39.9998 40 39.9998Z" stroke="white" stroke-width="2" stroke-linecap="round" stroke-linejoin="round"/>
<path d="M27.7778 33.3335V40.0002C27.7778 43.6821 33.2499 46.6668 40 46.6668C46.7501 46.6668 52.2222 43.6821 52.2222 40.0002V33.3335" stroke="white" stroke-width="2" stroke-linecap="round" stroke-linejoin="round"/>
<path d="M27.7778 40V46.6667C27.7778 50.3486 33.2499 53.3333 40 53.3333C46.7501 53.3333 52.2222 50.3486 52.2222 46.6667V40" stroke="white" stroke-width="2" stroke-linecap="round" stroke-linejoin="round"/>
</svg>
