<svg width="48" height="48" viewBox="0 0 48 48" fill="none" xmlns="http://www.w3.org/2000/svg">
<path opacity="0.2" d="M24 24C33.1128 24 40.5 19.9706 40.5 15C40.5 10.0294 33.1128 6 24 6C14.8873 6 7.5 10.0294 7.5 15C7.5 19.9706 14.8873 24 24 24Z" fill="#624CE0"/>
<path fill-rule="evenodd" clip-rule="evenodd" d="M11.9736 7.9776C15.0895 6.27803 19.3429 5.25 24 5.25C28.6572 5.25 32.9105 6.27802 36.0265 7.97762C39.114 9.66173 41.25 12.1116 41.25 15C41.25 17.8884 39.114 20.3383 36.0265 22.0224C32.9105 23.722 28.6572 24.75 24 24.75C19.3429 24.75 15.0895 23.722 11.9736 22.0224C8.88605 20.3383 6.75 17.8884 6.75 15C6.75 12.1116 8.88605 9.66173 11.9736 7.9776ZM12.6919 9.29445C9.8076 10.8677 8.25 12.9178 8.25 15C8.25 17.0822 9.8076 19.1323 12.6919 20.7055C15.5478 22.2633 19.5444 23.25 24 23.25C28.4555 23.25 32.4523 22.2633 35.3083 20.7055C38.1925 19.1323 39.75 17.0822 39.75 15C39.75 12.9178 38.1925 10.8677 35.3083 9.29445C32.4523 7.7367 28.4555 6.75 24 6.75C19.5444 6.75 15.5478 7.7367 12.6919 9.29445Z" fill="#624CE0"/>
<path fill-rule="evenodd" clip-rule="evenodd" d="M7.5 14.25C7.91422 14.25 8.25 14.5858 8.25 15V24C8.25 26.0823 9.8076 28.1322 12.6919 29.7055C15.5478 31.2633 19.5444 32.25 24 32.25C28.4555 32.25 32.4523 31.2633 35.3083 29.7055C38.1925 28.1322 39.75 26.0823 39.75 24V15C39.75 14.5858 40.0858 14.25 40.5 14.25C40.9142 14.25 41.25 14.5858 41.25 15V24C41.25 26.8883 39.114 29.3382 36.0265 31.0222C32.9105 32.722 28.6572 33.75 24 33.75C19.3429 33.75 15.0895 32.722 11.9736 31.0222C8.88605 29.3382 6.75 26.8883 6.75 24V15C6.75 14.5858 7.08577 14.25 7.5 14.25Z" fill="#624CE0"/>
<path fill-rule="evenodd" clip-rule="evenodd" d="M7.5 23.25C7.91422 23.25 8.25 23.5858 8.25 24V33C8.25 35.0823 9.8076 37.1323 12.6919 38.7055C15.5478 40.2633 19.5444 41.25 24 41.25C28.4555 41.25 32.4523 40.2633 35.3083 38.7055C38.1925 37.1323 39.75 35.0823 39.75 33V24C39.75 23.5858 40.0858 23.25 40.5 23.25C40.9142 23.25 41.25 23.5858 41.25 24V33C41.25 35.8883 39.114 38.3383 36.0265 40.0223C32.9105 41.722 28.6572 42.75 24 42.75C19.3429 42.75 15.0895 41.722 11.9736 40.0223C8.88605 38.3383 6.75 35.8883 6.75 33V24C6.75 23.5858 7.08577 23.25 7.5 23.25Z" fill="#624CE0"/>
</svg>
