<svg width="48" height="48" viewBox="0 0 48 48" fill="none" xmlns="http://www.w3.org/2000/svg">
<path opacity="0.2" d="M34.5 7.5H24L14.7954 19.5L24 42L45 19.5L34.5 7.5Z" fill="#624CE0"/>
<path fill-rule="evenodd" clip-rule="evenodd" d="M12.9356 7.00612C13.078 6.84335 13.2837 6.75 13.5 6.75H34.5C34.7163 6.75 34.922 6.84335 35.0645 7.00612L45.5645 19.0061C45.818 19.2958 45.811 19.7303 45.5483 20.0117L24.5483 42.5117C24.4065 42.6637 24.2079 42.75 24 42.75C23.7921 42.75 23.5936 42.6637 23.4517 42.5117L2.45171 20.0117C2.18907 19.7303 2.1821 19.2958 2.43557 19.0061L12.9356 7.00612ZM13.8403 8.25L4.01078 19.4838L24 40.9007L43.9893 19.4838L34.1598 8.25H13.8403Z" fill="#624CE0"/>
<path fill-rule="evenodd" clip-rule="evenodd" d="M24 6.75C24.2332 6.75 24.4532 6.8585 24.5951 7.04353L33.7997 19.0435C33.962 19.2552 33.9997 19.5371 33.8987 19.784L24.6942 42.284C24.5788 42.5658 24.3045 42.75 24 42.75C23.6955 42.75 23.4211 42.5658 23.3058 42.284L14.1013 19.784C14.0003 19.5371 14.038 19.2552 14.2003 19.0435L23.4049 7.04353C23.5468 6.8585 23.7668 6.75 24 6.75ZM15.6527 19.6147L24 40.0192L32.3472 19.6147L24 8.7323L15.6527 19.6147Z" fill="#624CE0"/>
<path fill-rule="evenodd" clip-rule="evenodd" d="M2.25 19.5C2.25 19.0858 2.58577 18.75 3 18.75H45C45.4142 18.75 45.75 19.0858 45.75 19.5C45.75 19.9142 45.4142 20.25 45 20.25H3C2.58577 20.25 2.25 19.9142 2.25 19.5Z" fill="#624CE0"/>
</svg>
