<svg width="173" height="56" viewBox="0 0 173 56" fill="none" xmlns="http://www.w3.org/2000/svg">
<path d="M41.5148 16.774C40.9089 16.3809 39.172 16.624 37.0859 17.3784C33.435 20.2944 30.3536 24.5903 30.1386 31.4888C30.0995 31.6538 29.7394 31.4663 29.6681 31.4153C28.6822 29.2074 28.2916 26.8825 29.1148 23.5285C29.2683 23.23 28.7666 22.8626 28.6764 22.9675C28.4958 23.179 27.7425 24.1165 27.2422 25.1305C24.7624 30.1569 26.3841 36.5973 30.7227 39.4158C35.0604 42.2388 40.538 40.4179 42.9533 35.348C45.7475 29.4965 43.153 17.8429 41.5149 16.7741L41.5148 16.774Z" fill="#C5C5C5"/>
<path d="M57.0415 19.5822C51.8983 19.5822 48.165 24.0498 48.165 30.2054C48.165 36.4114 51.8886 40.7458 57.2207 40.7458C59.914 40.7458 62.0463 39.7618 63.7421 37.7361C64.2486 37.0971 64.3031 36.4813 64.3031 36.2459C64.3031 35.2424 63.6644 34.5135 62.7845 34.5135C62.3409 34.5135 61.9699 34.7093 61.5444 35.1689C60.5842 36.2144 59.3196 37.2824 57.2207 37.2824C54.3021 37.2824 51.9285 34.722 51.779 31.4341H63.3952C64.6584 31.4341 65.272 30.744 65.272 29.3251C65.272 28.9073 65.272 28.6059 65.2001 28.0111C64.5743 22.7334 61.5247 19.5829 57.0418 19.5829L57.0415 19.5822ZM57.0415 22.8775C59.8304 22.8775 61.62 24.9542 61.7304 28.306H51.7826C52.0437 25.204 54.2884 22.8775 57.0414 22.8775H57.0415Z" fill="#C5C5C5"/>
<path d="M76.3642 19.5822C74.0278 19.5822 71.7145 21.1518 70.8107 23.3319V21.9847C70.8107 19.8974 69.4263 19.7917 69.149 19.7917C68.3286 19.7917 67.4519 20.3677 67.4519 21.9847V38.2582C67.4519 40.4256 68.9256 40.5351 69.2209 40.5351C69.5162 40.5351 70.9905 40.4256 70.9905 38.2582V29.5344C70.9905 25.7387 72.8314 23.0875 75.467 23.0875C78.0197 23.0875 79.261 25.045 79.261 29.0724V38.2582C79.261 40.4256 80.7354 40.5351 81.0307 40.5351C81.326 40.5351 82.7997 40.4256 82.7997 38.2582V27.7739C82.7997 23.814 81.109 19.5833 76.3642 19.5833V19.5822Z" fill="#C5C5C5"/>
<path d="M98.8108 19.7923C97.993 19.7923 97.4 20.3496 97.0469 21.446L92.2056 35.6707L87.4012 21.446C87.0251 20.3331 86.4365 19.7923 85.6014 19.7923C84.6258 19.7923 83.8318 20.6817 83.8318 21.7754C83.8318 22.046 83.8581 22.397 84.0539 22.9452L89.6176 38.295C90.2807 40.1467 91.3711 40.5354 92.1696 40.5354C92.9675 40.5354 94.0586 40.1467 94.723 38.2959L100.323 22.8608C100.514 22.3194 100.544 21.9218 100.544 21.7336C100.544 20.6274 99.7979 19.7926 98.8108 19.7926V19.7923Z" fill="#C5C5C5"/>
<path d="M109.097 19.5826C106.833 19.5826 104.725 20.3191 103.162 21.6549C102.632 22.0822 102.374 22.6155 102.374 23.2861C102.374 24.2093 102.977 24.933 103.749 24.933C104.082 24.933 104.456 24.7777 104.799 24.4972C106.143 23.4502 107.406 22.962 108.773 22.962C111.389 22.962 112.891 24.5167 112.891 27.2279V27.6772C107.018 27.6847 101.045 28.5135 101.045 34.4833C101.045 38.7799 104.187 40.7036 107.301 40.7036C109.782 40.7036 111.763 39.5554 113.033 37.3812V38.4266C113.033 39.9837 113.928 40.5357 114.696 40.5357C114.858 40.5357 116.285 40.4765 116.285 38.4266V27.4789C116.285 22.5335 113.597 19.5816 109.096 19.5816L109.097 19.5826ZM112.147 30.7213H112.891V31.6737C112.891 35.1574 110.993 37.4081 108.056 37.4081C107.258 37.4081 104.656 37.1914 104.656 34.3992C104.656 31.1023 108.931 30.7213 112.147 30.7213Z" fill="#C5C5C5"/>
<path d="M125.502 23.5488C127.05 23.5488 127.128 22.1411 127.128 21.8591C127.128 21.0221 126.701 20.1273 125.502 20.1273H122.318V16.3647C122.318 14.684 121.385 14.0877 120.585 14.0877C120.29 14.0877 118.816 14.1973 118.816 16.3647V34.2321C118.816 38.3556 120.557 40.535 123.851 40.535C124.703 40.535 125.534 40.3586 126.077 40.0632C126.7 39.7003 127.056 39.1033 127.056 38.426C127.056 37.4705 126.463 36.7777 125.646 36.7777C125.488 36.7777 125.263 36.8234 125.015 36.9066C124.712 36.9951 124.507 37.0295 124.282 37.0295C122.942 37.0295 122.318 36.0074 122.318 33.8122V23.5471H125.502V23.5488Z" fill="#C5C5C5"/>
<path d="M137.202 19.5822C131.85 19.5822 127.967 24.0146 127.967 30.1209C127.967 33.0939 128.908 35.8035 130.615 37.7503C132.31 39.6816 134.649 40.7451 137.202 40.7451C142.487 40.7451 146.473 36.1778 146.473 30.121C146.473 24.0147 142.573 19.5823 137.202 19.5823V19.5822ZM137.202 37.2393C133.532 37.2393 131.612 33.6581 131.612 30.1204C131.612 25.259 134.51 23.0452 137.202 23.0452C139.894 23.0452 142.791 25.259 142.791 30.1204C142.791 35.0119 139.894 37.2393 137.202 37.2393Z" fill="#C5C5C5"/>
</svg>
