<svg width="173" height="56" viewBox="0 0 173 56" fill="none" xmlns="http://www.w3.org/2000/svg">
<path d="M35.8359 15.2961C33.5154 16.4238 30.9636 19.606 30.1582 23.6086C29.1364 28.6756 33.3847 30.8154 33.7318 30.1173C34.1402 29.2893 32.9681 29.0114 32.7288 26.3841C32.4208 22.9865 33.7776 19.1906 35.4896 17.525C35.809 17.2205 35.7935 17.6502 35.7935 18.4422C35.7935 19.8707 35.7249 32.6507 35.7249 35.3189C35.7249 38.9307 35.5974 40.068 35.3622 41.191C35.131 42.3331 34.7569 43.1032 35.0387 43.4029C35.3581 43.7339 36.7148 42.9457 37.5014 41.671C38.4424 40.1438 38.774 38.3086 38.8353 36.3167C38.9047 33.9179 38.9006 30.104 38.9047 27.9329C38.9047 25.9363 38.9316 20.0992 38.8777 16.585C38.8622 15.7257 36.8039 14.8255 35.8359 15.2961ZM142.825 34.2575C142.493 34.2575 142.336 34.6606 142.208 35.3369C141.769 37.6958 141.307 38.2279 140.709 38.2279C140.042 38.2279 139.444 37.0605 139.287 34.7233C139.167 32.8879 139.186 29.5037 139.34 26.1374C139.372 25.4479 139.209 24.764 137.613 24.0878C136.923 23.8013 135.925 23.3716 135.428 24.7679C134.021 28.7032 133.473 31.836 133.342 33.1032C133.339 33.1696 133.269 33.1792 133.257 33.0273C133.177 32.0105 132.991 30.162 132.968 26.2759C132.96 25.5247 132.826 24.875 132.101 24.3467C131.635 24.0071 130.216 23.3982 129.703 24.1191C129.263 24.7099 128.751 26.2949 128.215 28.1748C127.783 29.7057 127.483 30.7444 127.483 30.7444C127.483 30.7444 127.486 26.6165 127.494 25.0495C127.494 24.4586 127.147 24.2622 127.043 24.2262C126.569 24.065 125.632 23.8013 125.239 23.8013C124.75 23.8013 124.634 24.1191 124.634 24.58C124.634 24.6379 124.553 30.0092 124.553 33.7653V34.2936C124.287 36.0218 123.409 38.3674 122.456 38.3674C121.504 38.3674 121.053 37.3867 121.053 32.9106C121.053 30.3004 121.122 29.1641 121.153 27.2747C121.172 26.1868 121.21 25.3502 121.207 25.1577C121.199 24.58 120.331 24.2841 119.93 24.177C119.526 24.065 119.175 24.0289 118.898 24.0422C118.513 24.0697 118.239 24.3647 118.239 24.7773V25.4034C117.741 24.4908 116.935 23.8545 116.396 23.6713C114.955 23.1743 113.447 23.6173 112.31 25.4611C111.408 26.9304 110.864 28.5902 110.652 30.9768C110.494 32.7229 110.544 34.4909 110.826 35.9857C110.486 37.6731 109.862 38.3674 109.179 38.3674C108.185 38.3674 107.468 36.4866 107.549 33.2322C107.607 31.0934 107.973 29.5938 108.378 27.418C108.551 26.4913 108.409 26.0085 108.058 25.538C107.738 25.1168 107.052 24.8977 106.069 25.1614C105.371 25.354 104.365 25.5598 103.451 25.7172C103.451 25.7172 103.505 25.4611 103.552 25.0097C103.787 22.6413 101.57 22.8338 100.864 23.5907C100.441 24.0422 100.151 24.5753 100.044 25.5333C99.8703 27.0556 100.938 27.7717 100.938 27.7717C100.587 29.6337 99.7314 32.0684 98.8411 33.8279C98.3665 34.7726 98.0038 35.4669 97.5342 36.2096C97.5299 35.9364 97.5299 35.6585 97.5299 35.3863C97.5218 31.469 97.5642 28.3854 97.5838 27.2747C97.6034 26.1868 97.6419 25.372 97.6419 25.1795C97.6337 24.7583 97.4221 24.5932 96.9745 24.3961C96.5816 24.2177 96.1152 24.0878 95.6333 24.0422C95.028 23.9891 94.658 24.3647 94.6695 24.8077V25.4034C94.1687 24.4908 93.3625 23.8545 92.8308 23.6713C91.385 23.1743 89.878 23.6173 88.741 25.4611C87.8425 26.9304 87.2486 28.9849 87.0788 30.954C86.9252 32.7987 86.9521 34.3561 87.1678 35.6727C86.9366 36.9882 86.2775 38.3674 85.5301 38.3674C84.5776 38.3674 84.0336 37.3867 84.0336 32.9106C84.0336 30.3004 84.1031 29.1641 84.1382 27.2747C84.157 26.1868 84.1921 25.3502 84.188 25.1577C84.1839 24.58 83.3173 24.2841 82.9122 24.177C82.4923 24.0611 82.1256 24.0252 81.8478 24.0422C81.4778 24.0783 81.2197 24.4586 81.2197 24.7498V25.4034C80.719 24.4908 79.9128 23.8545 79.377 23.6713C77.9353 23.1743 76.4397 23.6268 75.2945 25.4611C74.5472 26.6573 73.9419 27.9861 73.6299 30.9321C73.5449 31.7829 73.5025 32.5787 73.5065 33.3223C73.2092 35.4346 71.895 37.8704 70.8233 37.8704C70.1911 37.8704 69.5899 36.4552 69.5899 33.4342C69.5899 29.4146 69.8055 23.6846 69.8439 23.1298C69.8439 23.1298 71.2006 23.1022 71.4669 23.0985C72.1416 23.0937 72.7583 23.1118 73.6568 23.0577C74.1118 23.0312 74.5472 21.1464 74.0767 20.9094C73.8684 20.8059 72.3728 20.712 71.7789 20.6988C71.2783 20.6855 69.8938 20.5651 69.8938 20.5651C69.8938 20.5651 70.0179 16.7644 70.0449 16.366C70.0677 16.0255 69.6977 15.8557 69.4821 15.7523C68.9609 15.4933 68.4945 15.372 67.9473 15.242C67.1803 15.059 66.8372 15.2383 66.7719 15.9847C66.6714 17.1182 66.6175 20.4399 66.6175 20.4399C66.0547 20.4399 64.1467 20.309 63.5871 20.309C63.0676 20.309 62.504 22.9059 63.2253 22.9371C64.0543 22.9733 65.4919 23.0094 66.4476 23.0396C66.4476 23.0396 66.4051 28.8644 66.4051 30.659V31.2138C65.8775 34.396 64.0306 36.1157 64.0306 36.1157C64.4276 34.0072 63.6181 32.4269 62.1536 31.0934C61.6137 30.5963 60.5502 29.6602 59.3585 28.6444C59.3585 28.6444 60.0486 27.8523 60.6613 26.2674C61.0934 25.1434 61.113 23.8506 60.0486 23.568C58.2909 23.0985 56.8451 24.598 56.4097 26.2001C56.0781 27.4359 56.2521 28.3578 56.9105 29.3111L57.0607 29.5265C56.6679 30.4123 56.1206 31.6075 55.6615 32.5341C54.3783 35.1084 53.4104 37.141 52.6818 37.141C52.0961 37.141 52.1035 35.0771 52.1035 33.143C52.1035 31.4775 52.2113 28.9668 52.2963 26.3708C52.3232 25.5152 51.9532 25.0229 51.3332 24.58C50.955 24.3116 50.1529 23.7833 49.6865 23.7833C48.9931 23.7833 46.9804 23.8904 45.0805 30.2692C44.8411 31.0753 44.3707 32.5389 44.3707 32.5389L44.4132 24.8665C44.4132 24.6871 44.3323 24.5174 44.1436 24.3961C43.8234 24.1949 42.9641 23.7833 42.2086 23.7833C41.8418 23.7833 41.6605 23.9806 41.6605 24.3695L41.5992 36.3661C41.5992 37.2796 41.618 38.3446 41.6956 38.8103C41.7724 39.2761 41.8998 39.6564 42.0542 39.884C42.2086 40.1041 42.3891 40.2739 42.6823 40.3498C42.956 40.4171 44.463 40.6362 44.5406 39.9694C44.637 39.1679 44.6402 38.3048 45.4309 35.0686C46.6643 30.0367 48.2685 27.5839 49.0241 26.7104C49.1588 26.5586 49.3092 26.5491 49.301 26.8004C49.2667 27.9054 49.1548 30.659 49.078 32.9999C48.8738 39.2714 49.8523 40.4304 51.2597 40.4304C52.3314 40.4304 53.8425 39.1907 55.4655 36.0578C56.4792 34.1011 57.4585 32.1899 58.1676 30.8069C58.6535 31.3342 59.2081 31.9033 59.7595 32.5123C61.0435 33.9218 61.4634 35.2648 61.1824 36.5369C60.97 37.5118 60.1647 38.5145 58.7344 37.5394C58.3178 37.2567 58.1406 37.0376 57.7207 36.7151C57.4969 36.5406 57.1498 36.4914 56.9456 36.6706C56.4057 37.141 56.101 37.7357 55.9237 38.4746C55.7579 39.1955 56.3787 39.571 57.0223 39.9021C57.5737 40.1933 58.7614 40.4483 59.5202 40.4797C62.477 40.5964 64.8442 38.8236 66.4901 34.2575C66.7874 38.2015 68.0396 40.4352 70.218 40.4352C71.6785 40.4352 73.1398 38.246 73.7802 36.0929C73.9607 36.9703 74.2343 37.7309 74.5856 38.3807C76.2666 41.4691 79.5273 40.807 81.1617 38.1834C81.6706 37.3687 81.7482 37.0775 81.7482 37.0775C81.9867 39.554 83.7061 40.4256 84.6896 40.4256C85.7955 40.4256 86.9293 39.8176 87.7265 37.7309C87.8229 37.9596 87.9234 38.1749 88.0393 38.3807C89.7162 41.4691 92.977 40.807 94.6155 38.1834C94.6891 38.0535 94.7585 37.9463 94.8156 37.8429L94.8663 39.4724C94.8663 39.4724 93.9294 40.4664 93.3552 41.0792C90.8304 43.7701 88.9101 45.8113 88.768 48.1835C88.5907 51.2139 90.703 52.3378 92.3064 52.4848C94.0029 52.6423 95.4602 51.5544 96.3537 50.0235C97.1403 48.6805 97.6573 45.7932 97.619 42.9373C97.6035 41.7915 97.5798 40.3412 97.5569 38.7791C98.4473 37.5887 99.4495 36.0749 100.368 34.3032C101.373 32.3777 102.445 29.7854 102.992 27.767C102.992 27.767 103.929 27.7765 104.924 27.7044C105.244 27.6816 105.336 27.7585 105.274 28.0268C105.205 28.3532 104.018 33.6761 105.101 37.2216C105.845 39.647 107.514 40.4304 108.509 40.4304C109.669 40.4304 110.779 39.4098 111.372 37.897C111.446 38.063 111.52 38.2279 111.604 38.3807C113.281 41.4691 116.531 40.8022 118.181 38.1834C118.555 37.5887 118.763 37.0775 118.763 37.0775C119.118 39.6431 120.837 40.4352 121.82 40.4352C122.849 40.4352 123.82 39.9476 124.611 37.7803C124.642 38.7345 124.692 39.5133 124.776 39.7588C124.826 39.9116 125.119 40.0994 125.328 40.1933C126.268 40.5964 127.224 40.4039 127.575 40.3185C127.822 40.2606 128.014 40.0367 128.038 39.4458C128.107 37.897 128.064 35.2962 128.469 33.3584C129.151 30.1174 129.784 28.8597 130.084 28.2374C130.251 27.8874 130.443 27.8296 130.447 28.1967C130.458 28.9441 130.493 31.1379 130.759 34.0926C130.948 36.2588 131.206 37.5431 131.407 37.9511C131.969 39.1101 132.671 39.1642 133.238 39.1642C133.601 39.1642 134.356 39.0475 134.29 38.3086C134.256 37.9511 134.314 35.7259 134.98 32.5304C135.42 30.4399 136.148 28.5552 136.41 27.8656C136.511 27.6105 136.553 27.8077 136.553 27.8476C136.495 29.2846 136.372 33.9891 136.873 36.5586C137.56 40.0463 139.536 40.4352 140.227 40.4352C141.695 40.4352 142.902 39.1367 143.307 35.7173C143.407 34.893 143.26 34.2575 142.825 34.2575ZM81.1887 32.1452C81.1078 33.953 80.8031 35.4669 80.3179 36.5633C79.4308 38.5552 77.6853 39.182 76.9175 36.3129C76.3588 34.2404 76.5475 31.411 76.7828 29.8839C77.1217 27.619 77.9818 26.0169 79.323 26.1639C80.6953 26.3214 81.3659 28.3759 81.1887 32.1452ZM94.6385 32.1718C94.5617 33.8771 94.1803 35.5958 93.7637 36.5633C92.9044 38.5685 91.1074 39.1953 90.3633 36.3129C89.8552 34.3382 89.9745 31.7914 90.2285 30.1884C90.5569 28.1027 91.3467 26.1639 92.7696 26.1639C94.1533 26.1639 94.8354 27.9281 94.6385 32.1718ZM94.9897 43.8278C94.9701 46.9484 94.5503 49.6791 93.6477 50.4758C92.3604 51.6037 90.6296 50.7529 90.9881 48.4793C91.3043 46.4647 92.8039 44.4102 94.9938 41.8986C94.9938 41.8986 95.0012 42.4715 94.9895 43.8278H94.9897ZM118.212 32.1897C118.134 34.0659 117.776 35.5294 117.333 36.5633C116.473 38.5685 114.692 39.1906 113.933 36.3129C113.52 34.7412 113.5 32.1176 113.798 29.9296C114.098 27.6996 114.943 26.0169 116.338 26.1639C117.718 26.3166 118.362 28.3759 118.212 32.1897Z" fill="#8979E8"/>
</svg>
