<svg width="1296" height="933" viewBox="0 0 1296 933" fill="none" xmlns="http://www.w3.org/2000/svg">
<path fill-rule="evenodd" clip-rule="evenodd" d="M625.837 1365C505.888 1432.47 422.981 1383.6 323.428 1381.07C217.509 1378.38 73.929 1432.55 25.4623 1349.74C-23.9562 1265.34 4.84219 1106.24 75.787 958.079C140.518 822.839 291.127 739 380.225 608.708C488.367 450.572 503.048 254.34 641.768 130.394C781.052 5.93809 941.796 -20.6856 1041.65 17.6816C1136.27 54.0408 1103.5 225.018 1145.33 323.886C1187.67 423.949 1329.2 446.969 1287.71 599.197C1246.28 751.197 1074.69 886.663 953.793 1026.54C847.426 1149.61 747.731 1296.44 625.837 1365Z" stroke="url(#paint0_linear_1_380)"/>
<path fill-rule="evenodd" clip-rule="evenodd" d="M628.3 1294.13C521.684 1354.02 447.983 1310.63 359.492 1308.39C265.337 1306 137.721 1354.11 94.6229 1280.57C50.7097 1205.64 76.3107 1064.36 139.36 932.795C196.913 812.718 330.781 738.273 409.97 622.582C506.108 482.167 519.16 307.926 642.456 197.87C766.26 87.3602 909.146 63.7206 997.906 97.7887C1082.01 130.072 1052.88 281.888 1090.07 369.679C1127.7 458.53 1253.51 478.969 1216.63 614.139C1179.8 749.107 1027.27 869.388 919.815 993.596C825.267 1102.87 736.65 1233.26 628.3 1294.13Z" stroke="url(#paint1_linear_1_380)"/>
<path fill-rule="evenodd" clip-rule="evenodd" d="M631.288 1220.57C538.547 1272.64 474.446 1234.91 397.473 1232.97C315.572 1230.88 204.555 1272.7 167.072 1208.78C128.864 1143.65 151.137 1020.83 205.989 906.473C256.052 802.104 372.491 737.39 441.371 636.827C524.988 514.771 536.353 363.314 643.601 267.65C751.293 171.59 875.583 151.041 952.786 180.655C1025.95 208.72 1000.61 340.683 1032.96 416.993C1065.69 494.227 1175.13 511.993 1143.05 629.489C1111.01 746.804 978.337 851.357 884.864 959.315C802.627 1054.31 725.536 1167.64 631.288 1220.57Z" stroke="url(#paint2_linear_1_380)"/>
<path fill-rule="evenodd" clip-rule="evenodd" d="M633.692 1153.05C553.964 1197.86 498.853 1165.41 432.686 1163.72C362.268 1161.94 266.839 1197.93 234.613 1142.92C201.769 1086.85 220.922 981.138 268.065 882.715C311.103 792.887 411.21 737.192 470.437 650.634C542.31 545.588 552.078 415.227 644.276 332.887C736.851 250.209 843.711 232.524 910.077 258.008C972.973 282.162 951.187 395.744 978.997 461.423C1007.15 527.898 1101.22 543.189 1073.64 644.313C1046.1 745.293 932.04 835.276 851.681 928.205C780.984 1009.96 714.714 1107.51 633.692 1153.05Z" stroke="url(#paint3_linear_1_380)"/>
<path fill-rule="evenodd" clip-rule="evenodd" d="M636.588 1046.16C570.266 1083.4 524.42 1056.42 469.376 1055.03C410.796 1053.54 331.424 1083.46 304.612 1037.72C277.296 991.124 293.225 903.253 332.439 821.427C368.245 746.748 451.511 700.446 500.777 628.493C560.572 541.161 568.696 432.796 645.393 364.345C722.408 295.614 811.29 280.91 866.504 302.097C918.825 322.176 900.702 416.598 923.842 471.198C947.253 526.458 1025.51 539.17 1002.57 623.232C979.657 707.177 884.779 781.99 817.932 859.232C759.114 927.209 703.987 1008.3 636.588 1046.16Z" stroke="url(#paint4_linear_1_380)"/>
<defs>
<linearGradient id="paint0_linear_1_380" x1="1295.24" y1="700.997" x2="0.760803" y2="700.997" gradientUnits="userSpaceOnUse">
<stop stop-color="#E1E1E1"/>
<stop offset="1" stop-color="#E1E1E1" stop-opacity="0"/>
</linearGradient>
<linearGradient id="paint1_linear_1_380" x1="1223.32" y1="704.528" x2="72.6735" y2="704.528" gradientUnits="userSpaceOnUse">
<stop stop-color="#E1E1E1"/>
<stop offset="1" stop-color="#E1E1E1" stop-opacity="0"/>
</linearGradient>
<linearGradient id="paint2_linear_1_380" x1="1148.87" y1="708.059" x2="147.979" y2="708.059" gradientUnits="userSpaceOnUse">
<stop stop-color="#E1E1E1"/>
<stop offset="1" stop-color="#E1E1E1" stop-opacity="0"/>
</linearGradient>
<linearGradient id="paint3_linear_1_380" x1="1078.65" y1="711.944" x2="218.202" y2="711.944" gradientUnits="userSpaceOnUse">
<stop stop-color="#E1E1E1"/>
<stop offset="1" stop-color="#E1E1E1" stop-opacity="0"/>
</linearGradient>
<linearGradient id="paint4_linear_1_380" x1="1006.73" y1="679.456" x2="290.961" y2="679.456" gradientUnits="userSpaceOnUse">
<stop stop-color="#E1E1E1"/>
<stop offset="1" stop-color="#E1E1E1" stop-opacity="0"/>
</linearGradient>
</defs>
</svg>
