<svg width="112" height="33" viewBox="0 0 112 33" fill="none" xmlns="http://www.w3.org/2000/svg">
<path d="M44.4201 16.5028C44.4201 17.9779 44.0621 19.0944 43.3713 19.8787C42.6685 20.6366 41.7789 21.0216 40.6115 21.0216C39.5902 21.0216 38.7808 20.7422 38.2097 20.1977C37.6386 19.6664 37.3608 18.8018 37.3608 17.6325L37.3872 9.11299L34.0036 9.09979L33.9772 17.8195C33.9772 19.0691 34.2155 20.1724 34.7075 21.0898C35.1806 21.9777 35.8934 22.7145 36.7645 23.2161C37.6408 23.721 38.6358 23.9608 39.7373 23.974H39.7637C41.131 23.974 42.1787 23.7078 42.8958 23.1765C43.5591 22.6848 44.05 22.1535 44.3421 21.5947H44.4619V23.721L47.7796 23.7342L47.8323 9.14049L44.4487 9.12729L44.4223 16.5039L44.4201 16.5028ZM56.4829 21.1558H56.3368L52.6084 9.16689L49.0249 9.15369L53.8955 23.7749L58.9111 23.7881L63.8739 9.20759L60.2904 9.19439L56.4818 21.1569L56.4829 21.1558ZM74.9142 9.75099C73.7732 9.13939 72.4729 8.82039 71.0266 8.82039H71.0002C69.567 8.82039 68.2799 9.12619 67.1521 9.72459C66.0291 10.3121 65.0951 11.206 64.4581 12.303C63.808 13.4063 63.4632 14.7483 63.4632 16.2641V16.703C63.4632 18.232 63.7816 19.574 64.4186 20.7037C65.0687 21.8202 65.9583 22.698 67.0993 23.2953C68.214 23.8937 69.5275 24.1995 70.9738 24.1995H71.0002C72.4334 24.1995 73.7205 23.9069 74.8615 23.3085C75.9911 22.7255 76.9305 21.8308 77.5686 20.7301C78.2188 19.6136 78.5636 18.2848 78.5636 16.7558V16.3169C78.5636 14.7879 78.2451 13.4591 77.6082 12.3426C76.958 11.2525 76.0421 10.3758 74.9142 9.75099ZM70.9859 21.1558C69.7647 21.1558 68.7697 20.7433 67.9999 19.9601C67.2432 19.1626 66.8457 18.0593 66.8457 16.6502V16.384C66.8457 14.9749 67.2575 13.8716 68.0131 13.0741C68.7697 12.2898 69.7779 11.9048 70.9859 11.9048V11.6925L70.9991 11.9048C72.2467 11.9048 73.268 12.3173 74.0247 13.1005C74.7813 13.898 75.1657 15.0013 75.1657 16.4104V16.6766C75.1657 18.0857 74.7539 19.189 73.9983 19.9865C73.2417 20.7708 72.2203 21.1558 70.9859 21.1558ZM91.6082 11.2129H91.4885C91.2765 10.8543 90.9712 10.4957 90.5989 10.1624C90.1739 9.79059 89.6435 9.48479 88.9933 9.23179C88.3432 8.99199 87.547 8.87319 86.6047 8.85999H86.5795C85.3583 8.85999 84.2436 9.15259 83.2222 9.73669C82.2009 10.3208 81.364 11.1986 80.7534 12.3151C80.1428 13.4316 79.8244 14.7868 79.8244 16.329V16.7679C79.8244 18.3233 80.1297 19.6917 80.7534 20.795C81.364 21.9115 82.1998 22.775 83.2222 23.3734C84.2375 23.9656 85.3914 24.2776 86.5663 24.2776H86.5926C87.9863 24.2776 89.0878 24.0114 89.8576 23.4933C90.5737 23.0016 91.1447 22.4703 91.5159 21.8719H91.6488V23.8926L94.9665 23.9058L95.0324 3.36989L91.6488 3.35669L91.6093 11.2118L91.6082 11.2129ZM87.4152 11.7178L87.4284 11.9301C88.6628 11.9301 89.6841 12.3415 90.454 13.1126C91.237 13.8969 91.6214 15.0266 91.6214 16.4753V16.7415C91.6214 18.2034 91.2095 19.3331 90.4276 20.1174C89.6457 20.9017 88.6232 21.2867 87.4152 21.2867C86.2214 21.2867 85.2122 20.8742 84.4292 20.1042C83.6461 19.3199 83.2486 18.1902 83.2618 16.7283V16.4621C83.2618 15.0134 83.6736 13.8969 84.4566 13.1126C85.2396 12.3283 86.2346 11.9433 87.4427 11.9433L87.4163 11.7178H87.4152ZM110.532 12.4625C109.903 11.3557 108.967 10.4554 107.838 9.87089C106.697 9.25929 105.396 8.94029 103.95 8.94029H103.924C102.49 8.94029 101.203 9.24609 100.075 9.84449C98.9524 10.432 98.0184 11.3259 97.3815 12.4229C96.7314 13.5262 96.3865 14.8682 96.3865 16.384V16.8229C96.3865 18.3519 96.705 19.6939 97.342 20.8236C97.9921 21.9401 98.8817 22.8179 100.023 23.4152C101.137 24.0136 102.451 24.3194 103.898 24.3194H103.925C105.358 24.3194 106.645 24.0268 107.786 23.4284C108.916 22.8454 109.855 21.9507 110.493 20.85C111.143 19.7335 111.475 18.4047 111.475 16.8757V16.45C111.501 14.921 111.183 13.5922 110.533 12.4625H110.532ZM103.91 21.2614C102.689 21.2614 101.694 20.8489 100.924 20.0657C100.168 19.2682 99.7701 18.1649 99.7701 16.7558V16.4896C99.7701 15.0805 100.182 13.9772 100.938 13.1797C101.694 12.3954 102.702 12.0104 103.91 12.0104V11.7981L103.924 12.0104C105.171 12.0104 106.192 12.4218 106.949 13.2072C107.706 14.0047 108.09 15.108 108.09 16.5171V16.7833C108.09 18.1924 107.678 19.2957 106.923 20.0932C106.166 20.8775 105.158 21.2625 103.91 21.2625V21.2614Z" fill="#060606"/>
<path d="M16.8055 31.8148C21.9946 30.1802 25.5111 25.3545 25.4979 19.8919L25.432 3.1708C25.432 1.3635 23.6803 0.0874997 21.955 0.6188L2.44746 6.7733C1.90582 6.94802 1.43377 7.29091 1.09969 7.75231C0.765609 8.2137 0.586842 8.76964 0.589285 9.3396L0.615642 19.9733C0.655178 28.374 8.80283 34.3415 16.8055 31.8159V31.8148Z" fill="#8979E8"/>
</svg>
