<svg width="1440" height="656" viewBox="0 0 1440 656" fill="none" xmlns="http://www.w3.org/2000/svg">
<path d="M0 656H1440V-40H0V656Z" fill="white"/>
<path d="M1621.98 778.824C1629.43 778.824 1644.34 778.824 1651.79 778.824C1651.79 778.824 1651.79 778.824 1644.34 778.824C1532.52 736.437 1413.26 699.349 1294 678.153C1219.45 662.26 1137.46 651.664 1062.92 641.069C1033.1 635.767 995.829 630.469 966.01 619.873C913.836 603.98 876.563 577.487 854.202 540.398C839.29 519.207 831.836 503.314 824.383 482.119C809.476 450.328 802.022 418.541 787.11 386.75C772.203 339.066 749.843 291.381 734.936 243.697C720.023 211.907 712.57 180.118 697.663 148.328C682.756 116.538 667.849 84.7486 645.483 52.959C608.216 -0.0235672 548.581 -31.8132 481.494 -42.4097C459.131 -47.708 429.315 -47.708 406.953 -53.0063C354.774 -53.0063 310.049 -58.3045 257.871 -58.3045C160.967 -68.9011 71.5173 -68.9011 -17.932 -79.4976C-85.0193 -84.7958 -144.652 -95.3926 -211.739 -111.287C-211.739 -105.989 -211.739 -100.691 -211.739 -95.3926H-204.285C-114.835 -68.9011 -17.932 -58.3045 71.5173 -53.0063C138.605 -47.708 205.691 -47.708 272.779 -42.4097C317.503 -42.4097 369.682 -37.1114 414.407 -31.8132C451.677 -26.5149 488.948 -21.2166 518.765 -5.32184C563.489 15.8712 600.762 42.3626 630.576 79.4504C652.936 111.24 675.302 148.328 690.209 185.416C705.116 227.802 720.023 270.188 734.936 312.574C749.843 360.259 772.203 413.243 787.11 460.928C794.569 492.714 809.476 524.505 831.836 550.998C854.202 588.083 891.47 614.576 936.196 630.469C966.01 641.069 995.829 646.366 1025.64 646.366C1085.28 651.664 1144.91 662.26 1204.54 667.558C1346.17 688.753 1480.34 725.837 1621.98 778.824C1621.98 778.824 1614.52 778.824 1621.98 778.824Z" fill="#F4F5F6"/>
<path d="M-211.739 -42.4089C-211.739 -37.1106 -211.739 -31.8123 -211.739 -26.5141C-211.739 -26.5141 -211.739 -26.5141 -204.285 -26.5141C-137.198 -15.9175 -62.6567 -5.321 4.43037 -0.0227242C78.9713 5.27563 146.059 10.5738 220.6 21.1702C265.325 26.4688 317.503 31.767 362.228 42.3634C466.586 68.8548 541.127 116.539 585.85 201.311C600.762 227.803 615.669 259.592 630.576 286.084C652.936 333.768 675.302 381.453 682.756 429.137C690.209 471.523 697.663 508.612 712.57 550.998C720.023 577.487 727.482 609.278 742.389 635.771C757.296 662.26 779.656 688.753 809.476 699.348C824.383 704.646 839.29 709.944 854.202 709.944C891.47 715.242 928.742 715.242 958.556 715.242C1010.74 715.242 1062.92 709.944 1115.1 715.242C1234.36 720.544 1353.62 741.735 1472.89 773.526C1472.89 773.526 1472.89 773.526 1480.34 773.526C1495.26 773.526 1510.16 773.526 1517.62 773.526C1517.62 773.526 1517.62 773.526 1510.16 773.526C1495.26 768.228 1472.89 762.926 1457.98 757.628C1368.54 731.139 1271.63 715.242 1182.18 704.646C1122.55 699.349 1070.37 699.348 1010.74 694.051C973.463 694.051 936.196 694.051 891.469 688.753C861.656 683.455 839.29 678.157 816.929 662.26C787.116 646.367 772.203 625.171 757.296 593.385C742.389 566.892 734.936 535.101 727.482 508.612C720.023 471.523 705.116 429.137 697.663 392.048C682.756 344.365 660.396 296.68 645.483 248.996C630.576 217.206 615.669 190.715 600.762 164.224C556.035 95.3462 481.494 47.6616 384.591 26.4684C347.32 15.872 302.595 10.5738 257.871 5.27563C183.329 -0.022728 101.334 -5.32101 26.7927 -15.9175C-40.2944 -21.2158 -107.381 -26.5141 -167.014 -37.1106C-181.923 -37.1106 -196.831 -42.4089 -211.739 -42.4089Z" fill="#F4F5F6"/>
<path d="M570.938 -121.882C638.024 -105.987 682.75 -74.1979 712.564 -26.5134C727.477 5.27607 742.383 31.7675 749.837 68.8553C764.744 111.242 779.651 158.926 787.104 201.312C802.017 254.295 816.924 301.979 839.284 349.664C854.197 381.453 869.103 413.243 884.01 445.034C898.917 471.523 913.83 498.016 943.644 519.207C973.457 545.701 1010.73 561.594 1048 572.189C1092.72 588.087 1144.9 598.682 1189.63 609.278C1286.53 630.473 1383.44 651.664 1480.34 683.455C1539.97 699.349 1592.15 720.544 1651.78 736.437C1651.78 736.437 1651.78 736.437 1659.24 736.437C1659.24 731.14 1659.24 725.842 1659.24 720.544C1659.24 720.544 1659.24 720.544 1651.78 720.544C1607.06 704.646 1569.79 694.051 1525.06 678.158C1428.16 646.367 1323.8 619.874 1219.44 598.682C1167.27 588.087 1115.09 572.189 1062.91 556.296C1033.09 545.701 1003.28 535.105 980.917 519.207C943.644 498.016 921.283 466.225 898.917 434.435C884.01 407.946 869.103 376.155 854.196 349.664C831.83 301.979 816.924 259.593 802.017 211.909C787.11 164.224 779.651 116.54 764.744 63.5571C757.29 26.4693 742.383 -5.32037 727.477 -42.4083C720.017 -68.8996 705.11 -100.689 675.297 -121.882C638.024 -121.882 600.757 -121.882 570.938 -121.882Z" fill="#F4F5F6"/>
<path d="M712.57 778.824L705.116 773.526C690.209 768.228 682.756 757.632 675.302 747.037C660.39 725.842 652.936 704.65 652.936 683.455C645.483 646.367 645.483 614.58 638.029 577.491C630.576 535.105 630.576 487.421 623.123 445.034C615.669 397.35 593.303 349.665 570.943 301.98C556.035 275.489 541.127 248.998 526.219 222.506C481.494 164.225 421.861 121.839 347.32 100.646C295.141 84.7511 250.416 74.1547 198.237 63.5579C138.605 58.2597 71.5173 52.9615 11.8844 42.3651C-62.6567 37.0669 -137.198 26.4701 -204.285 21.1719C-204.285 21.1719 -204.285 21.1719 -211.739 21.1719C-211.739 26.4701 -211.739 31.7683 -211.739 37.0669C-211.739 37.0669 -211.739 37.0669 -204.285 37.0669C-152.106 42.3651 -107.381 47.6633 -55.2026 52.9615C26.7927 58.2597 101.334 68.8565 175.875 79.4529C228.054 84.7511 280.233 95.3479 324.957 111.242C399.499 137.734 459.131 174.822 496.402 227.804C533.673 280.787 563.489 333.77 585.85 392.052C600.762 439.736 608.216 487.421 615.669 535.105C615.669 582.789 623.123 630.473 623.123 672.86C623.123 704.65 630.576 741.735 638.029 773.526C667.849 778.824 690.209 778.824 712.57 778.824Z" fill="#F4F5F6"/>
<path d="M503.856 778.815C511.311 778.815 526.219 778.815 533.673 778.815C533.673 752.326 541.127 725.833 541.127 699.34C548.581 641.061 548.581 577.483 548.581 519.199C548.581 476.813 541.127 439.728 518.765 397.342C503.856 354.955 488.948 317.866 459.131 286.077C429.315 243.691 392.045 206.603 339.866 185.41C302.595 164.217 257.871 148.322 213.146 137.725C138.605 116.532 64.0633 111.234 -17.932 100.637C-62.6567 95.3393 -114.835 90.0411 -167.014 90.0411C-181.923 90.0411 -196.831 90.0411 -211.739 84.7429C-211.739 90.0411 -211.739 95.3393 -211.739 100.637C-204.285 100.637 -196.831 100.637 -196.831 100.637C-99.9274 105.936 -3.02376 116.532 86.4259 132.427C146.059 143.023 198.237 153.62 250.416 169.515C310.049 185.41 354.774 211.901 392.045 243.691C421.861 270.182 444.223 301.972 466.586 333.761C496.402 381.444 518.765 434.43 526.219 487.412C533.673 535.097 533.673 582.781 526.219 630.465C526.219 678.149 518.765 725.833 503.856 778.815Z" fill="#F4F5F6"/>
<path d="M846.72 -121.882C839.267 -121.882 824.36 -121.882 816.906 -121.882C816.906 -121.882 816.906 -121.882 816.906 -116.584C824.36 -90.0927 831.813 -58.3031 831.813 -31.8117C839.267 31.7675 854.173 90.0485 861.627 153.628C876.54 238.4 913.807 317.874 958.533 397.35C980.893 434.435 1018.17 471.523 1062.89 498.016C1092.71 513.91 1129.98 529.803 1159.79 540.403C1219.43 561.594 1271.61 577.491 1331.24 593.385C1435.6 625.175 1547.41 656.962 1651.77 688.753C1651.77 683.455 1651.77 678.157 1651.77 672.86H1644.31C1607.04 662.26 1562.31 646.367 1525.05 635.771C1435.59 609.278 1346.15 582.789 1256.7 556.296C1211.97 540.403 1159.79 524.505 1115.07 503.314C1055.43 476.821 1010.71 439.732 973.44 386.75C965.987 370.857 951.08 354.962 943.626 339.067C906.353 275.488 883.993 211.909 869.086 143.031C861.627 90.0485 854.173 31.7675 846.72 -21.2152C854.173 -58.3031 846.72 -90.0927 846.72 -121.882Z" fill="#F4F5F6"/>
<path d="M414.407 778.815C421.861 778.815 429.315 778.815 436.769 778.815C451.677 720.536 466.586 667.554 466.586 609.274C466.586 572.185 466.586 540.394 466.586 503.306C459.131 445.026 436.769 402.64 406.953 354.956C369.682 296.674 317.503 254.288 250.416 222.498C205.691 206.604 153.513 190.709 108.788 180.112C4.43036 158.919 -107.381 153.621 -211.739 153.621C-211.739 158.919 -211.739 164.217 -211.739 174.814C-144.652 174.814 -85.0193 174.814 -17.932 180.112C49.155 185.411 108.788 196.007 175.875 217.2C265.325 243.692 332.411 286.078 384.591 354.956C406.953 386.746 429.315 418.533 436.769 455.622C451.677 503.306 451.677 556.288 451.677 603.972C444.223 662.256 436.769 715.238 421.861 773.518C414.407 773.518 414.407 778.815 414.407 778.815Z" fill="#F4F5F6"/>
<path d="M943.638 -121.882C936.185 -121.882 928.731 -121.882 921.278 -121.882V-116.584C921.278 -95.3909 921.278 -74.1979 921.278 -53.0048C921.278 -0.0221024 921.278 58.2588 928.731 111.242C936.184 148.329 943.638 185.417 951.091 222.505C958.545 254.295 980.911 286.085 995.818 312.576C1040.54 381.453 1100.18 434.435 1174.72 476.821C1219.44 503.314 1271.62 519.207 1323.8 540.403C1420.7 577.491 1525.06 603.98 1629.42 635.771C1636.87 635.771 1644.32 641.069 1644.32 641.069C1644.32 635.771 1644.32 630.473 1644.32 625.175H1636.87C1577.24 603.98 1517.6 588.087 1457.97 566.891C1390.88 545.7 1323.8 524.505 1264.16 498.016C1219.44 476.821 1174.72 455.63 1129.99 423.839C1077.81 386.75 1040.54 344.366 1010.72 296.681C980.911 254.295 958.545 211.909 951.091 164.224C943.638 121.838 936.184 84.7502 936.184 42.3638C936.184 -10.6187 936.184 -58.3031 936.184 -111.286C943.638 -116.584 943.638 -116.584 943.638 -121.882Z" fill="#F4F5F6"/>
<path d="M-211.739 392.056C-211.739 402.652 -211.739 413.252 -211.739 423.847C-196.831 418.549 -189.377 413.252 -174.469 407.954C-122.289 386.759 -62.6567 376.163 -10.4779 381.461C131.151 397.354 228.054 498.024 228.054 598.69C228.054 635.779 228.054 667.566 220.6 704.654C213.146 731.147 213.146 752.339 205.691 778.832C213.146 778.832 220.6 778.832 228.054 778.832C235.508 762.934 235.508 747.041 242.962 731.148C250.416 688.761 257.871 646.375 257.871 603.988C257.871 513.918 205.691 445.038 123.696 397.354C34.2468 344.373 -62.6567 339.074 -167.014 376.163C-181.923 381.461 -196.831 386.759 -211.739 392.056Z" fill="#F4F5F6"/>
<path d="M-211.739 333.764C-211.739 344.361 -211.739 354.958 -211.739 365.554C-144.652 333.764 -70.1107 323.168 11.8845 333.764C86.4259 344.361 153.513 376.151 205.691 423.835C242.962 466.221 272.779 508.608 280.233 566.888C280.233 598.678 280.233 635.767 280.233 667.554C272.779 704.642 265.325 741.731 257.871 778.82C265.325 778.82 272.779 778.82 280.233 778.82C295.141 725.838 310.049 678.153 310.049 625.171C310.049 588.083 310.049 556.292 302.595 524.501C280.233 455.626 235.508 402.644 168.421 365.554C116.242 333.764 71.5173 317.87 19.3386 312.572C-62.6567 296.677 -137.198 301.975 -211.739 333.764Z" fill="#F4F5F6"/>
<path d="M332.411 778.828C339.865 778.828 347.32 778.828 354.774 778.828C362.228 757.637 362.228 741.739 369.682 720.548C384.591 667.566 392.045 614.584 392.045 561.598C392.045 524.513 384.591 482.127 369.682 445.038C324.957 365.564 257.871 301.985 153.513 264.897C101.334 249.002 49.1551 238.405 -3.02377 233.107C-62.6567 222.51 -129.744 222.51 -189.377 227.809C-196.831 227.809 -204.285 227.809 -211.739 227.809C-211.739 238.405 -211.739 249.002 -211.739 254.3C-204.285 254.3 -196.831 249.002 -181.923 249.002C-129.744 243.704 -77.5647 243.704 -25.3861 249.002C34.2468 254.3 93.8799 264.897 153.513 286.09C250.416 323.178 310.049 386.759 347.32 466.23C362.228 503.318 369.682 540.407 369.682 577.495C369.682 625.18 362.228 672.864 347.32 725.846C339.865 741.739 332.411 762.934 332.411 778.828Z" fill="#F4F5F6"/>
<path d="M168.408 778.82C175.862 778.82 183.316 778.82 190.77 778.82C190.77 762.926 198.224 752.331 198.224 736.433C205.679 699.344 213.133 662.26 205.679 625.171C205.679 588.083 198.224 556.292 175.862 519.203C123.683 434.431 26.7796 397.346 -85.032 407.942C-122.303 413.239 -152.119 423.835 -181.936 434.431C-196.844 439.732 -204.298 445.03 -219.206 450.328C-219.206 460.924 -219.206 471.519 -219.206 482.119C-204.298 476.817 -181.936 471.519 -167.027 460.924C-137.211 450.328 -107.395 439.732 -70.124 439.732C4.41727 434.431 64.05 450.328 116.229 498.012C160.954 535.101 183.316 582.785 183.316 635.767C183.316 667.558 183.316 704.642 175.862 736.433C175.862 752.331 175.862 768.224 168.408 778.82Z" fill="#F4F5F6"/>
<path d="M1651.78 582.789C1651.78 577.491 1651.78 572.189 1651.78 566.892C1651.78 566.892 1651.78 566.892 1644.33 566.892C1607.06 556.296 1577.24 545.701 1539.97 535.105C1465.43 513.91 1398.34 487.421 1331.26 455.63C1234.36 413.243 1159.81 354.962 1100.18 275.488C1070.36 238.4 1048 196.014 1033.09 153.628C1025.64 121.838 1018.18 84.7503 1018.18 47.6625C1018.18 -0.0220795 1018.18 -47.7065 1018.18 -90.0927C1018.18 -100.689 1018.18 -111.286 1018.18 -121.882C1010.73 -121.882 1003.28 -121.882 995.823 -121.882C995.823 -121.882 995.823 -121.882 995.823 -116.584C995.823 -95.3909 995.823 -74.1979 995.823 -47.7065C995.823 5.27607 995.823 52.9607 1003.28 105.943C1010.73 164.224 1033.09 222.505 1070.36 275.488C1107.64 323.172 1144.9 370.857 1197.08 407.946C1241.81 439.732 1293.98 466.225 1346.16 487.421C1420.7 519.207 1502.7 545.701 1584.7 572.189C1607.06 566.892 1629.42 577.491 1651.78 582.789Z" fill="#F4F5F6"/>
<path d="M-211.739 508.612C-211.739 519.207 -211.739 529.807 -211.739 540.403C-211.739 540.403 -204.285 540.403 -204.285 535.105C-174.469 524.509 -144.652 513.91 -107.381 508.612C-70.1107 503.314 -40.2944 503.314 -3.02377 508.612C56.6092 524.509 101.334 561.594 123.696 609.278C138.605 635.771 138.605 662.264 138.605 688.753C138.605 715.246 138.605 747.037 131.151 773.526C138.605 773.526 146.059 773.526 153.513 773.526C153.513 762.93 153.513 757.632 160.967 747.037C160.967 720.544 168.421 683.455 160.967 651.664C160.967 614.58 146.059 582.789 123.696 556.296C78.9713 503.314 19.3386 471.523 -55.2026 471.523C-85.0193 471.523 -122.289 476.825 -152.106 487.421C-167.014 492.718 -189.377 503.314 -211.739 508.612Z" fill="#F4F5F6"/>
<path d="M1651.78 524.517C1651.78 519.22 1651.78 513.918 1651.78 508.62H1644.33C1562.34 487.429 1480.34 460.936 1405.8 429.145C1301.44 381.461 1226.9 317.883 1167.27 233.111C1137.45 190.725 1115.09 143.041 1107.64 95.3561C1100.18 52.9701 1100.18 10.5837 1100.18 -31.8024C1100.18 -58.2938 1100.18 -90.0833 1107.64 -116.575C1100.18 -116.575 1092.72 -116.575 1092.72 -116.575V-111.277C1092.72 -90.0833 1092.72 -74.1886 1092.72 -52.9955C1092.72 -5.31108 1092.72 42.3733 1100.18 90.0579C1107.64 127.146 1115.09 164.233 1137.45 196.023C1197.08 296.69 1279.08 370.865 1390.89 429.145C1465.43 466.234 1539.98 492.727 1621.97 513.918C1614.52 513.918 1636.88 519.22 1651.78 524.517Z" fill="#F4F5F6"/>
<path d="M1651.77 455.63C1651.77 450.332 1651.77 439.732 1651.77 434.435H1644.32C1472.87 402.648 1338.7 323.172 1241.79 190.715C1219.43 164.224 1204.53 132.434 1189.62 100.645C1174.71 63.5571 1174.71 26.4693 1167.25 -15.9169C1167.25 -53.0048 1167.25 -84.7945 1167.25 -121.882C1159.8 -121.882 1152.35 -121.882 1152.35 -121.882C1152.35 -68.8996 1144.89 -10.6187 1152.35 42.3638C1159.8 74.1539 1167.25 111.242 1182.17 143.031C1219.43 217.207 1279.07 280.786 1346.15 333.769C1405.79 376.155 1472.87 407.946 1547.41 434.435C1584.69 439.732 1614.5 450.332 1651.77 455.63Z" fill="#F4F5F6"/>
<path d="M1651.78 365.558C1651.78 354.962 1651.78 344.365 1651.78 339.067C1644.33 339.067 1636.88 339.067 1629.42 339.067C1569.79 333.769 1525.06 312.576 1472.88 286.085C1405.8 248.996 1361.07 206.61 1316.35 148.329C1293.98 116.54 1271.62 79.4521 1256.72 37.0657C1249.26 5.27606 1241.8 -31.8117 1241.8 -63.6014C1241.8 -84.7945 1241.8 -100.689 1241.8 -121.882C1234.35 -121.882 1226.9 -121.882 1219.44 -121.882V-116.584C1219.44 -84.7945 1219.44 -47.7065 1219.44 -15.9169C1219.44 21.1711 1226.9 52.9607 1249.26 84.7503C1286.53 153.628 1338.71 217.207 1405.8 264.891C1457.98 301.979 1517.61 333.769 1584.7 349.664C1607.06 360.26 1629.42 365.558 1651.78 365.558Z" fill="#F4F5F6"/>
<path d="M78.9713 778.82C86.4259 778.82 93.8799 778.82 101.334 778.82V773.522C101.334 747.029 101.334 720.54 101.334 699.345C101.334 667.558 93.8799 641.065 71.5173 614.576C41.7009 577.487 4.43034 556.292 -47.7485 545.696C-77.5647 540.399 -107.381 545.696 -137.198 550.994C-152.106 550.994 -181.923 556.292 -211.739 566.887C-211.739 577.487 -211.739 588.083 -211.739 598.678H-204.285C-174.469 593.381 -137.198 582.785 -107.381 582.785C-77.5647 582.785 -47.7485 582.785 -17.932 593.381C26.7927 614.576 56.6092 646.363 71.5173 688.749C78.9713 715.242 78.9713 741.731 78.9713 768.224C78.9713 768.224 78.9713 773.522 78.9713 778.82Z" fill="#F4F5F6"/>
<path d="M1323.79 -121.882C1316.34 -121.882 1308.89 -121.882 1301.43 -121.882C1301.43 -105.987 1301.43 -90.0927 1301.43 -74.1979C1301.43 -42.4083 1308.89 -15.9169 1323.79 15.8729C1353.61 84.7502 1405.79 143.031 1472.87 190.715C1510.15 217.207 1554.87 233.102 1599.59 243.698C1614.5 248.996 1636.87 248.996 1651.77 248.996C1651.77 238.4 1651.77 227.804 1651.77 217.207C1644.32 217.207 1644.32 217.207 1636.87 217.207C1592.14 211.909 1554.87 201.312 1517.6 180.119C1435.61 137.733 1383.43 74.1539 1346.15 -0.0221024C1331.25 -37.11 1323.79 -79.4962 1323.79 -121.882Z" fill="#F4F5F6"/>
<path d="M56.6092 778.828C56.6092 752.335 56.6092 725.842 41.701 699.353C26.7927 667.562 4.43036 646.371 -25.3861 630.473C-47.7484 619.878 -77.5647 614.58 -99.9274 609.282C-137.198 609.282 -167.014 614.58 -204.285 619.878H-211.739C-211.739 630.473 -211.739 641.073 -211.739 651.668C-181.923 646.371 -159.56 646.371 -129.744 646.371C-99.9274 646.371 -70.1107 651.668 -47.7484 667.562C-3.02376 694.055 19.3386 731.143 26.7927 778.828C34.2468 778.828 49.155 778.828 56.6092 778.828Z" fill="#F4F5F6"/>
<path d="M1651.79 79.4521C1644.34 79.4521 1636.88 74.1539 1629.42 74.1539C1577.25 63.5571 1532.52 31.7675 1495.25 -5.32037C1457.98 -42.4083 1435.62 -79.4962 1420.71 -121.882C1413.26 -121.882 1398.35 -121.882 1390.9 -121.882C1398.35 -79.4962 1413.26 -42.4083 1443.07 -10.6187C1472.89 31.7675 1517.62 68.8552 1569.79 90.0484C1599.61 100.645 1629.42 111.242 1659.24 116.54C1651.79 105.943 1651.79 90.0485 1651.79 79.4521Z" fill="#F4F5F6"/>
<path d="M-74.8714 271.153C141.447 271.153 316.809 146.509 316.809 -7.24701C316.809 -161.003 141.447 -285.647 -74.8714 -285.647C-291.19 -285.647 -466.551 -161.003 -466.551 -7.24701C-466.551 146.509 -291.19 271.153 -74.8714 271.153Z" fill="url(#paint0_radial_1_29)"/>
<path d="M-143.997 582.306C212.293 582.306 501.123 377.01 501.123 123.767C501.123 -129.479 212.293 -334.774 -143.997 -334.774C-500.287 -334.774 -789.12 -129.479 -789.12 123.767C-789.12 377.01 -500.287 582.306 -143.997 582.306Z" fill="url(#paint1_radial_1_29)"/>
<path d="M-143.997 582.306C212.293 582.306 501.123 377.01 501.123 123.767C501.123 -129.479 212.293 -334.774 -143.997 -334.774C-500.287 -334.774 -789.12 -129.479 -789.12 123.767C-789.12 377.01 -500.287 582.306 -143.997 582.306Z" fill="url(#paint2_radial_1_29)"/>
<path d="M97.9286 627.341C314.247 627.341 489.609 502.696 489.609 348.939C489.609 195.183 314.247 70.5392 97.9286 70.5392C-118.39 70.5392 -293.751 195.183 -293.751 348.939C-293.751 502.696 -118.39 627.341 97.9286 627.341Z" fill="url(#paint3_radial_1_29)"/>
<path d="M362.88 954.871C579.197 954.871 754.56 830.225 754.56 676.471C754.56 522.712 579.197 398.071 362.88 398.071C146.561 398.071 -28.8 522.712 -28.8 676.471C-28.8 830.225 146.561 954.871 362.88 954.871Z" fill="url(#paint4_radial_1_29)"/>
<path d="M748.8 864.8C965.117 864.8 1140.48 740.155 1140.48 586.4C1140.48 432.645 965.117 308 748.8 308C532.479 308 357.117 432.645 357.117 586.4C357.117 740.155 532.479 864.8 748.8 864.8Z" fill="url(#paint5_radial_1_29)"/>
<path d="M1215.36 856.612C1431.68 856.612 1607.04 731.971 1607.04 578.212C1607.04 424.457 1431.68 299.814 1215.36 299.814C999.043 299.814 823.68 424.457 823.68 578.212C823.68 731.971 999.043 856.612 1215.36 856.612Z" fill="url(#paint6_radial_1_29)"/>
<path d="M1399.68 668.282C1616 668.282 1791.36 543.637 1791.36 389.882C1791.36 236.125 1616 111.48 1399.68 111.48C1183.36 111.48 1008 236.125 1008 389.882C1008 543.637 1183.36 668.282 1399.68 668.282Z" fill="url(#paint7_radial_1_29)"/>
<path d="M1278.73 754.259C1495.05 754.259 1670.41 629.617 1670.41 475.859C1670.41 322.105 1495.05 197.461 1278.73 197.461C1062.41 197.461 887.046 322.105 887.046 475.859C887.046 629.617 1062.41 754.259 1278.73 754.259Z" fill="url(#paint8_radial_1_29)"/>
<path d="M1509.13 357.134C1725.45 357.134 1900.81 232.489 1900.81 78.7336C1900.81 -75.0226 1725.45 -199.666 1509.13 -199.666C1292.81 -199.666 1117.45 -75.0226 1117.45 78.7336C1117.45 232.489 1292.81 357.134 1509.13 357.134Z" fill="url(#paint9_radial_1_29)"/>
<path d="M1422.73 414.447C1639.05 414.447 1814.41 289.803 1814.41 136.047C1814.41 -17.709 1639.05 -142.353 1422.73 -142.353C1206.41 -142.353 1031.05 -17.709 1031.05 136.047C1031.05 289.803 1206.41 414.447 1422.73 414.447Z" fill="url(#paint10_radial_1_29)"/>
<path d="M1376.65 746.075C1592.96 746.075 1768.33 621.429 1768.33 467.675C1768.33 313.918 1592.96 189.275 1376.65 189.275C1160.33 189.275 984.966 313.918 984.966 467.675C984.966 621.429 1160.33 746.075 1376.65 746.075Z" fill="url(#paint11_radial_1_29)"/>
<path d="M1249.93 852.518C1466.25 852.518 1641.61 727.872 1641.61 574.118C1641.61 420.359 1466.25 295.716 1249.93 295.716C1033.61 295.716 858.246 420.359 858.246 574.118C858.246 727.872 1033.61 852.518 1249.93 852.518Z" fill="url(#paint12_radial_1_29)"/>
<path d="M869.76 926.212C1086.08 926.212 1261.44 801.566 1261.44 647.812C1261.44 494.057 1086.08 369.412 869.76 369.412C653.443 369.412 478.083 494.057 478.083 647.812C478.083 801.566 653.443 926.212 869.76 926.212Z" fill="url(#paint13_radial_1_29)"/>
<path d="M1111.68 864.8C1328 864.8 1503.36 740.155 1503.36 586.4C1503.36 432.645 1328 308 1111.68 308C895.363 308 720 432.645 720 586.4C720 740.155 895.363 864.8 1111.68 864.8Z" fill="url(#paint14_radial_1_29)"/>
<path d="M1261.45 741.977C1477.76 741.977 1653.13 617.331 1653.13 463.577C1653.13 309.82 1477.76 185.177 1261.45 185.177C1045.13 185.177 869.766 309.82 869.766 463.577C869.766 617.331 1045.13 741.977 1261.45 741.977Z" fill="url(#paint15_radial_1_29)"/>
<path d="M1353.61 721.506C1541.3 721.506 1693.45 613.36 1693.45 479.953C1693.45 346.549 1541.3 238.402 1353.61 238.402C1165.92 238.402 1013.77 346.549 1013.77 479.953C1013.77 613.36 1165.92 721.506 1353.61 721.506Z" fill="url(#paint16_radial_1_29)"/>
<path d="M1411.2 877.082C1627.52 877.082 1802.87 752.441 1802.87 598.682C1802.87 444.928 1627.52 320.284 1411.2 320.284C1194.88 320.284 1019.52 444.928 1019.52 598.682C1019.52 752.441 1194.88 877.082 1411.2 877.082Z" fill="url(#paint17_radial_1_29)"/>
<path d="M1491.85 954.871C1708.16 954.871 1883.53 830.225 1883.53 676.471C1883.53 522.712 1708.16 398.071 1491.85 398.071C1275.53 398.071 1100.17 522.712 1100.17 676.471C1100.17 830.225 1275.53 954.871 1491.85 954.871Z" fill="url(#paint18_radial_1_29)"/>
<path d="M1532.16 999.906C1748.48 999.906 1923.85 875.265 1923.85 721.506C1923.85 567.751 1748.48 443.106 1532.16 443.106C1315.84 443.106 1140.48 567.751 1140.48 721.506C1140.48 875.265 1315.84 999.906 1532.16 999.906Z" fill="url(#paint19_radial_1_29)"/>
<path d="M1480.33 881.181C1696.65 881.181 1872.01 756.539 1872.01 602.781C1872.01 449.026 1696.65 324.383 1480.33 324.383C1264.01 324.383 1088.65 449.026 1088.65 602.781C1088.65 756.539 1264.01 881.181 1480.33 881.181Z" fill="url(#paint20_radial_1_29)"/>
<path d="M414.729 934.4C631.048 934.4 806.406 809.755 806.406 656C806.406 502.241 631.048 377.6 414.729 377.6C198.41 377.6 23.0484 502.241 23.0484 656C23.0484 809.755 198.41 934.4 414.729 934.4Z" fill="url(#paint21_radial_1_29)"/>
<path d="M143.997 918.024C360.316 918.024 535.677 793.382 535.677 639.624C535.677 485.869 360.316 361.226 143.997 361.226C-72.3214 361.226 -247.683 485.869 -247.683 639.624C-247.683 793.382 -72.3214 918.024 143.997 918.024Z" fill="url(#paint22_radial_1_29)"/>
<path d="M74.88 680.565C291.199 680.565 466.56 555.919 466.56 402.165C466.56 248.409 291.199 123.765 74.88 123.765C-141.439 123.765 -316.8 248.409 -316.8 402.165C-316.8 555.919 -141.439 680.565 74.88 680.565Z" fill="url(#paint23_radial_1_29)"/>
<path d="M69.1286 226.124C285.447 226.124 460.809 101.48 460.809 -52.2763C460.809 -206.032 285.447 -330.676 69.1286 -330.676C-147.19 -330.676 -322.551 -206.032 -322.551 -52.2763C-322.551 101.48 -147.19 226.124 69.1286 226.124Z" fill="url(#paint24_radial_1_29)"/>
<path d="M-149.754 934.4C66.5643 934.4 241.926 809.755 241.926 656C241.926 502.241 66.5643 377.6 -149.754 377.6C-366.073 377.6 -541.434 502.241 -541.434 656C-541.434 809.755 -366.073 934.4 -149.754 934.4Z" fill="url(#paint25_radial_1_29)"/>
<defs>
<radialGradient id="paint0_radial_1_29" cx="0" cy="0" r="1" gradientUnits="userSpaceOnUse" gradientTransform="translate(-77.6304 -6.16206) scale(390.43 277.512)">
<stop stop-color="white"/>
<stop offset="0.9832" stop-color="white" stop-opacity="0"/>
</radialGradient>
<radialGradient id="paint1_radial_1_29" cx="0" cy="0" r="1" gradientUnits="userSpaceOnUse" gradientTransform="translate(-143.94 123.804) scale(640.552 455.295)">
<stop stop-color="white"/>
<stop offset="0.9832" stop-color="white" stop-opacity="0"/>
</radialGradient>
<radialGradient id="paint2_radial_1_29" cx="0" cy="0" r="1" gradientUnits="userSpaceOnUse" gradientTransform="translate(-143.94 123.804) scale(640.552 455.295)">
<stop stop-color="white"/>
<stop offset="0.9832" stop-color="white" stop-opacity="0"/>
</radialGradient>
<radialGradient id="paint3_radial_1_29" cx="0" cy="0" r="1" gradientUnits="userSpaceOnUse" gradientTransform="translate(99.1901 348.026) scale(390.43 277.512)">
<stop stop-color="white"/>
<stop offset="0.9832" stop-color="white" stop-opacity="0"/>
</radialGradient>
<radialGradient id="paint4_radial_1_29" cx="0" cy="0" r="1" gradientUnits="userSpaceOnUse" gradientTransform="translate(362.396 676.507) scale(390.43 277.512)">
<stop stop-color="white"/>
<stop offset="0.9832" stop-color="white" stop-opacity="0"/>
</radialGradient>
<radialGradient id="paint5_radial_1_29" cx="0" cy="0" r="1" gradientUnits="userSpaceOnUse" gradientTransform="translate(748.184 586.998) scale(390.43 277.512)">
<stop stop-color="white"/>
<stop offset="0.9832" stop-color="white" stop-opacity="0"/>
</radialGradient>
<radialGradient id="paint6_radial_1_29" cx="0" cy="0" r="1" gradientUnits="userSpaceOnUse" gradientTransform="translate(1216.35 577) scale(390.43 277.512)">
<stop stop-color="white"/>
<stop offset="0.9832" stop-color="white" stop-opacity="0"/>
</radialGradient>
<radialGradient id="paint7_radial_1_29" cx="0" cy="0" r="1" gradientUnits="userSpaceOnUse" gradientTransform="translate(1399.09 390.03) scale(390.43 277.512)">
<stop stop-color="white"/>
<stop offset="0.9832" stop-color="white" stop-opacity="0"/>
</radialGradient>
<radialGradient id="paint8_radial_1_29" cx="0" cy="0" r="1" gradientUnits="userSpaceOnUse" gradientTransform="translate(1280.55 474.291) scale(390.43 277.512)">
<stop stop-color="white"/>
<stop offset="0.9832" stop-color="white" stop-opacity="0"/>
</radialGradient>
<radialGradient id="paint9_radial_1_29" cx="0" cy="0" r="1" gradientUnits="userSpaceOnUse" gradientTransform="translate(1507.61 80.1174) scale(390.43 277.512)">
<stop stop-color="white"/>
<stop offset="0.9832" stop-color="white" stop-opacity="0"/>
</radialGradient>
<radialGradient id="paint10_radial_1_29" cx="0" cy="0" r="1" gradientUnits="userSpaceOnUse" gradientTransform="translate(1423.22 134.385) scale(390.43 277.512)">
<stop stop-color="white"/>
<stop offset="0.9832" stop-color="white" stop-opacity="0"/>
</radialGradient>
<radialGradient id="paint11_radial_1_29" cx="0" cy="0" r="1" gradientUnits="userSpaceOnUse" gradientTransform="translate(1379.01 468.584) scale(390.43 277.512)">
<stop stop-color="white"/>
<stop offset="0.9832" stop-color="white" stop-opacity="0"/>
</radialGradient>
<radialGradient id="paint12_radial_1_29" cx="0" cy="0" r="1" gradientUnits="userSpaceOnUse" gradientTransform="translate(1250.42 575.694) scale(390.43 277.512)">
<stop stop-color="white"/>
<stop offset="0.9832" stop-color="white" stop-opacity="0"/>
</radialGradient>
<radialGradient id="paint13_radial_1_29" cx="0" cy="0" r="1" gradientUnits="userSpaceOnUse" gradientTransform="translate(868.643 648.528) scale(390.43 277.512)">
<stop stop-color="white"/>
<stop offset="0.9832" stop-color="white" stop-opacity="0"/>
</radialGradient>
<radialGradient id="paint14_radial_1_29" cx="0" cy="0" r="1" gradientUnits="userSpaceOnUse" gradientTransform="translate(1112.52 586.998) scale(390.43 277.512)">
<stop stop-color="white"/>
<stop offset="0.9832" stop-color="white" stop-opacity="0"/>
</radialGradient>
<radialGradient id="paint15_radial_1_29" cx="0" cy="0" r="1" gradientUnits="userSpaceOnUse" gradientTransform="translate(1263.22 465.603) scale(390.43 277.512)">
<stop stop-color="white"/>
<stop offset="0.9832" stop-color="white" stop-opacity="0"/>
</radialGradient>
<radialGradient id="paint16_radial_1_29" cx="0" cy="0" r="1" gradientUnits="userSpaceOnUse" gradientTransform="translate(1355.65 478.455) scale(339.414 241.25)">
<stop stop-color="white"/>
<stop offset="0.9832" stop-color="white" stop-opacity="0"/>
</radialGradient>
<radialGradient id="paint17_radial_1_29" cx="0" cy="0" r="1" gradientUnits="userSpaceOnUse" gradientTransform="translate(1412.81 597.368) scale(390.43 277.512)">
<stop stop-color="white"/>
<stop offset="0.9832" stop-color="white" stop-opacity="0"/>
</radialGradient>
<radialGradient id="paint18_radial_1_29" cx="0" cy="0" r="1" gradientUnits="userSpaceOnUse" gradientTransform="translate(1491.18 677.343) scale(390.43 277.512)">
<stop stop-color="white"/>
<stop offset="0.9832" stop-color="white" stop-opacity="0"/>
</radialGradient>
<radialGradient id="paint19_radial_1_29" cx="0" cy="0" r="1" gradientUnits="userSpaceOnUse" gradientTransform="translate(1529.35 721.616) scale(390.43 277.512)">
<stop stop-color="white"/>
<stop offset="0.9832" stop-color="white" stop-opacity="0"/>
</radialGradient>
<radialGradient id="paint20_radial_1_29" cx="0" cy="0" r="1" gradientUnits="userSpaceOnUse" gradientTransform="translate(1483.14 603.084) scale(390.43 277.512)">
<stop stop-color="white"/>
<stop offset="0.9832" stop-color="white" stop-opacity="0"/>
</radialGradient>
<radialGradient id="paint21_radial_1_29" cx="0" cy="0" r="1" gradientUnits="userSpaceOnUse" gradientTransform="translate(416.555 656) scale(390.43 277.512)">
<stop stop-color="white"/>
<stop offset="0.9832" stop-color="white" stop-opacity="0"/>
</radialGradient>
<radialGradient id="paint22_radial_1_29" cx="0" cy="0" r="1" gradientUnits="userSpaceOnUse" gradientTransform="translate(143.381 639.374) scale(390.43 277.512)">
<stop stop-color="white"/>
<stop offset="0.9832" stop-color="white" stop-opacity="0"/>
</radialGradient>
<radialGradient id="paint23_radial_1_29" cx="0" cy="0" r="1" gradientUnits="userSpaceOnUse" gradientTransform="translate(73.0599 402.3) scale(390.43 277.512)">
<stop stop-color="white"/>
<stop offset="0.9832" stop-color="white" stop-opacity="0"/>
</radialGradient>
<radialGradient id="paint24_radial_1_29" cx="0" cy="0" r="1" gradientUnits="userSpaceOnUse" gradientTransform="translate(69.048 -50.4298) scale(390.43 277.512)">
<stop stop-color="white"/>
<stop offset="0.9832" stop-color="white" stop-opacity="0"/>
</radialGradient>
<radialGradient id="paint25_radial_1_29" cx="0" cy="0" r="1" gradientUnits="userSpaceOnUse" gradientTransform="translate(-148.049 656) scale(390.43 277.512)">
<stop stop-color="white"/>
<stop offset="0.9832" stop-color="white" stop-opacity="0"/>
</radialGradient>
</defs>
</svg>
