<svg width="173" height="56" viewBox="0 0 173 56" fill="none" xmlns="http://www.w3.org/2000/svg">
<path d="M51.2581 17.5006H43.9609C43.4615 17.5006 43.0369 17.9238 42.959 18.4989L40.0077 40.3295C39.949 40.7602 40.2349 41.1486 40.6094 41.1486H44.0932C44.5925 41.1486 45.0172 40.7254 45.0951 40.149L45.8911 34.2609C45.9679 33.6846 46.3936 33.2613 46.8919 33.2613H49.202C54.0088 33.2613 56.783 30.5476 57.5075 25.17C57.834 22.8172 57.5213 20.9686 56.577 19.6741C55.5399 18.2525 53.7004 17.5006 51.2581 17.5006ZM52.0999 25.4737C51.7009 28.5285 49.7003 28.5285 47.7658 28.5285H46.6646L47.4372 22.8235C47.483 22.4786 47.7391 22.2246 48.0379 22.2246H48.5426C49.8603 22.2246 51.1034 22.2246 51.7457 23.101C52.1287 23.6238 52.2461 24.4007 52.0999 25.4737Z" fill="#8979E8"/>
<path d="M73.0708 25.3762H69.5764C69.2787 25.3762 69.0216 25.6301 68.9757 25.9749L68.821 27.1152L68.5766 26.702C67.8201 25.421 66.1332 24.9928 64.4495 24.9928C60.588 24.9928 57.29 28.4048 56.6476 33.1912C56.3137 35.5788 56.7885 37.8618 57.9494 39.454C59.0142 40.9179 60.5379 41.5278 62.3507 41.5278C65.4621 41.5278 67.1874 39.1938 67.1874 39.1938L67.0316 40.3265C66.9729 40.7598 67.2589 41.1482 67.6313 41.1482H70.7789C71.2793 41.1482 71.7019 40.725 71.7808 40.1486L73.6694 26.1953C73.7292 25.7658 73.4443 25.3762 73.0708 25.3762ZM68.2 33.3107C67.8628 35.6398 66.2783 37.2033 64.2574 37.2033C63.2427 37.2033 62.4318 36.8236 61.9111 36.1041C61.3947 35.3896 61.1984 34.3726 61.3627 33.2397C61.6774 30.9305 63.2886 29.316 65.2786 29.316C66.2709 29.316 67.0775 29.7006 67.6089 30.4264C68.1413 31.1597 68.3526 32.1828 68.2 33.3107Z" fill="#8979E8"/>
<path d="M91.6817 25.3767H88.1702C87.8351 25.3767 87.5204 25.5709 87.3304 25.8958L82.4873 34.2187L80.4344 26.2207C80.3053 25.7203 79.9095 25.3767 79.4613 25.3767H76.0107C75.5913 25.3767 75.3001 25.8547 75.4334 26.3153L79.3013 39.5578L75.665 45.5467C75.379 46.0185 75.6671 46.667 76.1611 46.667H79.6683C80.0012 46.667 80.3128 46.4778 80.5017 46.1592L92.181 26.4908C92.4606 26.0203 92.1735 25.3767 91.6817 25.3767Z" fill="#8979E8"/>
<path d="M103.307 17.5006H96.0088C95.5105 17.5006 95.0858 17.9238 95.0079 18.4989L92.0566 40.3295C91.9979 40.7602 92.2839 41.1486 92.6563 41.1486H96.4014C96.7493 41.1486 97.047 40.8524 97.1014 40.449L97.939 34.2609C98.0158 33.6846 98.4415 33.2613 98.9398 33.2613H101.249C106.057 33.2613 108.83 30.5476 109.555 25.17C109.883 22.8172 109.568 20.9686 108.624 19.6741C107.588 18.2525 105.749 17.5006 103.307 17.5006ZM104.149 25.4737C103.751 28.5285 101.75 28.5285 99.8148 28.5285H98.7147L99.4883 22.8235C99.5341 22.4786 99.7881 22.2246 100.088 22.2246H100.593C101.909 22.2246 103.153 22.2246 103.796 23.101C104.179 23.6238 104.295 24.4007 104.149 25.4737Z" fill="#8979E8"/>
<path d="M125.119 25.3762H121.627C121.327 25.3762 121.072 25.6301 121.027 25.9749L120.872 27.1152L120.627 26.702C119.87 25.421 118.185 24.9928 116.501 24.9928C112.639 24.9928 109.342 28.4048 108.7 33.1912C108.367 35.5788 108.84 37.8618 110.001 39.454C111.068 40.9179 112.589 41.5278 114.402 41.5278C117.513 41.5278 119.239 39.1938 119.239 39.1938L119.083 40.3265C119.024 40.7598 119.31 41.1482 119.685 41.1482H122.831C123.33 41.1482 123.754 40.725 123.832 40.1486L125.722 26.1953C125.779 25.7658 125.493 25.3762 125.119 25.3762ZM120.248 33.3107C119.913 35.6398 118.326 37.2033 116.306 37.2033C115.293 37.2033 114.48 36.8236 113.959 36.1041C113.443 35.3896 113.249 34.3726 113.411 33.2397C113.728 30.9305 115.337 29.316 117.327 29.316C118.319 29.316 119.126 29.7006 119.657 30.4264C120.192 31.1597 120.403 32.1828 120.248 33.3107Z" fill="#8979E8"/>
<path d="M129.239 18.1L126.244 40.3302C126.185 40.7609 126.471 41.1493 126.843 41.1493H129.854C130.355 41.1493 130.779 40.726 130.856 40.1497L133.81 18.3204C133.868 17.8897 133.582 17.5 133.21 17.5H129.838C129.541 17.5013 129.284 17.7552 129.239 18.1Z" fill="#8979E8"/>
</svg>
