<svg width="48" height="48" viewBox="0 0 48 48" fill="none" xmlns="http://www.w3.org/2000/svg">
<path opacity="0.2" d="M12 7.5V40.5C12 42.1567 13.3432 43.5 15 43.5H33C34.6567 43.5 36 42.1567 36 40.5V7.5C36 5.84315 34.6567 4.5 33 4.5H15C13.3432 4.5 12 5.84315 12 7.5Z" fill="#624CE0"/>
<path fill-rule="evenodd" clip-rule="evenodd" d="M12.75 40.5C12.75 41.7427 13.7573 42.75 15 42.75H33C34.2428 42.75 35.25 41.7427 35.25 40.5V7.5C35.25 6.25735 34.2428 5.25 33 5.25H15C13.7574 5.25 12.75 6.25735 12.75 7.5V40.5ZM15 44.25C12.9289 44.25 11.25 42.571 11.25 40.5V7.5C11.25 5.42893 12.9289 3.75 15 3.75H33C35.071 3.75 36.75 5.42893 36.75 7.5V40.5C36.75 42.571 35.071 44.25 33 44.25H15Z" fill="#624CE0"/>
<path d="M24 34.5C22.7573 34.5 21.75 35.5072 21.75 36.75C21.75 37.9928 22.7573 39 24 39C25.2428 39 26.25 37.9928 26.25 36.75C26.25 35.5072 25.2428 34.5 24 34.5Z" fill="#624CE0"/>
</svg>
