<svg width="240" height="315" viewBox="0 0 240 315" fill="none" xmlns="http://www.w3.org/2000/svg">
<path d="M0 0H240V315H0V0Z" fill="white"/>
<g filter="url(#filter0_i_1_94)">
<path d="M0 0H240V40.976H0V0Z" fill="#F6F6F6"/>
</g>
<path d="M31.595 16.286H30.3L32.595 22.805H34.053L36.351 16.286H35.052L33.359 21.417H33.292L31.595 16.286ZM37.337 22.805H38.489V17.916H37.337V22.805ZM37.916 17.222C38.282 17.222 38.581 16.942 38.581 16.598C38.581 16.254 38.282 15.971 37.916 15.971C37.55 15.971 37.248 16.251 37.248 16.598C37.248 16.945 37.547 17.222 37.916 17.222ZM43.717 19.208C43.558 18.381 42.896 17.852 41.75 17.852C40.572 17.852 39.77 18.431 39.773 19.335C39.77 20.048 40.209 20.519 41.148 20.713L41.982 20.888C42.431 20.987 42.641 21.168 42.641 21.445C42.641 21.779 42.278 22.031 41.731 22.031C41.203 22.031 40.859 21.802 40.76 21.363L39.636 21.471C39.779 22.369 40.534 22.9 41.734 22.9C42.956 22.9 43.819 22.266 43.822 21.34C43.819 20.643 43.37 20.216 42.447 20.016L41.613 19.838C41.117 19.727 40.919 19.555 40.922 19.271C40.919 18.94 41.285 18.711 41.766 18.711C42.298 18.711 42.578 19.001 42.667 19.322L43.717 19.207V19.208ZM44.951 22.805H46.103V17.916H44.951V22.805ZM45.53 17.222C45.896 17.222 46.195 16.942 46.195 16.598C46.195 16.254 45.896 15.971 45.53 15.971C45.164 15.971 44.862 16.251 44.862 16.598C44.862 16.945 45.161 17.222 45.53 17.222ZM49.909 17.916H48.944V16.745H47.792V17.916H47.1V18.807H47.794V21.525C47.788 22.445 48.456 22.897 49.322 22.871C49.65 22.862 49.876 22.798 50 22.756L49.806 21.855C49.742 21.871 49.612 21.9 49.469 21.9C49.179 21.9 48.947 21.798 48.947 21.333V18.806H49.912V17.915L49.909 17.916ZM57.319 19.208C57.16 18.381 56.498 17.852 55.352 17.852C54.174 17.852 53.372 18.431 53.375 19.335C53.372 20.048 53.811 20.519 54.75 20.713L55.584 20.888C56.033 20.987 56.243 21.168 56.243 21.445C56.243 21.779 55.88 22.031 55.333 22.031C54.805 22.031 54.461 21.802 54.362 21.363L53.238 21.471C53.381 22.369 54.136 22.9 55.336 22.9C56.558 22.9 57.421 22.266 57.424 21.34C57.421 20.643 56.972 20.216 56.049 20.016L55.215 19.838C54.719 19.727 54.521 19.555 54.524 19.271C54.521 18.94 54.887 18.711 55.367 18.711C55.899 18.711 56.179 19.001 56.268 19.322L57.318 19.207L57.319 19.208ZM60.995 17.916H60.031V16.745H58.879V17.916H58.185V18.807H58.879V21.525C58.873 22.445 59.541 22.897 60.407 22.871C60.735 22.862 60.961 22.798 61.085 22.756L60.891 21.855C60.7808 21.8833 60.6677 21.8984 60.554 21.9C60.264 21.9 60.032 21.798 60.032 21.333V18.806H60.996V17.915L60.995 17.916ZM64.218 22.901C65.65 22.901 66.561 21.892 66.561 20.38C66.561 18.868 65.651 17.853 64.218 17.853C62.785 17.853 61.875 18.865 61.875 20.38C61.875 21.895 62.785 22.901 64.218 22.901ZM64.224 21.978C63.432 21.978 63.043 21.271 63.043 20.377C63.043 19.483 63.431 18.766 64.224 18.766C65.004 18.766 65.392 19.482 65.392 20.377C65.392 21.272 65.004 21.978 64.224 21.978ZM67.718 22.806H68.87V19.932C68.87 19.311 69.338 18.872 69.971 18.872C70.165 18.872 70.407 18.907 70.506 18.939V17.879C70.401 17.86 70.219 17.847 70.092 17.847C69.8213 17.8397 69.5558 17.9227 69.3374 18.083C69.1191 18.2432 68.9603 18.4715 68.886 18.732H68.835V17.917H67.718V22.806ZM73.414 22.902C74.553 22.902 75.336 22.345 75.54 21.495L74.464 21.374C74.308 21.788 73.926 22.004 73.43 22.004C72.685 22.004 72.192 21.514 72.182 20.677H75.588V20.324C75.588 18.608 74.557 17.854 73.354 17.854C71.954 17.854 71.04 18.882 71.04 20.391C71.04 21.925 71.941 22.902 73.414 22.902ZM72.185 19.9C72.22 19.276 72.682 18.751 73.369 18.751C74.031 18.751 74.477 19.235 74.483 19.9H72.185Z" fill="#060606"/>
<path d="M216.721 20.488C216.721 20.2971 216.797 20.1139 216.932 19.9789C217.067 19.8439 217.25 19.768 217.441 19.768H228.001C228.192 19.768 228.375 19.8439 228.51 19.979C228.646 20.1142 228.721 20.2974 228.721 20.4885C228.721 20.6796 228.646 20.8629 228.51 20.998C228.375 21.1331 228.192 21.209 228.001 21.209H217.441C217.25 21.209 217.067 21.1331 216.932 20.9981C216.797 20.8631 216.721 20.68 216.721 20.489V20.488Z" fill="#060606"/>
<path fill-rule="evenodd" clip-rule="evenodd" d="M216.721 16.646C216.721 16.455 216.797 16.2719 216.932 16.1369C217.067 16.0019 217.25 15.926 217.441 15.926H228.001C228.192 15.926 228.375 16.0019 228.51 16.1369C228.645 16.2719 228.721 16.455 228.721 16.646C228.721 16.837 228.645 17.0201 228.51 17.1551C228.375 17.2901 228.192 17.366 228.001 17.366H217.441C217.25 17.366 217.067 17.2901 216.932 17.1551C216.797 17.0201 216.721 16.837 216.721 16.646ZM216.721 24.329C216.721 24.138 216.797 23.9549 216.932 23.8199C217.067 23.6849 217.25 23.609 217.441 23.609H228.001C228.192 23.609 228.375 23.6849 228.51 23.82C228.646 23.9552 228.721 24.1384 228.721 24.3295C228.721 24.5206 228.646 24.7039 228.51 24.839C228.375 24.9741 228.192 25.05 228.001 25.05H217.441C217.25 25.05 217.067 24.9741 216.932 24.8391C216.797 24.7041 216.721 24.521 216.721 24.33V24.329Z" fill="#060606"/>
<path fill-rule="evenodd" clip-rule="evenodd" d="M12.481 20.463C12.6719 20.463 12.8551 20.5389 12.9901 20.6739C13.1251 20.8089 13.201 20.992 13.201 21.183V25.049H21.361V21.183C21.361 20.992 21.4368 20.8089 21.5719 20.6739C21.7069 20.5389 21.89 20.463 22.081 20.463C22.2719 20.463 22.4551 20.5389 22.5901 20.6739C22.7251 20.8089 22.801 20.992 22.801 21.183V25.289C22.8011 25.4467 22.7702 25.6028 22.7099 25.7485C22.6497 25.8942 22.5613 26.0266 22.4499 26.1382C22.3384 26.2497 22.2061 26.3382 22.0604 26.3986C21.9148 26.4589 21.7587 26.49 21.601 26.49H12.961C12.8033 26.49 12.6472 26.4589 12.5015 26.3986C12.3559 26.3382 12.2236 26.2497 12.1121 26.1382C12.0007 26.0266 11.9123 25.8942 11.852 25.7485C11.7918 25.6028 11.7609 25.4467 11.761 25.289V21.183C11.761 20.992 11.8368 20.8089 11.9719 20.6739C12.1069 20.5389 12.29 20.463 12.481 20.463ZM13.024 15.926L12.475 17.847H22.086L21.537 15.926H13.023H13.024ZM12.12 14.728C12.3283 14.5709 12.5821 14.4859 12.843 14.486H21.719C21.9799 14.486 22.2337 14.571 22.4419 14.7282C22.6501 14.8854 22.8015 15.1061 22.873 15.357L23.734 18.37C23.7646 18.4771 23.77 18.5899 23.7496 18.6995C23.7293 18.8091 23.6838 18.9124 23.6167 19.0014C23.5496 19.0904 23.4628 19.1626 23.3631 19.2123C23.2633 19.2621 23.1534 19.288 23.042 19.288H11.52C11.4086 19.288 11.2986 19.2621 11.1989 19.2123C11.0992 19.1626 11.0124 19.0904 10.9453 19.0014C10.8782 18.9124 10.8327 18.8091 10.8123 18.6995C10.792 18.5899 10.7973 18.4771 10.828 18.37L11.689 15.357C11.7605 15.1061 11.9118 14.8852 12.12 14.728Z" fill="#624CE0"/>
<path d="M11.52 17.847C11.7109 17.847 11.8941 17.9229 12.0291 18.0579C12.1641 18.1929 12.24 18.376 12.24 18.567V19.527C12.2399 19.6847 12.2708 19.8408 12.331 19.9865C12.3913 20.1322 12.4797 20.2646 12.5911 20.3762C12.7025 20.4877 12.8349 20.5762 12.9805 20.6366C13.1262 20.6969 13.2823 20.728 13.44 20.728C13.5977 20.728 13.7538 20.6969 13.8994 20.6366C14.0451 20.5762 14.1774 20.4877 14.2889 20.3762C14.4003 20.2646 14.4887 20.1322 14.5489 19.9865C14.6092 19.8408 14.6401 19.6847 14.64 19.527V18.567C14.64 18.4724 14.6586 18.3788 14.6948 18.2915C14.731 18.2041 14.784 18.1247 14.8509 18.0579C14.9177 17.991 14.9971 17.938 15.0845 17.9018C15.1718 17.8656 15.2654 17.847 15.36 17.847C15.4545 17.847 15.5482 17.8656 15.6355 17.9018C15.7229 17.938 15.8022 17.991 15.8691 18.0579C15.936 18.1247 15.989 18.2041 16.0252 18.2915C16.0614 18.3788 16.08 18.4724 16.08 18.567V19.527C16.0801 19.8738 16.0119 20.2172 15.8793 20.5376C15.7467 20.858 15.5523 21.1492 15.3071 21.3944C15.0619 21.6397 14.7709 21.8342 14.4505 21.9669C14.1301 22.0997 13.7868 22.168 13.44 22.168C13.0932 22.168 12.7498 22.0997 12.4295 21.9669C12.1091 21.8342 11.818 21.6397 11.5729 21.3944C11.3277 21.1492 11.1333 20.858 11.0007 20.5376C10.868 20.2172 10.7999 19.8738 10.8 19.527V18.567C10.8 18.376 10.8758 18.1929 11.0109 18.0579C11.1459 17.9229 11.329 17.847 11.52 17.847Z" fill="#624CE0"/>
<path fill-rule="evenodd" clip-rule="evenodd" d="M15.36 17.847C15.551 17.847 15.7341 17.9229 15.8691 18.0579C16.0042 18.1929 16.08 18.376 16.08 18.567V19.527C16.0799 19.6847 16.1108 19.8408 16.1711 19.9865C16.2313 20.1322 16.3197 20.2646 16.4311 20.3762C16.5426 20.4877 16.6749 20.5762 16.8206 20.6366C16.9662 20.6969 17.1223 20.728 17.28 20.728C17.4377 20.728 17.5938 20.6969 17.7395 20.6366C17.8851 20.5762 18.0175 20.4877 18.1289 20.3762C18.2403 20.2646 18.3287 20.1322 18.389 19.9865C18.4492 19.8408 18.4801 19.6847 18.48 19.527V18.567C18.48 18.376 18.5559 18.1929 18.6909 18.0579C18.8259 17.9229 19.0091 17.847 19.2 17.847C19.391 17.847 19.5741 17.9229 19.7091 18.0579C19.8442 18.1929 19.92 18.376 19.92 18.567V19.527C19.9201 19.8738 19.852 20.2172 19.7193 20.5376C19.5867 20.858 19.3923 21.1492 19.1471 21.3944C18.902 21.6397 18.6109 21.8342 18.2905 21.9669C17.9702 22.0997 17.6268 22.168 17.28 22.168C16.9332 22.168 16.5899 22.0997 16.2695 21.9669C15.9491 21.8342 15.6581 21.6397 15.4129 21.3944C15.1677 21.1492 14.9733 20.858 14.8407 20.5376C14.7081 20.2172 14.6399 19.8738 14.64 19.527V18.567C14.64 18.376 14.7159 18.1929 14.8509 18.0579C14.9859 17.9229 15.1691 17.847 15.36 17.847Z" fill="#624CE0"/>
<path fill-rule="evenodd" clip-rule="evenodd" d="M19.2 17.847C19.3909 17.847 19.5741 17.9229 19.7091 18.0579C19.8441 18.1929 19.92 18.376 19.92 18.567V19.527C19.9198 19.6847 19.9508 19.8408 20.011 19.9865C20.0713 20.1322 20.1597 20.2646 20.2711 20.3762C20.3825 20.4877 20.5149 20.5762 20.6605 20.6366C20.8062 20.6969 20.9623 20.728 21.12 20.728C21.2777 20.728 21.4338 20.6969 21.5794 20.6366C21.7251 20.5762 21.8574 20.4877 21.9689 20.3762C22.0803 20.2646 22.1687 20.1322 22.2289 19.9865C22.2892 19.8408 22.3201 19.6847 22.32 19.527V18.567C22.32 18.376 22.3958 18.1929 22.5309 18.0579C22.6659 17.9229 22.849 17.847 23.04 17.847C23.2309 17.847 23.4141 17.9229 23.5491 18.0579C23.6841 18.1929 23.76 18.376 23.76 18.567V19.527C23.7601 19.8738 23.6919 20.2172 23.5593 20.5376C23.4267 20.858 23.2323 21.1492 22.9871 21.3944C22.7419 21.6397 22.4509 21.8342 22.1305 21.9669C21.8101 22.0997 21.4668 22.168 21.12 22.168C20.7732 22.168 20.4298 22.0997 20.1095 21.9669C19.7891 21.8342 19.498 21.6397 19.2529 21.3944C19.0077 21.1492 18.8133 20.858 18.6807 20.5376C18.548 20.2172 18.4798 19.8738 18.48 19.527V18.567C18.48 18.376 18.5558 18.1929 18.6909 18.0579C18.8259 17.9229 19.009 17.847 19.2 17.847Z" fill="#624CE0"/>
<path d="M10.243 62.22H11.424V59.45H14.445V62.219H15.629V55.7H14.445V58.46H11.424V55.7H10.243V62.219V62.22ZM19.385 62.316C20.524 62.316 21.307 61.759 21.511 60.909L20.435 60.788C20.279 61.202 19.897 61.418 19.4 61.418C18.655 61.418 18.162 60.928 18.152 60.091H21.558V59.738C21.558 58.022 20.527 57.268 19.323 57.268C17.922 57.268 17.009 58.296 17.009 59.805C17.009 61.339 17.91 62.316 19.384 62.316H19.385ZM18.156 59.314C18.191 58.69 18.653 58.165 19.34 58.165C20.002 58.165 20.448 58.649 20.454 59.314H18.156ZM23.468 64.054C24.366 64.054 24.885 63.592 25.161 62.813L27.125 57.338L25.893 57.332L24.763 61.024H24.712L23.585 57.332H22.363L24.136 62.323L24.037 62.587C23.824 63.144 23.486 63.182 22.983 63.036L22.716 63.934C22.9572 64.0184 23.2115 64.0594 23.467 64.055L23.468 64.054ZM33.488 55.702V60.286C33.485 60.974 33.166 61.339 32.6 61.339C32.072 61.339 31.718 61.018 31.709 60.489H30.535C30.535 61.692 31.413 62.31 32.556 62.31C33.813 62.31 34.657 61.546 34.66 60.286V55.702H33.489H33.488ZM38.413 62.316C39.552 62.316 40.336 61.759 40.539 60.909L39.463 60.788C39.307 61.202 38.925 61.418 38.428 61.418C37.683 61.418 37.19 60.928 37.18 60.091H40.586V59.738C40.586 58.022 39.555 57.268 38.351 57.268C36.95 57.268 36.037 58.296 36.037 59.805C36.037 61.339 36.938 62.316 38.412 62.316H38.413ZM37.184 59.314C37.219 58.69 37.68 58.165 38.368 58.165C39.03 58.165 39.476 58.649 39.482 59.314H37.184ZM45.784 58.623C45.625 57.795 44.963 57.267 43.817 57.267C42.639 57.267 41.837 57.846 41.84 58.75C41.837 59.463 42.276 59.934 43.215 60.128L44.049 60.303C44.498 60.402 44.708 60.583 44.708 60.86C44.708 61.194 44.345 61.446 43.798 61.446C43.27 61.446 42.926 61.217 42.827 60.777L41.703 60.885C41.846 61.783 42.601 62.314 43.801 62.314C45.023 62.314 45.886 61.681 45.889 60.754C45.886 60.057 45.437 59.63 44.514 59.43L43.68 59.252C43.183 59.141 42.986 58.969 42.989 58.685C42.986 58.354 43.352 58.125 43.832 58.125C44.364 58.125 44.644 58.415 44.733 58.736L45.783 58.621L45.784 58.623ZM51.062 58.623C50.903 57.795 50.241 57.267 49.095 57.267C47.917 57.267 47.115 57.846 47.118 58.75C47.115 59.463 47.554 59.934 48.493 60.128L49.327 60.303C49.776 60.402 49.986 60.583 49.986 60.86C49.986 61.194 49.623 61.446 49.076 61.446C48.548 61.446 48.204 61.217 48.105 60.777L46.981 60.885C47.124 61.783 47.879 62.314 49.079 62.314C50.301 62.314 51.164 61.681 51.167 60.754C51.164 60.057 50.715 59.63 49.792 59.43L48.958 59.252C48.461 59.141 48.264 58.969 48.267 58.685C48.264 58.354 48.63 58.125 49.11 58.125C49.642 58.125 49.922 58.415 50.011 58.736L51.061 58.621L51.062 58.623ZM52.476 62.22H53.628V57.33H52.476V62.219V62.22ZM53.055 56.637C53.421 56.637 53.72 56.357 53.72 56.013C53.72 55.669 53.421 55.386 53.055 55.386C52.689 55.386 52.387 55.666 52.387 56.013C52.387 56.36 52.686 56.637 53.055 56.637ZM57.304 62.316C58.533 62.316 59.316 61.587 59.398 60.549H58.297C58.2666 60.7852 58.1486 61.0015 57.9664 61.1548C57.7841 61.3082 57.5509 61.3875 57.313 61.377C56.594 61.377 56.129 60.775 56.129 59.776C56.129 58.789 56.603 58.197 57.313 58.197C57.867 58.197 58.208 58.554 58.297 59.025H59.398C59.318 57.965 58.491 57.268 57.297 57.268C55.865 57.268 54.961 58.303 54.961 59.795C54.961 61.275 55.843 62.316 57.304 62.316ZM62.11 62.319C62.877 62.319 63.335 61.959 63.546 61.549H63.584V62.221H64.692V58.949C64.692 57.657 63.639 57.268 62.706 57.268C61.678 57.268 60.888 57.726 60.634 58.618L61.71 58.771C61.825 58.437 62.149 58.15 62.713 58.15C63.248 58.15 63.541 58.424 63.541 58.904V58.923C63.541 59.254 63.194 59.27 62.331 59.362C61.382 59.464 60.475 59.747 60.475 60.849C60.475 61.81 61.178 62.319 62.111 62.319H62.11ZM62.409 61.472C61.928 61.472 61.585 61.252 61.585 60.829C61.585 60.386 61.97 60.202 62.486 60.129C62.788 60.088 63.393 60.011 63.543 59.89V60.466C63.543 61.01 63.104 61.472 62.41 61.472H62.409ZM67.619 55.701H66.387L66.489 60.304H67.514L67.619 55.701ZM67.001 62.29C67.1858 62.2874 67.3624 62.2128 67.4931 62.0821C67.6238 61.9514 67.6984 61.7748 67.701 61.59C67.6969 61.4062 67.6216 61.2312 67.491 61.1017C67.3605 60.9723 67.1848 60.8985 67.001 60.896C66.613 60.896 66.297 61.208 66.301 61.59C66.298 61.978 66.613 62.29 67.001 62.29Z" fill="#060606"/>
<path d="M76.103 59.075H71.621V59.775H76.103V59.075ZM80.78 59.279C80.78 58.426 81.324 57.942 82.066 57.942C82.773 57.942 83.199 58.388 83.199 59.164V62.22H83.95V59.113C83.95 57.856 83.282 57.267 82.282 57.267C81.512 57.267 81.073 57.589 80.843 58.095H80.779V55.701H80.028V62.22H80.779V59.279H80.78ZM87.733 62.322C88.726 62.322 89.452 61.825 89.681 61.087L88.955 60.883C88.764 61.392 88.322 61.647 87.733 61.647C86.851 61.647 86.243 61.077 86.208 60.03H89.757V59.712C89.757 57.891 88.675 57.267 87.656 57.267C86.332 57.267 85.453 58.311 85.453 59.814C85.453 61.317 86.319 62.322 87.732 62.322H87.733ZM86.208 59.381C86.259 58.62 86.797 57.942 87.656 57.942C88.471 57.942 88.993 58.553 88.993 59.381H86.208ZM91.258 62.22H92.009V59.126C92.009 58.464 92.531 57.98 93.244 57.98C93.398 57.9816 93.5515 57.9986 93.702 58.031V57.267L93.307 57.254C92.721 57.254 92.212 57.585 92.034 58.069H91.983V57.33H91.257V62.219L91.258 62.22ZM96.853 62.322C97.846 62.322 98.572 61.825 98.801 61.087L98.075 60.883C97.884 61.392 97.442 61.647 96.853 61.647C95.971 61.647 95.363 61.077 95.328 60.03H98.877V59.712C98.877 57.891 97.795 57.267 96.776 57.267C95.452 57.267 94.573 58.311 94.573 59.814C94.573 61.317 95.439 62.322 96.852 62.322H96.853ZM95.328 59.381C95.379 58.62 95.917 57.942 96.776 57.942C97.591 57.942 98.113 58.553 98.113 59.381H95.328ZM101.04 55.701H100.327V56.287C100.327 56.758 100.098 57.166 99.83 57.548L100.238 57.879C100.747 57.472 101.04 56.797 101.04 56.275V55.702V55.701ZM105.162 58.426C104.927 57.732 104.399 57.267 103.431 57.267C102.4 57.267 101.636 57.853 101.636 58.68C101.636 59.355 102.037 59.807 102.934 60.017L103.749 60.208C104.243 60.323 104.475 60.558 104.475 60.896C104.475 61.316 104.029 61.66 103.329 61.66C102.715 61.66 102.33 61.396 102.196 60.871L101.483 61.049C101.658 61.88 102.342 62.322 103.342 62.322C104.478 62.322 105.252 61.701 105.252 60.858C105.252 60.177 104.825 59.747 103.953 59.534L103.227 59.356C102.648 59.213 102.387 59.019 102.387 58.643C102.387 58.223 102.832 57.917 103.431 57.917C104.087 57.917 104.357 58.28 104.488 58.617L105.162 58.426ZM110.728 62.22H111.467L112.536 58.464H112.612L113.682 62.22H114.42L115.91 57.331H115.121L114.064 61.061H114.013L112.982 57.331H112.18L111.136 61.074H111.085L110.028 57.331H109.238L110.728 62.22ZM118.013 59.279C118.013 58.426 118.557 57.942 119.299 57.942C120.005 57.942 120.432 58.388 120.432 59.164V62.22H121.183V59.113C121.183 57.856 120.515 57.267 119.515 57.267C118.745 57.267 118.306 57.589 118.077 58.095H118.013V55.701H117.262V62.22H118.013V59.279ZM124.355 62.335C125.208 62.335 125.653 61.877 125.806 61.558H125.844V62.22H126.596V58.999C126.596 57.446 125.412 57.267 124.788 57.267C124.049 57.267 123.209 57.522 122.827 58.413L123.54 58.668C123.705 58.312 124.097 57.93 124.813 57.93C125.504 57.93 125.844 58.296 125.844 58.923V58.949C125.844 59.312 125.475 59.28 124.584 59.395C123.677 59.513 122.687 59.713 122.687 60.834C122.687 61.789 123.425 62.336 124.355 62.336V62.335ZM124.469 61.66C123.871 61.66 123.438 61.393 123.438 60.871C123.438 60.298 123.96 60.12 124.546 60.043C124.864 60.005 125.717 59.916 125.844 59.763V60.451C125.844 61.062 125.361 61.66 124.469 61.66ZM130.451 57.331H129.407V56.16H128.656V57.331H127.918V57.968H128.656V61.024C128.656 61.877 129.344 62.285 129.98 62.285C130.261 62.285 130.439 62.234 130.541 62.196L130.388 61.521C130.324 61.534 130.222 61.559 130.057 61.559C129.726 61.559 129.407 61.457 129.407 60.821V57.969H130.451V57.332V57.331ZM132.856 55.701H132.143V56.287C132.143 56.758 131.914 57.166 131.646 57.548L132.054 57.879C132.563 57.472 132.856 56.797 132.856 56.275V55.702V55.701ZM136.978 58.426C136.743 57.732 136.214 57.267 135.247 57.267C134.216 57.267 133.452 57.853 133.452 58.68C133.452 59.355 133.853 59.807 134.75 60.017L135.565 60.208C136.058 60.323 136.291 60.558 136.291 60.896C136.291 61.316 135.845 61.66 135.145 61.66C134.531 61.66 134.145 61.396 134.012 60.871L133.299 61.049C133.474 61.88 134.158 62.322 135.158 62.322C136.294 62.322 137.068 61.701 137.068 60.858C137.068 60.177 136.641 59.747 135.769 59.534L135.043 59.356C134.464 59.213 134.203 59.019 134.203 58.643C134.203 58.223 134.648 57.917 135.247 57.917C135.903 57.917 136.173 58.28 136.304 58.617L136.978 58.426ZM142.188 59.279C142.188 58.426 142.732 57.942 143.473 57.942C144.18 57.942 144.607 58.388 144.607 59.164V62.22H145.358V59.113C145.358 57.856 144.689 57.267 143.69 57.267C142.92 57.267 142.48 57.589 142.251 58.095H142.188V55.701H141.436V62.22H142.188V59.279ZM148.529 62.335C149.382 62.335 149.828 61.877 149.981 61.558H150.019V62.22H150.77V58.999C150.77 57.446 149.586 57.267 148.962 57.267C148.224 57.267 147.383 57.522 147.001 58.413L147.714 58.668C147.88 58.312 148.272 57.93 148.988 57.93C149.678 57.93 150.019 58.296 150.019 58.923V58.949C150.019 59.312 149.65 59.28 148.759 59.395C147.851 59.513 146.861 59.713 146.861 60.834C146.861 61.789 147.6 62.336 148.529 62.336V62.335ZM148.644 61.66C148.046 61.66 147.613 61.393 147.613 60.871C147.613 60.298 148.135 60.12 148.72 60.043C149.039 60.005 149.892 59.916 150.019 59.763V60.451C150.019 61.062 149.535 61.66 148.644 61.66ZM152.5 64.054H153.251V61.469H153.315C153.48 61.736 153.799 62.322 154.741 62.322C155.963 62.322 156.816 61.342 156.816 59.788C156.816 58.247 155.963 57.267 154.728 57.267C153.773 57.267 153.48 57.853 153.315 58.107H153.226V57.33H152.5V64.053V64.054ZM153.238 59.776C153.238 58.681 153.722 57.943 154.639 57.943C155.594 57.943 156.065 58.745 156.065 59.776C156.065 60.82 155.581 61.648 154.639 61.648C153.735 61.648 153.238 60.884 153.238 59.776ZM158.32 64.054H159.072V61.469H159.135C159.301 61.736 159.619 62.322 160.561 62.322C161.784 62.322 162.637 61.342 162.637 59.788C162.637 58.247 161.784 57.267 160.549 57.267C159.594 57.267 159.301 57.853 159.135 58.107H159.046V57.33H158.32V64.053V64.054ZM159.059 59.776C159.059 58.681 159.543 57.943 160.459 57.943C161.414 57.943 161.885 58.745 161.885 59.776C161.885 60.82 161.402 61.648 160.459 61.648C159.555 61.648 159.059 60.884 159.059 59.776ZM166.191 62.322C167.184 62.322 167.91 61.825 168.139 61.087L167.413 60.883C167.222 61.392 166.78 61.647 166.191 61.647C165.309 61.647 164.701 61.077 164.666 60.03H168.215V59.712C168.215 57.891 167.133 57.267 166.115 57.267C164.79 57.267 163.912 58.311 163.912 59.814C163.912 61.317 164.778 62.322 166.191 62.322ZM164.666 59.381C164.717 58.62 165.255 57.942 166.115 57.942C166.929 57.942 167.451 58.553 167.451 59.381H164.666ZM170.468 59.279C170.468 58.426 170.996 57.942 171.716 57.942C172.413 57.942 172.836 58.397 172.836 59.164V62.22H173.587V59.113C173.587 57.865 172.922 57.267 171.932 57.267C171.194 57.267 170.735 57.598 170.506 58.095H170.442V57.331H169.717V62.22H170.468V59.279ZM175.318 62.22H176.07V57.33H175.318V62.219V62.22ZM175.7 56.516C175.993 56.516 176.235 56.287 176.235 56.007C176.235 55.727 175.993 55.498 175.7 55.498C175.407 55.498 175.166 55.727 175.166 56.007C175.166 56.287 175.407 56.516 175.7 56.516ZM178.555 59.279C178.555 58.426 179.084 57.942 179.803 57.942C180.5 57.942 180.923 58.397 180.923 59.164V62.22H181.675V59.113C181.675 57.865 181.009 57.267 180.019 57.267C179.281 57.267 178.823 57.598 178.593 58.095H178.53V57.331H177.804V62.22H178.555V59.279ZM185.379 64.155C186.551 64.155 187.493 63.62 187.493 62.36V57.33H186.767V58.107H186.691C186.525 57.852 186.22 57.267 185.265 57.267C184.03 57.267 183.177 58.247 183.177 59.75C183.177 61.278 184.068 62.144 185.252 62.144C186.207 62.144 186.512 61.584 186.678 61.316H186.742V62.309C186.742 63.124 186.169 63.493 185.379 63.493C184.491 63.493 184.179 63.025 183.979 62.754L183.38 63.174C183.686 63.686 184.287 64.154 185.379 64.154V64.155ZM185.354 61.469C184.412 61.469 183.928 60.756 183.928 59.738C183.928 58.745 184.399 57.943 185.354 57.943C186.27 57.943 186.754 58.681 186.754 59.738C186.754 60.82 186.258 61.469 185.354 61.469ZM193.214 62.22H193.952L195.022 58.464H195.098L196.167 62.22H196.906L198.396 57.331H197.606L196.549 61.061H196.498L195.467 57.331H194.665L193.621 61.074H193.57L192.513 57.331H191.724L193.214 62.22ZM199.747 62.22H200.498V57.33H199.747V62.219V62.22ZM200.129 56.516C200.422 56.516 200.664 56.287 200.664 56.007C200.664 55.727 200.422 55.498 200.129 55.498C199.836 55.498 199.594 55.727 199.594 56.007C199.594 56.287 199.836 56.516 200.129 56.516ZM204.359 57.331H203.315V56.16H202.564V57.331H201.825V57.968H202.564V61.024C202.564 61.877 203.251 62.285 203.888 62.285C204.168 62.285 204.346 62.234 204.448 62.196L204.295 61.521C204.232 61.534 204.13 61.559 203.964 61.559C203.633 61.559 203.315 61.457 203.315 60.821V57.969H204.359V57.332V57.331ZM206.704 59.279C206.704 58.426 207.248 57.942 207.99 57.942C208.696 57.942 209.123 58.388 209.123 59.164V62.22H209.874V59.113C209.874 57.856 209.206 57.267 208.206 57.267C207.436 57.267 206.997 57.589 206.767 58.095H206.704V55.701H205.953V62.22H206.704V59.279ZM10.771 79.053C11.449 79.053 11.927 78.693 12.21 77.933L14.292 72.344L13.471 72.331L12.121 76.227H12.07L10.72 72.331H9.90503L11.713 77.246L11.573 77.628C11.299 78.373 10.962 78.443 10.414 78.303L10.223 78.965C10.299 79.003 10.516 79.054 10.77 79.054L10.771 79.053ZM17.455 77.321C18.779 77.321 19.67 76.315 19.67 74.8C19.67 73.272 18.779 72.266 17.455 72.266C16.131 72.266 15.24 73.273 15.24 74.8C15.24 76.315 16.131 77.321 17.455 77.321ZM17.455 76.646C16.449 76.646 15.991 75.78 15.991 74.8C15.991 73.82 16.449 72.941 17.455 72.941C18.461 72.941 18.919 73.82 18.919 74.8C18.919 75.78 18.461 76.646 17.455 76.646ZM24.257 75.22C24.257 76.137 23.557 76.557 22.997 76.557C22.373 76.557 21.927 76.099 21.927 75.386V72.33H21.176V75.437C21.176 76.685 21.838 77.283 22.755 77.283C23.494 77.283 23.977 76.888 24.206 76.392H24.257V77.22H25.008V72.33H24.257V75.22ZM26.743 77.219H27.494V74.125C27.494 73.463 28.016 72.979 28.729 72.979C28.883 72.9806 29.0365 72.9976 29.187 73.03V72.266L28.792 72.253C28.206 72.253 27.697 72.584 27.519 73.068H27.468V72.329H26.742V77.218L26.743 77.219ZM36.779 73.425C36.543 72.731 36.015 72.266 35.047 72.266C34.016 72.266 33.252 72.852 33.252 73.679C33.252 74.354 33.653 74.806 34.551 75.016L35.366 75.207C35.859 75.322 36.092 75.557 36.092 75.895C36.092 76.315 35.646 76.659 34.946 76.659C34.332 76.659 33.946 76.395 33.813 75.87L33.1 76.048C33.275 76.879 33.959 77.321 34.959 77.321C36.095 77.321 36.869 76.7 36.869 75.857C36.869 75.176 36.442 74.746 35.57 74.533L34.844 74.355C34.265 74.212 34.004 74.018 34.004 73.642C34.004 73.222 34.45 72.916 35.048 72.916C35.704 72.916 35.974 73.279 36.105 73.616L36.78 73.425H36.779ZM40.484 72.33H39.44V71.159H38.689V72.33H37.95V72.967H38.689V76.023C38.689 76.876 39.377 77.283 40.013 77.283C40.293 77.283 40.471 77.232 40.573 77.194L40.42 76.519C40.356 76.532 40.254 76.557 40.089 76.557C39.758 76.557 39.44 76.455 39.44 75.818V72.966H40.484V72.329V72.33ZM43.906 77.321C45.23 77.321 46.121 76.315 46.121 74.8C46.121 73.272 45.23 72.266 43.906 72.266C42.582 72.266 41.69 73.273 41.69 74.8C41.69 76.315 42.581 77.321 43.905 77.321H43.906ZM43.906 76.646C42.9 76.646 42.442 75.78 42.442 74.8C42.442 73.82 42.9 72.941 43.906 72.941C44.912 72.941 45.37 73.82 45.37 74.8C45.37 75.78 44.912 76.646 43.906 76.646ZM47.627 77.219H48.378V74.125C48.378 73.463 48.9 72.979 49.613 72.979C49.767 72.9806 49.9205 72.9976 50.071 73.03V72.266L49.676 72.253C49.09 72.253 48.581 72.584 48.403 73.068H48.352V72.329H47.626V77.218L47.627 77.219ZM53.222 77.321C54.215 77.321 54.941 76.824 55.17 76.086L54.444 75.882C54.253 76.391 53.811 76.646 53.222 76.646C52.34 76.646 51.732 76.076 51.697 75.029H55.246V74.711C55.246 72.89 54.164 72.266 53.145 72.266C51.821 72.266 50.942 73.31 50.942 74.812C50.942 76.314 51.808 77.32 53.221 77.32L53.222 77.321ZM51.697 74.38C51.748 73.619 52.286 72.941 53.145 72.941C53.96 72.941 54.482 73.552 54.482 74.38H51.697ZM61.753 72.33H60.709V71.159H59.958V72.33H59.22V72.967H59.958V76.023C59.958 76.876 60.646 77.283 61.282 77.283C61.562 77.283 61.74 77.232 61.842 77.194L61.689 76.519C61.625 76.532 61.523 76.557 61.358 76.557C61.027 76.557 60.709 76.455 60.709 75.818V72.966H61.753V72.329V72.33ZM65.175 77.321C66.499 77.321 67.39 76.315 67.39 74.8C67.39 73.272 66.499 72.266 65.175 72.266C63.851 72.266 62.96 73.272 62.96 74.8C62.96 76.315 63.851 77.321 65.175 77.321ZM65.175 76.646C64.169 76.646 63.711 75.78 63.711 74.8C63.711 73.82 64.169 72.941 65.175 72.941C66.181 72.941 66.639 73.82 66.639 74.8C66.639 75.78 66.181 76.646 65.175 76.646ZM70.742 77.321C71.684 77.321 72.003 76.735 72.168 76.468H72.257V77.219H72.983V70.7H72.232V73.106H72.168C72.003 72.851 71.71 72.266 70.755 72.266C69.52 72.266 68.667 73.246 68.667 74.787C68.667 76.34 69.52 77.321 70.742 77.321ZM70.844 76.646C69.902 76.646 69.418 75.818 69.418 74.774C69.418 73.743 69.889 72.941 70.844 72.941C71.761 72.941 72.244 73.679 72.244 74.774C72.244 75.882 71.748 76.646 70.844 76.646ZM76.26 77.334C77.113 77.334 77.559 76.876 77.711 76.557H77.749V77.219H78.5V73.998C78.5 72.445 77.316 72.266 76.692 72.266C75.953 72.266 75.113 72.521 74.731 73.412L75.444 73.667C75.609 73.311 76.001 72.928 76.717 72.928C77.408 72.928 77.748 73.294 77.748 73.921V73.947C77.748 74.31 77.379 74.278 76.488 74.393C75.581 74.511 74.591 74.711 74.591 75.832C74.591 76.787 75.329 77.334 76.259 77.334H76.26ZM76.375 76.659C75.777 76.659 75.344 76.392 75.344 75.87C75.344 75.297 75.866 75.119 76.452 75.042C76.77 75.004 77.623 74.915 77.751 74.762V75.45C77.751 76.061 77.267 76.66 76.376 76.66L76.375 76.659ZM80.54 79.053C81.218 79.053 81.695 78.693 81.979 77.933L84.061 72.344L83.24 72.331L81.89 76.227H81.839L80.489 72.331H79.674L81.482 77.246L81.342 77.628C81.068 78.373 80.731 78.443 80.183 78.303L79.992 78.965C80.068 79.003 80.285 79.054 80.539 79.054L80.54 79.053ZM85.654 77.271C85.969 77.271 86.227 77.013 86.227 76.698C86.227 76.383 85.969 76.125 85.654 76.125C85.339 76.125 85.081 76.383 85.081 76.698C85.081 77.013 85.339 77.271 85.654 77.271Z" fill="#474747"/>
<path d="M225.278 92.515H14.722C12.0699 92.515 9.91998 94.6649 9.91998 97.317V148.536C9.91998 151.188 12.0699 153.338 14.722 153.338H225.278C227.93 153.338 230.08 151.188 230.08 148.536V97.317C230.08 94.6649 227.93 92.515 225.278 92.515Z" fill="white" stroke="#EAEAEA" stroke-width="0.64"/>
<path d="M25.003 138.435H26.353L26.359 136.977C29.09 136.779 30.656 135.277 30.663 133.144C30.657 130.884 28.791 129.853 26.831 129.388L26.411 129.28L26.436 125.645C27.455 125.823 28.11 126.435 28.212 127.351H30.485C30.447 125.327 28.855 123.85 26.449 123.621L26.455 122.137H25.105L25.099 123.621C22.712 123.863 20.993 125.327 20.999 127.434C20.999 129.306 22.33 130.382 24.475 130.935L25.048 131.082L25.022 134.933C23.883 134.755 23.061 134.106 22.979 132.953H20.655C20.744 135.341 22.387 136.76 25.009 136.977L25.003 138.435ZM26.372 134.933L26.397 131.438C27.556 131.776 28.294 132.221 28.301 133.125C28.295 134.067 27.537 134.742 26.372 134.933ZM25.061 128.936C24.183 128.656 23.38 128.192 23.393 127.288C23.399 126.466 24.017 125.83 25.086 125.645L25.06 128.936H25.061ZM37.174 136.983C39.93 136.983 41.853 135.112 41.853 132.521C41.853 130.012 40.109 128.204 37.74 128.204C36.683 128.204 35.748 128.625 35.264 129.197H35.188L35.564 125.741H41.172V123.767H33.609L32.928 130.49L35.061 130.84C35.5 130.356 36.328 130.031 37.111 130.038C38.543 130.044 39.575 131.101 39.568 132.578C39.574 134.036 38.569 135.073 37.174 135.073C35.996 135.073 35.048 134.329 34.965 133.259H32.673C32.737 135.423 34.627 136.983 37.174 136.983ZM43.986 136.805H52.924V134.831H47.246V134.742L49.493 132.457C52.027 130.025 52.727 128.841 52.727 127.37C52.727 125.187 50.951 123.589 48.328 123.589C45.743 123.589 43.91 125.193 43.91 127.67H46.157C46.157 126.339 46.997 125.505 48.296 125.505C49.537 125.505 50.46 126.263 50.46 127.491C50.46 128.58 49.798 129.357 48.512 130.662L43.986 135.099V136.805ZM56.565 136.945C56.9351 136.94 57.2886 136.791 57.5502 136.529C57.8119 136.268 57.9611 135.914 57.966 135.544C57.96 134.78 57.317 134.157 56.565 134.157C55.788 134.157 55.158 134.78 55.164 135.544C55.158 136.321 55.788 136.945 56.565 136.945ZM64.586 136.983C67.4 137.002 69.29 135.067 69.284 132.489C69.29 130.025 67.533 128.243 65.248 128.243C63.847 128.243 62.612 128.924 61.989 130.044H61.9C61.906 127.3 62.912 125.632 64.72 125.632C65.84 125.632 66.598 126.282 66.84 127.281H69.164C68.884 125.174 67.184 123.589 64.721 123.589C61.589 123.589 59.609 126.199 59.609 130.655C59.603 135.436 62.085 136.97 64.587 136.983H64.586ZM64.573 135.073C63.179 135.073 62.16 133.921 62.154 132.559C62.167 131.19 63.224 130.044 64.605 130.044C65.986 130.044 66.999 131.139 66.992 132.54C66.998 133.966 65.954 135.073 64.573 135.073ZM76.255 137.053C79.4 137.06 81.278 134.577 81.278 130.299C81.278 126.046 79.387 123.589 76.255 123.589C73.123 123.589 71.239 126.04 71.232 130.299C71.232 134.57 73.11 137.053 76.255 137.053ZM76.255 135.061C74.632 135.061 73.613 133.431 73.619 130.299C73.625 127.192 74.638 125.556 76.255 125.556C77.878 125.556 78.891 127.192 78.897 130.299C78.897 133.431 77.885 135.061 76.255 135.061Z" fill="#060606"/>
<path d="M20.146 107.7H21.873V112.439H22.877V107.7H24.604V106.851H20.146V107.7ZM30.985 109.645C30.985 107.839 29.883 106.775 28.418 106.775C26.953 106.775 25.851 107.839 25.851 109.645C25.851 111.451 26.951 112.515 28.418 112.515C29.885 112.515 30.985 111.451 30.985 109.645ZM29.967 109.645C29.967 110.917 29.328 111.607 28.417 111.607C27.506 111.607 26.867 110.917 26.867 109.645C26.867 108.373 27.508 107.684 28.417 107.684C29.326 107.684 29.967 108.374 29.967 109.645ZM34.603 112.439C36.306 112.439 37.315 111.386 37.315 109.64C37.315 107.894 36.305 106.851 34.641 106.851H32.709V112.439H34.602H34.603ZM33.722 111.563V107.727H34.584C35.719 107.727 36.311 108.36 36.311 109.64C36.311 110.92 35.719 111.563 34.554 111.563H33.722ZM39.463 112.439L39.924 111.061H42.025L42.489 112.439H43.569L41.599 106.851H40.349L38.382 112.439H39.462H39.463ZM40.197 110.248L40.953 107.997H40.997L41.753 110.248H40.198H40.197ZM44.121 106.851L46.154 110.355V112.439H47.163V110.355L49.196 106.851H48.053L46.686 109.323H46.632L45.265 106.851H44.12H44.121ZM51.475 106.851H50.689V107.413C50.689 107.858 50.514 108.199 50.315 108.499L50.773 108.797C51.174 108.464 51.474 107.891 51.474 107.408V106.851H51.475ZM56.129 108.387H57.103C57.084 107.443 56.279 106.775 55.089 106.775C53.916 106.775 53.034 107.435 53.037 108.423C53.037 109.225 53.607 109.686 54.527 109.924L55.163 110.087C55.766 110.24 56.164 110.428 56.167 110.862C56.164 111.34 55.711 111.659 55.051 111.659C54.418 111.659 53.927 111.375 53.886 110.788H52.89C52.931 111.899 53.758 112.524 55.059 112.524C56.399 112.524 57.176 111.855 57.179 110.87C57.176 109.902 56.377 109.46 55.536 109.261L55.012 109.13C54.554 109.02 54.057 108.827 54.062 108.36C54.065 107.94 54.441 107.632 55.074 107.632C55.677 107.632 56.075 107.913 56.127 108.387H56.129ZM64.561 108.387H65.535C65.516 107.443 64.711 106.775 63.521 106.775C62.348 106.775 61.467 107.435 61.469 108.423C61.469 109.225 62.039 109.686 62.959 109.924L63.595 110.087C64.198 110.24 64.596 110.428 64.599 110.862C64.596 111.34 64.143 111.659 63.483 111.659C62.85 111.659 62.359 111.375 62.318 110.788H61.322C61.363 111.899 62.19 112.524 63.491 112.524C64.831 112.524 65.608 111.855 65.611 110.87C65.608 109.902 64.809 109.46 63.969 109.261L63.445 109.13C62.987 109.02 62.49 108.827 62.495 108.36C62.498 107.94 62.874 107.632 63.507 107.632C64.11 107.632 64.508 107.913 64.56 108.387H64.561ZM67.91 112.439L68.371 111.061H70.472L70.936 112.439H72.016L70.046 106.851H68.796L66.829 112.439H67.91ZM68.644 110.248L69.4 107.997H69.444L70.2 110.248H68.645H68.644ZM73.52 112.439H76.993V111.591H74.532V106.851H73.52V112.439ZM78.64 112.439H82.296V111.591H79.652V110.065H82.086V109.217H79.652V107.7H82.274V106.851H78.64V112.439ZM87.112 108.387H88.086C88.067 107.443 87.262 106.775 86.072 106.775C84.899 106.775 84.017 107.435 84.02 108.423C84.02 109.225 84.59 109.686 85.51 109.924L86.146 110.087C86.749 110.24 87.147 110.428 87.15 110.862C87.147 111.34 86.694 111.659 86.034 111.659C85.401 111.659 84.91 111.375 84.869 110.788H83.873C83.914 111.899 84.741 112.524 86.042 112.524C87.382 112.524 88.159 111.855 88.162 110.87C88.159 109.902 87.36 109.46 86.52 109.261L85.996 109.13C85.538 109.02 85.041 108.827 85.046 108.36C85.049 107.94 85.425 107.632 86.058 107.632C86.661 107.632 87.059 107.913 87.111 108.387H87.112Z" fill="#808080"/>
<path fill-rule="evenodd" clip-rule="evenodd" d="M96.64 106.761C95.7486 106.761 94.8937 107.115 94.2634 107.745C93.6331 108.376 93.279 109.231 93.279 110.122C93.279 111.013 93.6331 111.868 94.2634 112.499C94.8937 113.129 95.7486 113.483 96.64 113.483C97.5314 113.483 98.3863 113.129 99.0166 112.499C99.6469 111.868 100.001 111.013 100.001 110.122C100.001 109.231 99.6469 108.376 99.0166 107.745C98.3863 107.115 97.5314 106.761 96.64 106.761ZM92.32 110.122C92.32 108.976 92.7751 107.877 93.5853 107.067C94.3955 106.257 95.4943 105.802 96.64 105.802C97.7857 105.802 98.8846 106.257 99.6947 107.067C100.505 107.877 100.96 108.976 100.96 110.122C100.96 111.268 100.505 112.367 99.6947 113.177C98.8846 113.987 97.7857 114.442 96.64 114.442C95.4943 114.442 94.3955 113.987 93.5853 113.177C92.7751 112.367 92.32 111.268 92.32 110.122ZM96.64 107.721C96.7673 107.721 96.8894 107.772 96.9794 107.862C97.0694 107.952 97.12 108.074 97.12 108.201V110.282C97.12 110.345 97.1076 110.407 97.0835 110.466C97.0594 110.524 97.024 110.577 96.9794 110.621C96.9348 110.666 96.8819 110.701 96.8237 110.725C96.7655 110.75 96.703 110.762 96.64 110.762C96.577 110.762 96.5146 110.75 96.4563 110.725C96.3981 110.701 96.3452 110.666 96.3006 110.621C96.256 110.577 96.2207 110.524 96.1965 110.466C96.1724 110.407 96.16 110.345 96.16 110.282V108.201C96.16 108.074 96.2106 107.952 96.3006 107.862C96.3906 107.772 96.5127 107.721 96.64 107.721Z" fill="#A2A2A2"/>
<path d="M96.64 112.523C96.8099 112.523 96.9728 112.456 97.0929 112.335C97.213 112.215 97.2805 112.052 97.2805 111.882C97.2805 111.713 97.213 111.55 97.0929 111.43C96.9728 111.309 96.8099 111.242 96.64 111.242C96.4701 111.242 96.3072 111.309 96.1871 111.43C96.067 111.55 95.9995 111.713 95.9995 111.882C95.9995 112.052 96.067 112.215 96.1871 112.335C96.3072 112.456 96.4701 112.523 96.64 112.523Z" fill="#A2A2A2"/>
<g filter="url(#filter1_i_1_94)">
<path fill-rule="evenodd" clip-rule="evenodd" d="M174.08 120.435L180.362 123.854L188.48 120.435L194.762 123.602L201.482 117.805L210.083 125.167L220.16 119.217V143.415H174.08V120.435Z" fill="url(#paint0_linear_1_94)"/>
</g>
<path d="M225.278 164.223H14.722C12.0699 164.223 9.91998 166.373 9.91998 169.025V220.244C9.91998 222.896 12.0699 225.046 14.722 225.046H225.278C227.93 225.046 230.08 222.896 230.08 220.244V169.025C230.08 166.373 227.93 164.223 225.278 164.223Z" fill="white" stroke="#EAEAEA" stroke-width="0.64"/>
<path d="M25.003 210.142H26.353L26.359 208.684C29.09 208.487 30.656 206.984 30.663 204.852C30.657 202.592 28.791 201.56 26.831 201.096L26.411 200.988L26.436 197.353C27.455 197.531 28.11 198.142 28.212 199.059H30.485C30.447 197.034 28.855 195.557 26.449 195.328L26.455 193.845H25.105L25.099 195.328C22.712 195.57 20.993 197.034 20.999 199.141C20.999 201.013 22.33 202.089 24.475 202.643L25.048 202.789L25.022 206.641C23.883 206.462 23.061 205.813 22.979 204.661H20.655C20.744 207.048 22.387 208.468 25.009 208.684L25.003 210.142ZM26.372 206.641L26.397 203.146C27.556 203.483 28.294 203.929 28.301 204.833C28.295 205.775 27.537 206.45 26.372 206.641ZM25.061 200.644C24.183 200.364 23.38 199.899 23.393 198.995C23.399 198.174 24.017 197.537 25.086 197.353L25.06 200.644H25.061ZM32.641 208.512H41.579V206.539H35.9V206.45L38.147 204.164C40.681 201.732 41.381 200.548 41.381 199.078C41.381 196.894 39.605 195.296 36.982 195.296C34.397 195.296 32.564 196.901 32.564 199.377H34.811C34.811 198.046 35.651 197.212 36.95 197.212C38.191 197.212 39.115 197.97 39.115 199.199C39.115 200.287 38.453 201.064 37.167 202.369L32.641 206.806V208.512ZM45.22 208.652C45.5897 208.647 45.9428 208.498 46.2043 208.236C46.4657 207.975 46.6149 207.622 46.62 207.252C46.614 206.488 45.971 205.864 45.22 205.864C45.0367 205.863 44.855 205.897 44.6852 205.966C44.5154 206.036 44.361 206.138 44.2307 206.267C44.1005 206.396 43.9971 206.549 43.9265 206.718C43.8558 206.887 43.8193 207.069 43.819 207.252C43.813 208.028 44.443 208.652 45.22 208.652ZM52.667 195.475H50.42L47.18 197.556V199.721L50.229 197.773H50.305V208.512H52.667V195.475ZM55.742 206.093H61.962V208.512H64.216V206.093H65.884V204.151H64.216V195.475H61.275L55.743 204.215V206.093H55.742ZM61.987 204.151H58.161V204.05L61.885 198.148H61.987V204.151ZM72.692 208.69C75.506 208.71 77.396 206.774 77.39 204.196C77.396 201.732 75.639 199.95 73.354 199.95C71.953 199.95 70.718 200.631 70.095 201.751H70.006C70.012 199.008 71.018 197.34 72.826 197.34C73.946 197.34 74.704 197.989 74.946 198.989H77.27C76.99 196.881 75.29 195.296 72.827 195.296C69.695 195.296 67.715 197.906 67.715 202.363C67.709 207.144 70.191 208.678 72.693 208.69H72.692ZM72.679 206.781C71.285 206.781 70.266 205.628 70.26 204.266C70.273 202.897 71.329 201.751 72.711 201.751C74.093 201.751 75.105 202.846 75.098 204.247C75.104 205.673 74.06 206.781 72.679 206.781ZM80.427 208.652C80.7969 208.647 81.1502 208.498 81.4119 208.237C81.6736 207.975 81.8229 207.622 81.828 207.252C81.822 206.488 81.179 205.864 80.427 205.864C80.2437 205.863 80.062 205.897 79.8922 205.966C79.7224 206.036 79.568 206.138 79.4377 206.267C79.3075 206.396 79.2041 206.549 79.1335 206.718C79.0628 206.887 79.0263 207.069 79.026 207.252C79.02 208.028 79.65 208.652 80.427 208.652ZM88.493 208.76C91.638 208.767 93.516 206.284 93.516 202.006C93.516 197.754 91.625 195.296 88.493 195.296C85.361 195.296 83.476 197.747 83.47 202.006C83.47 206.278 85.348 208.76 88.493 208.76ZM88.493 206.768C86.87 206.768 85.851 205.138 85.857 202.006C85.863 198.899 86.876 197.263 88.493 197.263C90.116 197.263 91.128 198.899 91.135 202.006C91.135 205.138 90.123 206.768 88.493 206.768ZM100.45 208.76C103.594 208.767 105.472 206.284 105.472 202.006C105.472 197.754 103.582 195.296 100.45 195.296C97.318 195.296 95.433 197.747 95.427 202.006C95.427 206.278 97.305 208.76 100.45 208.76ZM100.45 206.768C98.826 206.768 97.808 205.138 97.814 202.006C97.82 198.899 98.832 197.263 100.45 197.263C102.073 197.263 103.085 198.899 103.092 202.006C103.092 205.138 102.079 206.768 100.45 206.768Z" fill="#060606"/>
<path d="M20.146 179.407H21.873V184.146H22.877V179.407H24.604V178.559H20.146V179.407ZM30.985 181.353C30.985 179.546 29.883 178.482 28.418 178.482C26.953 178.482 25.851 179.546 25.851 181.353C25.851 183.16 26.951 184.223 28.418 184.223C29.885 184.223 30.985 183.159 30.985 181.353ZM29.967 181.353C29.967 182.624 29.328 183.314 28.417 183.314C27.506 183.314 26.867 182.624 26.867 181.353C26.867 180.082 27.508 179.391 28.417 179.391C29.326 179.391 29.967 180.081 29.967 181.353ZM32.224 179.407H33.951V184.146H34.955V179.407H36.682V178.559H32.224V179.407ZM38.352 184.146L38.813 182.769H40.914L41.378 184.146H42.458L40.488 178.559H39.238L37.271 184.146H38.351H38.352ZM39.086 181.956L39.842 179.705H39.886L40.642 181.956H39.087H39.086ZM43.963 184.146H47.436V183.298H44.975V178.559H43.963V184.146ZM54.794 180.095H55.768C55.749 179.151 54.944 178.482 53.755 178.482C52.582 178.482 51.701 179.143 51.703 180.13C51.703 180.932 52.273 181.393 53.193 181.631L53.829 181.795C54.432 181.947 54.83 182.136 54.833 182.569C54.83 183.047 54.377 183.366 53.717 183.366C53.084 183.366 52.593 183.082 52.552 182.496H51.556C51.597 183.606 52.424 184.231 53.725 184.231C55.065 184.231 55.842 183.563 55.845 182.578C55.842 181.609 55.043 181.167 54.203 180.968L53.679 180.837C53.221 180.728 52.724 180.534 52.729 180.068C52.732 179.647 53.108 179.339 53.741 179.339C54.344 179.339 54.742 179.62 54.794 180.095ZM58.143 184.146L58.604 182.769H60.705L61.169 184.146H62.249L60.279 178.559H59.029L57.062 184.146H58.142H58.143ZM58.877 181.956L59.633 179.705H59.677L60.433 181.956H58.878H58.877ZM63.753 184.146H67.226V183.298H64.765V178.559H63.753V184.146ZM68.873 184.146H72.529V183.298H69.885V181.773H72.319V180.924H69.885V179.407H72.507V178.559H68.873V184.146ZM77.345 180.095H78.319C78.3 179.151 77.495 178.482 76.306 178.482C75.133 178.482 74.252 179.143 74.254 180.13C74.254 180.932 74.824 181.393 75.744 181.631L76.38 181.795C76.983 181.947 77.381 182.136 77.384 182.569C77.381 183.047 76.928 183.366 76.268 183.366C75.635 183.366 75.144 183.082 75.103 182.496H74.107C74.148 183.606 74.975 184.231 76.276 184.231C77.616 184.231 78.393 183.563 78.396 182.578C78.393 181.609 77.594 181.167 76.754 180.968L76.23 180.837C75.772 180.728 75.275 180.534 75.28 180.068C75.283 179.647 75.659 179.339 76.292 179.339C76.895 179.339 77.293 179.62 77.345 180.095Z" fill="#808080"/>
<g filter="url(#filter2_i_1_94)">
<path fill-rule="evenodd" clip-rule="evenodd" d="M174.08 192.142L180.362 195.562L188.48 192.142L194.762 195.309L201.482 189.512L210.083 196.874L220.16 190.925V215.122H174.08V192.142Z" fill="url(#paint1_linear_1_94)"/>
</g>
<path d="M225.278 235.93H14.722C12.0699 235.93 9.91998 238.08 9.91998 240.732V291.951C9.91998 294.603 12.0699 296.753 14.722 296.753H225.278C227.93 296.753 230.08 294.603 230.08 291.951V240.732C230.08 238.08 227.93 235.93 225.278 235.93Z" fill="white" stroke="#EAEAEA" stroke-width="0.64"/>
<path d="M25.633 280.398C28.453 280.398 30.471 278.844 30.478 276.725C30.4735 275.951 30.1987 275.203 29.7012 274.61C29.2036 274.017 28.5145 273.617 27.753 273.478V273.389C29.071 273.096 29.988 271.912 29.994 270.499C29.988 268.493 28.142 267.004 25.633 267.004C23.106 267.004 21.26 268.487 21.266 270.499C21.26 271.912 22.164 273.096 23.507 273.389V273.478C21.966 273.732 20.776 275.095 20.782 276.725C20.776 278.844 22.787 280.398 25.633 280.398ZM25.633 278.577C24.156 278.577 23.201 277.762 23.214 276.559C23.201 275.311 24.226 274.426 25.633 274.426C27.021 274.426 28.039 275.318 28.052 276.559C28.039 277.762 27.091 278.577 25.633 278.577ZM25.633 272.638C24.423 272.638 23.558 271.855 23.57 270.721C23.557 269.601 24.398 268.85 25.633 268.85C26.849 268.85 27.683 269.601 27.696 270.721C27.683 271.861 26.824 272.638 25.633 272.638ZM37.345 280.398C40.159 280.417 42.05 278.482 42.043 275.903C42.049 273.44 40.292 271.657 38.007 271.657C36.606 271.657 35.371 272.338 34.748 273.459H34.659C34.665 270.715 35.671 269.047 37.479 269.047C38.599 269.047 39.357 269.696 39.599 270.696H41.923C41.643 268.589 39.943 267.004 37.48 267.004C34.348 267.004 32.368 269.614 32.368 274.07C32.362 278.851 34.844 280.385 37.346 280.398H37.345ZM37.332 278.488C35.938 278.488 34.919 277.336 34.913 275.973C34.926 274.605 35.982 273.459 37.364 273.459C38.746 273.459 39.758 274.554 39.751 275.954C39.757 277.38 38.713 278.488 37.332 278.488Z" fill="#060606"/>
<path d="M20.146 251.115H21.873V255.854H22.877V251.115H24.604V250.266H20.146V251.115ZM30.985 253.06C30.985 251.254 29.883 250.19 28.418 250.19C26.953 250.19 25.851 251.254 25.851 253.06C25.851 254.866 26.951 255.93 28.418 255.93C29.885 255.93 30.985 254.866 30.985 253.06ZM29.967 253.06C29.967 254.331 29.328 255.022 28.417 255.022C27.506 255.022 26.867 254.331 26.867 253.06C26.867 251.789 27.508 251.098 28.417 251.098C29.326 251.098 29.967 251.788 29.967 253.06ZM32.224 251.115H33.951V255.854H34.955V251.115H36.682V250.266H32.224V251.115ZM38.352 255.854L38.813 254.476H40.914L41.378 255.854H42.458L40.488 250.266H39.238L37.271 255.854H38.351H38.352ZM39.086 253.663L39.842 251.412H39.886L40.642 253.663H39.087H39.086ZM43.963 255.854H47.436V255.005H44.975V250.266H43.963V255.854ZM56.75 253.06C56.75 251.254 55.648 250.19 54.183 250.19C52.718 250.19 51.616 251.254 51.616 253.06C51.616 254.866 52.716 255.93 54.183 255.93C55.65 255.93 56.75 254.866 56.75 253.06ZM55.732 253.06C55.732 254.331 55.094 255.022 54.182 255.022C53.27 255.022 52.632 254.331 52.632 253.06C52.632 251.789 53.273 251.098 54.182 251.098C55.091 251.098 55.732 251.788 55.732 253.06ZM58.475 255.854H59.487V253.807H60.518L61.615 255.854H62.744L61.535 253.638C62.192 253.374 62.539 252.812 62.539 252.053C62.539 250.986 61.851 250.266 60.569 250.266H58.474V255.854H58.475ZM59.487 252.967V251.112H60.415C61.171 251.112 61.509 251.458 61.509 252.053C61.509 252.648 61.171 252.967 60.42 252.967H59.487ZM66.133 255.854C67.836 255.854 68.845 254.801 68.845 253.054C68.845 251.314 67.835 250.266 66.171 250.266H64.239V255.854H66.132H66.133ZM65.252 254.978V251.142H66.114C67.249 251.142 67.841 251.775 67.841 253.054C67.841 254.339 67.249 254.978 66.084 254.978H65.252ZM70.575 255.854H74.231V255.005H71.587V253.48H74.021V252.632H71.587V251.115H74.209V250.266H70.575V255.854ZM76.01 255.854H77.022V253.807H78.053L79.15 255.854H80.28L79.071 253.638C79.729 253.374 80.075 252.812 80.075 252.053C80.075 250.986 79.387 250.266 78.105 250.266H76.01V255.854ZM77.022 252.967V251.112H77.95C78.706 251.112 79.044 251.458 79.044 252.053C79.044 252.648 78.706 252.967 77.955 252.967H77.022ZM84.812 251.802H85.786C85.767 250.858 84.962 250.19 83.772 250.19C82.599 250.19 81.718 250.85 81.72 251.838C81.72 252.64 82.29 253.101 83.21 253.338L83.846 253.502C84.449 253.655 84.847 253.843 84.85 254.277C84.847 254.754 84.394 255.073 83.734 255.073C83.101 255.073 82.61 254.79 82.569 254.203H81.573C81.614 255.313 82.441 255.938 83.742 255.938C85.082 255.938 85.859 255.27 85.862 254.285C85.859 253.316 85.06 252.874 84.22 252.675L83.696 252.544C83.238 252.435 82.741 252.241 82.746 251.775C82.749 251.355 83.125 251.046 83.758 251.046C84.361 251.046 84.759 251.327 84.811 251.802H84.812Z" fill="#808080"/>
<g filter="url(#filter3_i_1_94)">
<path fill-rule="evenodd" clip-rule="evenodd" d="M174.08 263.849L180.362 267.269L188.48 263.849L194.762 267.017L201.482 261.219L210.083 268.581L220.16 262.632V286.829H174.08V263.849Z" fill="url(#paint2_linear_1_94)"/>
</g>
<g filter="url(#filter4_i_1_94)">
<path d="M9.59998 307.317H230.4V343.171H9.59998V307.317Z" fill="white"/>
</g>
<defs>
<filter id="filter0_i_1_94" x="0" y="-0.640244" width="240" height="41.6162" filterUnits="userSpaceOnUse" color-interpolation-filters="sRGB">
<feFlood flood-opacity="0" result="BackgroundImageFix"/>
<feBlend mode="normal" in="SourceGraphic" in2="BackgroundImageFix" result="shape"/>
<feColorMatrix in="SourceAlpha" type="matrix" values="0 0 0 0 0 0 0 0 0 0 0 0 0 0 0 0 0 0 127 0" result="hardAlpha"/>
<feOffset dy="-0.640244"/>
<feGaussianBlur stdDeviation="2"/>
<feComposite in2="hardAlpha" operator="arithmetic" k2="-1" k3="1"/>
<feColorMatrix type="matrix" values="0 0 0 0 0.913725 0 0 0 0 0.913725 0 0 0 0 0.913725 0 0 0 1 0"/>
<feBlend mode="normal" in2="shape" result="effect1_innerShadow_1_94"/>
</filter>
<filter id="filter1_i_1_94" x="174.08" y="117.805" width="46.08" height="26.8905" filterUnits="userSpaceOnUse" color-interpolation-filters="sRGB">
<feFlood flood-opacity="0" result="BackgroundImageFix"/>
<feBlend mode="normal" in="SourceGraphic" in2="BackgroundImageFix" result="shape"/>
<feColorMatrix in="SourceAlpha" type="matrix" values="0 0 0 0 0 0 0 0 0 0 0 0 0 0 0 0 0 0 127 0" result="hardAlpha"/>
<feOffset dy="1.28049"/>
<feGaussianBlur stdDeviation="2"/>
<feComposite in2="hardAlpha" operator="arithmetic" k2="-1" k3="1"/>
<feColorMatrix type="matrix" values="0 0 0 0 0.384314 0 0 0 0 0.298039 0 0 0 0 0.878431 0 0 0 1 0"/>
<feBlend mode="normal" in2="shape" result="effect1_innerShadow_1_94"/>
</filter>
<filter id="filter2_i_1_94" x="174.08" y="189.512" width="46.08" height="26.8905" filterUnits="userSpaceOnUse" color-interpolation-filters="sRGB">
<feFlood flood-opacity="0" result="BackgroundImageFix"/>
<feBlend mode="normal" in="SourceGraphic" in2="BackgroundImageFix" result="shape"/>
<feColorMatrix in="SourceAlpha" type="matrix" values="0 0 0 0 0 0 0 0 0 0 0 0 0 0 0 0 0 0 127 0" result="hardAlpha"/>
<feOffset dy="1.28049"/>
<feGaussianBlur stdDeviation="2"/>
<feComposite in2="hardAlpha" operator="arithmetic" k2="-1" k3="1"/>
<feColorMatrix type="matrix" values="0 0 0 0 0.384314 0 0 0 0 0.298039 0 0 0 0 0.878431 0 0 0 1 0"/>
<feBlend mode="normal" in2="shape" result="effect1_innerShadow_1_94"/>
</filter>
<filter id="filter3_i_1_94" x="174.08" y="261.219" width="46.08" height="26.8905" filterUnits="userSpaceOnUse" color-interpolation-filters="sRGB">
<feFlood flood-opacity="0" result="BackgroundImageFix"/>
<feBlend mode="normal" in="SourceGraphic" in2="BackgroundImageFix" result="shape"/>
<feColorMatrix in="SourceAlpha" type="matrix" values="0 0 0 0 0 0 0 0 0 0 0 0 0 0 0 0 0 0 127 0" result="hardAlpha"/>
<feOffset dy="1.28049"/>
<feGaussianBlur stdDeviation="2"/>
<feComposite in2="hardAlpha" operator="arithmetic" k2="-1" k3="1"/>
<feColorMatrix type="matrix" values="0 0 0 0 0.384314 0 0 0 0 0.298039 0 0 0 0 0.878431 0 0 0 1 0"/>
<feBlend mode="normal" in2="shape" result="effect1_innerShadow_1_94"/>
</filter>
<filter id="filter4_i_1_94" x="9.59998" y="306.677" width="220.8" height="36.4942" filterUnits="userSpaceOnUse" color-interpolation-filters="sRGB">
<feFlood flood-opacity="0" result="BackgroundImageFix"/>
<feBlend mode="normal" in="SourceGraphic" in2="BackgroundImageFix" result="shape"/>
<feColorMatrix in="SourceAlpha" type="matrix" values="0 0 0 0 0 0 0 0 0 0 0 0 0 0 0 0 0 0 127 0" result="hardAlpha"/>
<feOffset dy="-0.640244"/>
<feGaussianBlur stdDeviation="2"/>
<feComposite in2="hardAlpha" operator="arithmetic" k2="-1" k3="1"/>
<feColorMatrix type="matrix" values="0 0 0 0 0.862745 0 0 0 0 0.862745 0 0 0 0 0.862745 0 0 0 1 0"/>
<feBlend mode="normal" in2="shape" result="effect1_innerShadow_1_94"/>
</filter>
<linearGradient id="paint0_linear_1_94" x1="297.488" y1="143.415" x2="297.488" y2="57.302" gradientUnits="userSpaceOnUse">
<stop stop-color="#624CE0" stop-opacity="0"/>
<stop offset="1" stop-color="#624CE0"/>
</linearGradient>
<linearGradient id="paint1_linear_1_94" x1="297.488" y1="215.122" x2="297.488" y2="129.009" gradientUnits="userSpaceOnUse">
<stop stop-color="#624CE0" stop-opacity="0"/>
<stop offset="1" stop-color="#624CE0"/>
</linearGradient>
<linearGradient id="paint2_linear_1_94" x1="297.488" y1="286.829" x2="297.488" y2="200.716" gradientUnits="userSpaceOnUse">
<stop stop-color="#624CE0" stop-opacity="0"/>
<stop offset="1" stop-color="#624CE0"/>
</linearGradient>
</defs>
</svg>
