<svg width="80" height="80" viewBox="0 0 80 80" fill="none" xmlns="http://www.w3.org/2000/svg">
<path d="M40 80C62.0914 80 80 62.0914 80 40C80 17.9086 62.0914 0 40 0C17.9086 0 0 17.9086 0 40C0 62.0914 17.9086 80 40 80Z" fill="#060606"/>
<path d="M40 44.4446C42.4545 44.4446 44.4444 42.4547 44.4444 40.0001C44.4444 37.5456 42.4545 35.5557 40 35.5557C37.5454 35.5557 35.5555 37.5456 35.5555 40.0001C35.5555 42.4547 37.5454 44.4446 40 44.4446Z" stroke="white" stroke-width="2" stroke-linecap="round" stroke-linejoin="round"/>
<path opacity="0.2" d="M40 44.4446C42.4545 44.4446 44.4444 42.4547 44.4444 40.0001C44.4444 37.5456 42.4545 35.5557 40 35.5557C37.5454 35.5557 35.5555 37.5456 35.5555 40.0001C35.5555 42.4547 37.5454 44.4446 40 44.4446Z" fill="white"/>
<path opacity="0.2" d="M54.4444 31.1113H46.6666L55.5555 38.8891V32.2224C55.5555 32.0766 55.5267 31.932 55.471 31.7972C55.4151 31.6624 55.3333 31.5399 55.2301 31.4368C55.127 31.3336 55.0044 31.2518 54.8696 31.1959C54.7349 31.1401 54.5903 31.1113 54.4444 31.1113Z" fill="white"/>
<path opacity="0.2" d="M54.4444 48.8891C54.5903 48.8891 54.7349 48.8603 54.8696 48.8046C55.0044 48.7487 55.127 48.6669 55.2301 48.5637C55.3333 48.4606 55.4151 48.338 55.471 48.2032C55.5267 48.0684 55.5555 47.9239 55.5555 47.778V41.1113L46.6666 48.8891H54.4444Z" fill="white"/>
<path opacity="0.2" d="M24.4445 32.2224V38.8891L33.3333 31.1113H25.5556C25.4097 31.1113 25.2651 31.1401 25.1303 31.1959C24.9956 31.2518 24.873 31.3336 24.7699 31.4368C24.6667 31.5399 24.5849 31.6624 24.529 31.7972C24.4732 31.932 24.4445 32.0766 24.4445 32.2224Z" fill="white"/>
<path opacity="0.2" d="M24.4445 47.778C24.4445 47.9239 24.4732 48.0684 24.529 48.2032C24.5849 48.338 24.6667 48.4606 24.7699 48.5637C24.873 48.6669 24.9956 48.7487 25.1303 48.8046C25.2651 48.8603 25.4097 48.8891 25.5556 48.8891H33.3333L24.4445 41.1113V47.778Z" fill="white"/>
<path d="M54.4445 31.1113H25.5556C24.9419 31.1113 24.4445 31.6088 24.4445 32.2224V47.778C24.4445 48.3917 24.9419 48.8891 25.5556 48.8891H54.4445C55.0581 48.8891 55.5556 48.3917 55.5556 47.778V32.2224C55.5556 31.6088 55.0581 31.1113 54.4445 31.1113Z" stroke="white" stroke-width="2" stroke-linecap="round" stroke-linejoin="round"/>
<path d="M46.6666 31.1113L55.5555 38.8891" stroke="white" stroke-width="2" stroke-linecap="round" stroke-linejoin="round"/>
<path d="M46.6666 48.8891L55.5555 41.1113" stroke="white" stroke-width="2" stroke-linecap="round" stroke-linejoin="round"/>
<path d="M33.3333 31.1113L24.4445 38.8891" stroke="white" stroke-width="2" stroke-linecap="round" stroke-linejoin="round"/>
<path d="M33.3333 48.8891L24.4445 41.1113" stroke="white" stroke-width="2" stroke-linecap="round" stroke-linejoin="round"/>
</svg>
