<svg width="48" height="48" viewBox="0 0 48 48" fill="none" xmlns="http://www.w3.org/2000/svg">
<path opacity="0.2" d="M43.0585 19.8683L38.1935 17.1676C37.8522 16.4572 37.4582 15.7734 37.0145 15.122L37.1082 9.55548C35.045 7.68451 32.6045 6.27778 29.9512 5.43021L25.18 8.29306C24.3941 8.23328 23.6049 8.23266 22.819 8.29118L18.045 5.42676C15.3931 6.27816 12.9545 7.68838 10.8939 9.56233L10.9876 15.1258C10.5429 15.7765 10.1477 16.4596 9.80547 17.1696L4.93782 19.8717C4.34922 22.5941 4.35124 25.411 4.94374 28.1325L9.80869 30.8333C10.1499 31.5435 10.544 32.2273 10.9876 32.8788L10.8939 38.4453C12.9572 40.3163 15.3978 41.723 18.051 42.5705L22.8223 39.7078C23.6081 39.7675 24.3973 39.768 25.1832 39.7095L29.9572 42.574C32.609 41.7225 35.0477 40.3125 37.1082 38.4385L37.0145 32.875C37.4592 32.2243 37.8545 31.5413 38.1967 30.8313L43.0645 28.129C43.653 25.4068 43.651 22.5898 43.0585 19.8683ZM24.0011 33.0005C22.2211 33.0005 20.481 32.4725 19.001 31.4835C17.5209 30.4948 16.3674 29.089 15.6862 27.4445C15.005 25.8 14.8268 23.9904 15.174 22.2446C15.5213 20.4988 16.3785 18.8951 17.6371 17.6364C18.8958 16.3778 20.4994 15.5206 22.2453 15.1733C23.9911 14.8261 25.8007 15.0043 27.4452 15.6855C29.0897 16.3667 30.4955 17.5202 31.4842 19.0003C32.4732 20.4803 33.001 22.2204 33.001 24.0004C33.001 25.1823 32.7682 26.3525 32.316 27.4445C31.8637 28.5365 31.2007 29.5288 30.365 30.3643C29.5292 31.2 28.5372 31.863 27.4452 32.3153C26.3532 32.7675 25.183 33.0005 24.0011 33.0005Z" fill="#624CE0"/>
<path fill-rule="evenodd" clip-rule="evenodd" d="M14.2511 24.0005C14.2511 18.6157 18.6163 14.2505 24.0011 14.2505C29.386 14.2505 33.751 18.6157 33.751 24.0005C33.751 29.3852 29.386 33.7505 24.0011 33.7505C18.6163 33.7505 14.2511 29.3852 14.2511 24.0005ZM24.0011 15.7505C19.4448 15.7505 15.7511 19.4441 15.7511 24.0005C15.7511 28.5567 19.4448 32.2505 24.0011 32.2505C28.5575 32.2505 32.251 28.5567 32.251 24.0005C32.251 19.4441 28.5575 15.7505 24.0011 15.7505Z" fill="#624CE0"/>
<path fill-rule="evenodd" clip-rule="evenodd" d="M17.8158 4.71265C18.0215 4.64662 18.2456 4.6725 18.4309 4.78365L23.0033 7.52715C23.667 7.48747 24.3325 7.488 24.9962 7.5287L29.5655 4.7871C29.7502 4.67612 29.974 4.65015 30.1795 4.71577C32.935 5.59602 35.4692 7.05687 37.612 8.99987C37.772 9.145 37.8618 9.35207 37.8582 9.5681L37.7682 14.8996C38.1348 15.4546 38.467 16.0312 38.7635 16.6263L43.4225 19.2125C43.611 19.3172 43.7455 19.498 43.7912 19.7087C44.4067 22.535 44.4087 25.4605 43.7972 28.2875C43.7517 28.4987 43.6172 28.68 43.4282 28.7847L38.7663 31.373C38.4688 31.9675 38.1355 32.5435 37.7682 33.098L37.8582 38.4257C37.8618 38.6415 37.7725 38.8482 37.6128 38.9935C35.473 40.9392 32.9408 42.4037 30.1865 43.288C29.9808 43.3542 29.7568 43.3282 29.5715 43.217L24.9989 40.4735C24.3352 40.5132 23.6697 40.5127 23.006 40.4722L18.4368 43.2137C18.2519 43.3245 18.0282 43.3505 17.8228 43.285C15.0674 42.4047 12.5329 40.944 10.3901 39.0007C10.2301 38.8557 10.1404 38.6487 10.144 38.4327L10.2338 33.1012C9.8675 32.5462 9.5352 31.9695 9.23868 31.3745L4.57975 28.7882C4.3912 28.6835 4.25683 28.5027 4.21095 28.292C3.5956 25.4657 3.59348 22.5404 4.20478 19.7132C4.25043 19.502 4.38493 19.3208 4.57383 19.216L9.23595 16.6279C9.53343 16.0333 9.86665 15.4572 10.2337 14.9028L10.1441 9.57495C10.1404 9.35932 10.2298 9.15257 10.3893 9.00747C12.5293 7.0614 15.0617 5.59687 17.8158 4.71265ZM11.6496 9.89297L11.7375 15.1132C11.7401 15.2685 11.6944 15.4207 11.6068 15.549C11.1833 16.1686 10.807 16.8193 10.481 17.4953C10.4138 17.6348 10.3049 17.7501 10.1695 17.8253L5.60258 20.3605C5.12783 22.7651 5.12965 25.2395 5.60795 27.6435L10.1727 30.1775C10.3085 30.253 10.4175 30.3685 10.4848 30.5085C10.8097 31.185 11.185 31.8365 11.6075 32.4565C11.6947 32.5845 11.7401 32.7365 11.7375 32.8915L11.6496 38.114C13.4947 39.7275 15.6385 40.9632 17.9594 41.7507L22.4364 39.0647C22.5695 38.9847 22.7242 38.9482 22.8791 38.96C23.6274 39.0167 24.379 39.0172 25.1275 38.9615C25.282 38.95 25.4363 38.9867 25.5693 39.0665L30.0483 41.754C32.368 40.9627 34.51 39.724 36.3525 38.108L36.2645 32.8877C36.262 32.7322 36.3077 32.58 36.3952 32.4517C36.8187 31.832 37.1953 31.1815 37.5213 30.5055C37.5885 30.366 37.6972 30.2507 37.8327 30.1755L42.3995 27.6402C42.8745 25.2357 42.8725 22.7613 42.3942 20.3574L37.8295 17.8234C37.6937 17.748 37.5848 17.6323 37.5175 17.4924C37.1925 16.8157 36.8172 16.1645 36.3947 15.5442C36.3075 15.4162 36.262 15.2643 36.2645 15.1094L36.3525 9.88675C34.5075 8.2733 32.3638 7.03767 30.0427 6.24995L25.566 8.93617C25.4328 9.01607 25.278 9.05267 25.1232 9.0409C24.3747 8.984 23.6231 8.9834 22.8746 9.03912C22.7201 9.05062 22.5659 9.014 22.4331 8.9343L17.9541 6.24685C15.6343 7.038 13.4923 8.2768 11.6496 9.89297Z" fill="#624CE0"/>
</svg>
