<svg width="80" height="80" viewBox="0 0 80 80" fill="none" xmlns="http://www.w3.org/2000/svg">
<path d="M40 80C62.0914 80 80 62.0914 80 40C80 17.9086 62.0914 0 40 0C17.9086 0 0 17.9086 0 40C0 62.0914 17.9086 80 40 80Z" fill="#060606"/>
<path opacity="0.2" d="M38.8889 32.2223C40.7299 32.2223 42.2222 30.73 42.2222 28.889C42.2222 27.048 40.7299 25.5557 38.8889 25.5557C37.0479 25.5557 35.5555 27.048 35.5555 28.889C35.5555 30.73 37.0479 32.2223 38.8889 32.2223Z" fill="white"/>
<path opacity="0.2" d="M27.7778 42.2223C29.6188 42.2223 31.1111 40.73 31.1111 38.889C31.1111 37.048 29.6188 35.5557 27.7778 35.5557C25.9368 35.5557 24.4445 37.048 24.4445 38.889C24.4445 40.73 25.9368 42.2223 27.7778 42.2223Z" fill="white"/>
<path opacity="0.2" d="M44.4444 54.4445C46.2854 54.4445 47.7778 52.9522 47.7778 51.1112C47.7778 49.2702 46.2854 47.7778 44.4444 47.7778C42.6034 47.7778 41.1111 49.2702 41.1111 51.1112C41.1111 52.9522 42.6034 54.4445 44.4444 54.4445Z" fill="white"/>
<path opacity="0.2" d="M51.1111 35.5553C52.9521 35.5553 54.4444 34.063 54.4444 32.222C54.4444 30.381 52.9521 28.8887 51.1111 28.8887C49.2701 28.8887 47.7778 30.381 47.7778 32.222C47.7778 34.063 49.2701 35.5553 51.1111 35.5553Z" fill="white"/>
<path d="M38.8889 32.2223C40.7299 32.2223 42.2222 30.73 42.2222 28.889C42.2222 27.048 40.7299 25.5557 38.8889 25.5557C37.0479 25.5557 35.5555 27.048 35.5555 28.889C35.5555 30.73 37.0479 32.2223 38.8889 32.2223Z" stroke="white" stroke-width="2" stroke-linecap="round" stroke-linejoin="round"/>
<path d="M27.7778 42.2223C29.6188 42.2223 31.1111 40.73 31.1111 38.889C31.1111 37.048 29.6188 35.5557 27.7778 35.5557C25.9368 35.5557 24.4445 37.048 24.4445 38.889C24.4445 40.73 25.9368 42.2223 27.7778 42.2223Z" stroke="white" stroke-width="2" stroke-linecap="round" stroke-linejoin="round"/>
<path d="M44.4444 54.4445C46.2854 54.4445 47.7778 52.9522 47.7778 51.1112C47.7778 49.2702 46.2854 47.7778 44.4444 47.7778C42.6034 47.7778 41.1111 49.2702 41.1111 51.1112C41.1111 52.9522 42.6034 54.4445 44.4444 54.4445Z" stroke="white" stroke-width="2" stroke-linecap="round" stroke-linejoin="round"/>
<path d="M51.1111 35.5553C52.9521 35.5553 54.4444 34.063 54.4444 32.222C54.4444 30.381 52.9521 28.8887 51.1111 28.8887C49.2701 28.8887 47.7778 30.381 47.7778 32.222C47.7778 34.063 49.2701 35.5553 51.1111 35.5553Z" stroke="white" stroke-width="2" stroke-linecap="round" stroke-linejoin="round"/>
<path d="M47.8952 31.345L42.104 29.7656" stroke="white" stroke-width="2" stroke-linecap="round" stroke-linejoin="round"/>
<path d="M36.4108 31.1187L30.255 36.659" stroke="white" stroke-width="2" stroke-linecap="round" stroke-linejoin="round"/>
<path d="M30.4666 40.8604L41.7564 49.1396" stroke="white" stroke-width="2" stroke-linecap="round" stroke-linejoin="round"/>
<path d="M45.5544 47.9672L50.0019 35.3662" stroke="white" stroke-width="2" stroke-linecap="round" stroke-linejoin="round"/>
</svg>
