<svg width="88" height="56" viewBox="0 0 88 56" fill="none" xmlns="http://www.w3.org/2000/svg">
<path fill-rule="evenodd" clip-rule="evenodd" d="M80.0961 29.7509C80.0961 23.7697 77.6129 19.05 72.8666 19.05C68.1002 19.05 65.2164 23.7697 65.2164 29.7042C65.2164 36.7368 68.6209 40.2882 73.5074 40.2882C75.8906 40.2882 77.693 39.6573 79.0548 38.7695V34.0967C77.693 34.891 76.1309 35.3816 74.1483 35.3816C72.2057 35.3816 70.4834 34.5872 70.2631 31.8303H80.0561C80.0561 31.5266 80.0961 30.3116 80.0961 29.7509ZM70.203 27.5312C70.203 24.8911 71.5849 23.793 72.8465 23.793C74.0682 23.793 75.3699 24.8911 75.3699 27.5312H70.203Z" fill="#C5C5C5"/>
<path fill-rule="evenodd" clip-rule="evenodd" d="M57.4863 19.05C55.5237 19.05 54.262 20.1248 53.5611 20.8725L53.3007 19.4238H48.8949V46.6667L53.9015 45.4283L53.9215 38.8162C54.6425 39.4237 55.7039 40.2882 57.4662 40.2882C61.051 40.2882 64.3153 36.9237 64.3153 29.5173C64.2953 22.7416 60.9909 19.05 57.4863 19.05ZM56.2847 35.1481C55.1031 35.1481 54.4022 34.6574 53.9215 34.0499L53.9015 25.3818C54.4222 24.7042 55.1432 24.2369 56.2847 24.2369C58.1071 24.2369 59.3688 26.6201 59.3688 29.6808C59.3688 32.8116 58.1271 35.1481 56.2847 35.1481Z" fill="#C5C5C5"/>
<path fill-rule="evenodd" clip-rule="evenodd" d="M42.0043 17.6713L47.0309 16.4096V11.6667L42.0043 12.905V17.6713Z" fill="#C5C5C5"/>
<path d="M47.0309 19.4476H42.0043V39.8914H47.0309V19.4476Z" fill="#C5C5C5"/>
<path fill-rule="evenodd" clip-rule="evenodd" d="M36.6187 21.1755L36.2983 19.4464H31.9725V39.8902H36.9792V26.0352C38.1607 24.2362 40.1634 24.5632 40.7842 24.8202V19.4464C40.1434 19.1661 37.8003 18.6521 36.6187 21.1755Z" fill="#C5C5C5"/>
<path fill-rule="evenodd" clip-rule="evenodd" d="M26.6043 14.3771L21.7178 15.592L21.6978 34.3069C21.6978 37.7648 23.9207 40.3115 26.8846 40.3115C28.5268 40.3115 29.7284 39.961 30.3893 39.5404V34.7975C29.7484 35.1013 26.5842 36.176 26.5842 32.7181V24.4237H30.3893V19.4472H26.5842L26.6043 14.3771Z" fill="#C5C5C5"/>
<path fill-rule="evenodd" clip-rule="evenodd" d="M13.0667 25.3818C13.0667 24.4706 13.7076 24.1201 14.769 24.1201C16.291 24.1201 18.2135 24.6575 19.7355 25.6155V20.1248C18.0733 19.3538 16.4312 19.05 14.769 19.05C10.7036 19.05 8 21.5266 8 25.6621C8 32.1106 15.6101 31.0827 15.6101 33.863C15.6101 34.9378 14.809 35.2883 13.6875 35.2883C12.0253 35.2883 9.90252 34.4939 8.22029 33.4191V38.9797C10.0828 39.9144 11.9653 40.3116 13.6875 40.3116C17.8531 40.3116 20.7168 37.905 20.7168 33.7229C20.6968 26.7603 13.0667 27.9986 13.0667 25.3818Z" fill="#C5C5C5"/>
</svg>
