<svg width="152" height="56" viewBox="0 0 152 56" fill="none" xmlns="http://www.w3.org/2000/svg">
<path d="M142.074 35.542C141.988 36.0476 141.84 36.4888 141.631 36.8677C141.421 37.2469 141.147 37.5555 140.808 37.7897C140.469 38.0259 140.047 38.1444 139.542 38.1444C139.051 38.1444 138.633 38.0259 138.286 37.7897C137.94 37.5555 137.662 37.2469 137.452 36.8677C137.244 36.4888 137.092 36.0476 136.998 35.542C136.904 35.0376 136.858 34.5232 136.858 34.0027C136.858 33.4619 136.902 32.9401 136.988 32.4361C137.074 31.9307 137.223 31.4848 137.432 31.0955C137.641 30.7092 137.915 30.3937 138.254 30.1501C138.592 29.9058 139.015 29.7822 139.52 29.7822C140.011 29.7822 140.425 29.9058 140.764 30.1501C141.104 30.3937 141.381 30.7126 141.598 31.1089C141.815 31.505 141.97 31.9559 142.064 32.4604C142.158 32.966 142.204 33.4801 142.204 34.0027C142.204 34.5232 142.161 35.0376 142.074 35.542ZM144.975 31.4372C144.772 30.5877 144.462 29.8421 144.044 29.2019C143.625 28.5625 143.099 28.0482 142.464 27.6616C141.829 27.2735 141.071 27.0808 140.19 27.0808C139.499 27.0808 138.863 27.24 138.286 27.5601C137.709 27.8803 137.233 28.394 136.858 29.1012H136.815V27.4335H133.893V45.0657H136.966V38.8772H137.009C137.384 39.5176 137.865 40.0009 138.449 40.3284C139.033 40.6567 139.672 40.8219 140.365 40.8219C141.187 40.8219 141.904 40.6352 142.519 40.2658C143.131 39.8958 143.644 39.3983 144.055 38.775C144.467 38.1516 144.772 37.4368 144.975 36.6284C145.178 35.8198 145.278 34.978 145.278 34.1025C145.278 33.1764 145.178 32.2886 144.975 31.4372ZM129.824 35.542C129.737 36.0477 129.588 36.4889 129.38 36.8678C129.171 37.247 128.896 37.5556 128.556 37.7899C128.218 38.026 127.795 38.1445 127.291 38.1445C126.799 38.1445 126.383 38.026 126.036 37.7899C125.689 37.5556 125.412 37.247 125.203 36.8678C124.993 36.4889 124.842 36.0477 124.748 35.542C124.654 35.0377 124.608 34.5232 124.608 34.0027C124.608 33.462 124.65 32.9403 124.736 32.4363C124.824 31.9309 124.971 31.485 125.181 31.0956C125.389 30.7094 125.664 30.3938 126.004 30.1502C126.343 29.9059 126.763 29.7823 127.269 29.7823C127.759 29.7823 128.176 29.9059 128.514 30.1502C128.853 30.3938 129.131 30.7127 129.347 31.1089C129.563 31.505 129.718 31.9561 129.812 32.4605C129.907 32.966 129.952 33.4802 129.952 34.0029C129.952 34.5233 129.91 35.0377 129.824 35.5422V35.542ZM131.793 29.2021C131.375 28.5626 130.848 28.0484 130.213 27.6617C129.577 27.2738 128.821 27.081 127.941 27.081C127.247 27.081 126.613 27.2403 126.036 27.5603C125.457 27.8805 124.983 28.3942 124.608 29.1015H124.564V27.4337H121.641V45.0659H124.716V38.8773H124.758C125.133 39.5178 125.614 40.0012 126.199 40.3286C126.782 40.6569 127.421 40.8221 128.114 40.8221C128.937 40.8221 129.654 40.6355 130.267 40.266C130.88 39.896 131.393 39.3986 131.804 38.7752C132.216 38.1518 132.521 37.4369 132.724 36.6287C132.925 35.8201 133.027 34.9782 133.027 34.1027C133.027 33.1766 132.925 32.2887 132.724 31.4375C132.521 30.5879 132.211 29.8423 131.793 29.2021ZM111.578 33.5218L113.591 26.9035H113.633L115.582 33.5218H111.578ZM111.902 22.458L106.058 40.4928H109.478L110.69 36.4764H116.469L117.637 40.4928H121.166L115.388 22.458H111.902ZM105.798 34.772C105.596 34.3596 105.329 34.0144 104.997 33.7357C104.665 33.4587 104.286 33.2351 103.861 33.0659C103.435 32.8984 102.998 32.7564 102.551 32.638C102.118 32.5197 101.693 32.4101 101.275 32.3089C100.856 32.2074 100.484 32.0938 100.159 31.9683C99.8346 31.8417 99.5722 31.6786 99.3699 31.4748C99.1672 31.2733 99.0672 31.0127 99.0672 30.6923C99.0672 30.4228 99.1235 30.2084 99.2396 30.048C99.3554 29.8888 99.4962 29.7663 99.662 29.6813C99.8283 29.5978 100.011 29.5434 100.214 29.5173C100.415 29.4924 100.604 29.4805 100.776 29.4805C101.325 29.4805 101.801 29.6023 102.206 29.8464C102.609 30.0906 102.833 30.5579 102.876 31.2479H105.798C105.74 30.4401 105.564 29.771 105.268 29.2391C104.972 28.7095 104.6 28.2841 104.153 27.9645C103.707 27.6445 103.198 27.4176 102.627 27.2825C102.057 27.1476 101.469 27.081 100.864 27.081C100.257 27.081 99.6649 27.1443 99.0892 27.2692C98.5108 27.3961 97.9915 27.6159 97.5304 27.9267C97.0681 28.2382 96.6971 28.6627 96.4151 29.2021C96.1333 29.7408 95.9927 30.432 95.9927 31.2733C95.9927 31.8459 96.0946 32.331 96.2968 32.7263C96.497 33.1226 96.7653 33.4496 97.096 33.711C97.4288 33.9719 97.8078 34.1832 98.2333 34.342C98.6589 34.5036 99.0955 34.6415 99.5421 34.7599C100.64 35.0298 101.495 35.2982 102.108 35.5685C102.721 35.8374 103.028 36.2415 103.028 36.7809C103.028 37.1007 102.963 37.3645 102.833 37.5755C102.703 37.7872 102.541 37.9545 102.346 38.0808C102.15 38.2076 101.934 38.3009 101.697 38.3584C101.459 38.4179 101.231 38.4476 101.015 38.4476C100.711 38.4476 100.419 38.405 100.139 38.3212C99.8567 38.2368 99.6078 38.1061 99.3916 37.9293C99.1753 37.7528 98.9976 37.5258 98.8608 37.2471C98.7247 36.9691 98.6547 36.6379 98.6547 36.2496H95.733C95.7626 37.1252 95.9316 37.8539 96.2427 38.4347C96.5515 39.0157 96.9481 39.4825 97.4324 39.8368C97.9156 40.1898 98.4681 40.443 99.0892 40.595C99.7086 40.7461 100.344 40.8221 100.992 40.8221C101.627 40.8221 102.251 40.7499 102.865 40.6081C103.478 40.4644 104.023 40.2159 104.5 39.8616C104.977 39.5086 105.361 39.0415 105.658 38.46C105.953 37.8783 106.1 37.1586 106.1 36.2997C106.1 35.6924 106 35.1846 105.798 34.7722V34.772ZM93.0932 23.519H90.0191V27.4335H88.1585V29.8328H90.0191V37.5377C90.0191 38.1954 90.114 38.7252 90.3009 39.129C90.4888 39.5325 90.7446 39.846 91.0689 40.0643C91.3937 40.2833 91.7692 40.43 92.1949 40.5059C92.6194 40.5811 93.0723 40.6194 93.5474 40.6194C93.8515 40.6194 94.1609 40.6103 94.4789 40.5951C94.7956 40.5778 95.084 40.5451 95.3443 40.493V37.7141C95.1995 37.7484 95.0482 37.7748 94.889 37.79C94.7308 37.8071 94.5647 37.8161 94.3915 37.8161C93.8725 37.8161 93.5258 37.7141 93.3522 37.5123C93.18 37.3108 93.0932 36.9065 93.0932 36.2997V29.8332H95.3443V27.4338H93.0932V23.519ZM84.2837 35.44C84.2837 35.6438 84.2661 35.913 84.2295 36.2493C84.1937 36.587 84.0962 36.9184 83.9376 37.2468C83.7788 37.5752 83.5326 37.8583 83.2017 38.093C82.87 38.3294 82.401 38.4473 81.7943 38.4473C81.5496 38.4473 81.3111 38.422 81.0803 38.3705C80.849 38.3208 80.6476 38.2316 80.4743 38.1057C80.3015 37.9794 80.1639 37.8068 80.0628 37.5878C79.9624 37.3689 79.9113 37.1004 79.9113 36.7806C79.9113 36.444 79.9624 36.1643 80.0628 35.9464C80.1639 35.7286 80.2976 35.5468 80.4639 35.4032C80.629 35.2602 80.8241 35.1468 81.0478 35.0617C81.2714 34.9778 81.4983 34.9106 81.7299 34.86C81.9745 34.8105 82.2205 34.767 82.4651 34.7335C82.7114 34.7006 82.9456 34.6574 83.1688 34.6077C83.3931 34.5573 83.6017 34.4933 83.797 34.4175C83.9918 34.3417 84.1536 34.2378 84.2837 34.1023V35.44ZM87.357 37.5878V30.7939C87.357 30.0012 87.2062 29.3662 86.9022 28.8869C86.5998 28.4066 86.21 28.0323 85.7344 27.7627C85.2575 27.4934 84.7304 27.3121 84.1535 27.2197C83.5767 27.1271 83.0064 27.081 82.444 27.081C81.8239 27.081 81.2064 27.152 80.594 27.2956C79.9792 27.4386 79.4285 27.6791 78.9376 28.0151C78.4468 28.3519 78.0417 28.7987 77.726 29.3538C77.4075 29.9094 77.2274 30.6083 77.1843 31.4507H80.2574C80.3152 30.743 80.5181 30.2373 80.8645 29.9347C81.2106 29.6314 81.6862 29.4806 82.2929 29.4806C82.5666 29.4806 82.8224 29.5017 83.0611 29.5435C83.2987 29.586 83.5082 29.6689 83.6888 29.796C83.8694 29.9222 84.0136 30.0985 84.1213 30.3266C84.2296 30.5537 84.2837 30.8617 84.2837 31.248C84.2981 31.6196 84.2039 31.8999 84.0028 32.094C83.8001 32.2887 83.5264 32.4364 83.18 32.5361C82.8335 32.6381 82.4366 32.7142 81.9891 32.763C81.5416 32.8146 81.0874 32.8833 80.6262 32.9663C80.1639 33.0507 79.7056 33.1641 79.2521 33.3074C78.7976 33.4496 78.3923 33.6655 78.0393 33.9505C77.6854 34.2382 77.397 34.6207 77.1727 35.1009C76.9495 35.5811 76.8379 36.192 76.8379 36.932C76.8379 37.6054 76.9351 38.1863 77.13 38.6742C77.3246 39.164 77.5951 39.5665 77.9418 39.8868C78.2884 40.2068 78.6921 40.443 79.1538 40.595C79.6149 40.7461 80.1131 40.8221 80.6476 40.8221C81.3401 40.8221 82.0186 40.7037 82.6812 40.4691C83.3454 40.2317 83.9232 39.8206 84.4138 39.2303C84.4282 39.4491 84.4533 39.6646 84.489 39.8746C84.5251 40.0841 84.5724 40.2917 84.6301 40.493H87.7473C87.6031 40.225 87.5013 39.8206 87.4442 39.2807C87.3857 38.7422 87.357 38.1791 87.357 37.588V37.5878ZM74.695 28.5572C74.3924 28.094 73.9773 27.7326 73.4513 27.4709C72.924 27.2112 72.2494 27.0808 71.4273 27.0808C70.85 27.0808 70.2585 27.2528 69.6518 27.5987C69.0461 27.943 68.548 28.495 68.1587 29.2532H68.0937V22.4578H65.0201V40.4927H68.0937V33.6476C68.0937 32.3175 68.2811 31.3625 68.6566 30.7805C69.0314 30.2002 69.6375 29.9093 70.4748 29.9093C71.2104 29.9093 71.7228 30.1744 72.0115 30.7056C72.3002 31.2354 72.4443 32.0399 72.4443 33.1172V40.493H75.5181V32.4606C75.5181 31.6528 75.4562 30.9164 75.3339 30.25C75.2112 29.586 74.9983 29.0213 74.695 28.5576V28.5572ZM58.4621 34.8858H58.4193L55.7787 22.4581H52.5969L49.9126 34.7344H49.8696L47.4236 22.4581H44.0259L48.1165 40.493H51.5583L54.1334 28.2168H54.1768L56.7958 40.493H60.1724L64.3284 22.4581H60.9952L58.4621 34.8858Z" fill="#C5C5C5"/>
<path d="M15.7974 44.2411L16.279 44.5741C18.3025 45.9752 20.6225 46.7161 22.9883 46.7175H22.9935C30.2592 46.7175 36.1726 39.8202 36.1753 31.3431C36.1764 27.2347 34.8067 23.3721 32.3179 20.4658C29.8289 17.5601 26.5197 15.9587 22.9982 15.957C15.727 15.957 9.81362 22.8533 9.81087 31.3305C9.80991 34.2354 10.5064 37.0645 11.8262 39.5121L12.1399 40.0939L10.8079 45.7673L15.7974 44.2411ZM7.00024 50.1619L9.25022 40.5769C7.86241 37.7717 7.13232 34.5895 7.13346 31.3296C7.13684 21.1308 14.251 12.8333 22.9938 12.8333C27.2362 12.8354 31.2182 14.7617 34.2126 18.2581C37.2067 21.7544 38.8551 26.4019 38.8537 31.3445C38.85 41.5428 31.7343 49.8419 22.9938 49.8419C22.9932 49.8419 22.9941 49.8419 22.9938 49.8419H22.987C20.3327 49.8408 17.7246 49.0641 15.4082 47.5901L7.00024 50.1619Z" fill="#C5C5C5"/>
<path d="M7.13322 31.3353C7.13226 34.5952 7.86235 37.7777 9.25015 40.5826L7 50.167L15.4077 47.5951C17.7243 49.069 20.3322 49.8457 22.9865 49.847H22.9933C31.7338 49.847 38.8495 41.5479 38.8532 31.3496C38.8546 26.4068 37.2062 21.7594 34.2121 18.2632C31.2175 14.7671 27.2358 12.8406 22.9933 12.8385C14.251 12.8385 7.13661 21.1359 7.13295 31.3347L7.13322 31.3353ZM12.1398 40.0994L11.8259 39.5178C10.5062 37.0699 9.80968 34.2407 9.81064 31.3361C9.81352 22.8594 15.7268 15.9627 22.9979 15.9627C26.5191 15.9642 29.8284 17.5658 32.3177 20.4714C34.8066 23.3773 36.1762 27.2403 36.1752 31.3482C36.172 39.8253 30.2586 46.7227 22.993 46.7227H22.9878C20.622 46.721 18.3019 45.9802 16.2785 44.5794L15.7969 44.2463L10.8074 45.7725L12.1398 40.0994ZM22.9933 49.847H22.9934H22.9933C22.9931 49.847 22.993 49.847 22.9933 49.847Z" fill="#C5C5C5"/>
<path fill-rule="evenodd" clip-rule="evenodd" d="M19.0293 23.6006C18.7324 22.8307 18.42 22.8153 18.1376 22.8018C17.9065 22.7902 17.6421 22.7911 17.3781 22.7911C17.1138 22.7911 16.6845 22.9067 16.3214 23.3694C15.9581 23.8321 14.9343 24.9504 14.9343 27.2251C14.9343 29.4999 16.3545 31.6979 16.5524 32.0067C16.7506 32.3149 19.294 37.1321 23.3216 38.9851C26.6692 40.5252 27.3504 40.2188 28.077 40.1417C28.8036 40.0647 30.4217 39.0237 30.7518 37.9441C31.0821 36.8646 31.0821 35.9393 30.983 35.7461C30.884 35.5533 30.6197 35.4376 30.2234 35.2066C29.827 34.9754 27.8788 33.8568 27.5156 33.7024C27.1523 33.5484 26.8881 33.4714 26.6237 33.9342C26.3596 34.3966 25.6006 35.4376 25.3693 35.7461C25.1382 36.055 24.9069 36.0935 24.5107 35.8623C24.1143 35.6303 22.8379 35.1426 21.3238 33.5678C20.1457 32.3423 19.3505 30.8289 19.1192 30.3661C18.8881 29.9038 19.0945 29.6534 19.2932 29.4229C19.4713 29.2157 19.6896 28.883 19.8878 28.6132C20.0856 28.3432 20.1515 28.1505 20.2836 27.8421C20.4159 27.5336 20.3497 27.2636 20.2507 27.0322C20.1515 26.801 19.3814 24.5147 19.029 23.6005" fill="#C5C5C5"/>
</svg>
