<svg width="48" height="48" viewBox="0 0 48 48" fill="none" xmlns="http://www.w3.org/2000/svg">
<path opacity="0.2" d="M34.6857 6.95028L26.818 14.8181L27.8787 20.1214L33.182 21.1821L41.0497 13.3142L41.0505 13.3139C42.0245 15.6127 42.2572 18.158 41.717 20.5953C41.1765 23.0327 39.8895 25.241 38.0352 26.9128C36.181 28.5845 33.8517 29.6365 31.3715 29.9223C28.8915 30.2083 26.3837 29.7137 24.1978 28.5077L24.1981 28.5072L13.6819 40.682C12.8379 41.5252 11.6935 41.9987 10.5005 41.9982C9.30747 41.998 8.1634 41.5237 7.3198 40.6802C6.4762 39.8367 6.00212 38.6925 6.00177 37.4995C6.00142 36.3065 6.47487 35.1623 7.31797 34.318L19.4926 23.8021L19.4923 23.8022C18.2863 21.6163 17.7919 19.1087 18.0778 16.6285C18.3636 14.1484 19.4157 11.819 21.0874 9.9648C22.7591 8.11055 24.9673 6.82365 27.4047 6.2832C29.8422 5.74275 32.3875 5.97565 34.6862 6.9495L34.6857 6.95028Z" fill="#624CE0"/>
<path fill-rule="evenodd" clip-rule="evenodd" d="M33.3255 7.24997C31.4652 6.67525 29.4807 6.5911 27.567 7.01542C25.282 7.5221 23.2117 8.7286 21.6444 10.467C20.0771 12.2054 19.0908 14.3892 18.8228 16.7144C18.5556 19.0327 19.0156 21.3767 20.139 23.4218C20.3218 23.7319 20.2585 24.1316 19.9829 24.3697L7.83007 34.8668C7.13907 35.5685 6.7515 36.514 6.75177 37.4993C6.75205 38.4935 7.14712 39.447 7.85012 40.15C8.55312 40.853 9.50652 41.248 10.5007 41.2483C11.4861 41.2485 12.4317 40.861 13.1332 40.17L23.6305 28.017C23.8704 27.7393 24.2733 27.678 24.5832 27.8638C26.6272 28.9853 28.9692 29.4443 31.2857 29.1773C33.611 28.9093 35.7947 27.923 37.533 26.3557C39.2715 24.7883 40.478 22.7181 40.9847 20.433C41.409 18.5194 41.3247 16.5349 40.75 14.6746L33.7122 21.7124C33.535 21.8897 33.2807 21.9667 33.035 21.9175L27.7315 20.8569C27.4347 20.7975 27.2025 20.5654 27.1432 20.2685L26.0825 14.9652C26.0335 14.7193 26.1102 14.4651 26.2877 14.2878L33.3255 7.24997ZM24.3777 29.4468C26.568 30.5218 29.0252 30.9478 31.4575 30.6673C34.0925 30.3635 36.5675 29.2458 38.5375 27.4698C40.5075 25.6935 41.875 23.3473 42.449 20.7577C43.0232 18.168 42.7757 15.4638 41.7412 13.0213C41.6635 12.8382 41.5165 12.6933 41.332 12.6187C41.1475 12.544 40.941 12.5457 40.758 12.6233L40.7572 12.6237C40.6685 12.6613 40.5877 12.7157 40.5195 12.7839L32.9355 20.3679L28.516 19.4841L27.6322 15.0646L35.2162 7.4806C35.2835 7.4134 35.3372 7.33402 35.3747 7.24672L35.375 7.24595C35.454 7.06257 35.4565 6.85527 35.3822 6.67002C35.3077 6.48475 35.1625 6.3368 34.9787 6.25892C32.5362 5.22422 29.832 4.97677 27.2425 5.55097C24.6527 6.1252 22.3065 7.49252 20.5303 9.4626C18.7542 11.4327 17.6364 13.9076 17.3327 16.5427C17.0523 18.975 17.4783 21.4321 18.5533 23.6224L6.82772 33.7505C6.81382 33.7625 6.80035 33.775 6.78735 33.788C5.80372 34.7727 5.25137 36.108 5.25177 37.4998C5.25217 38.8918 5.80527 40.2265 6.78947 41.2105C7.77367 42.1948 9.10842 42.748 10.5003 42.7483C11.8921 42.7488 13.2272 42.1963 14.212 41.2128C14.225 41.1998 14.2375 41.1863 14.2495 41.1723L24.3777 29.4468Z" fill="#624CE0"/>
</svg>
